<svg id="Capa_1" data-name="Capa 1" xmlns="http://www.w3.org/2000/svg" viewBox="0 0 150 150"><defs><style>.cls-1{fill:#fff;}</style></defs><title>miner-blanco</title><polygon class="cls-1" points="43.65 54.47 37.35 32.34 43.65 54.47 43.65 54.47"/><path class="cls-1" d="M75,79,52.44,56.53l8.75-7H88.83l8.74,7Z"/><polygon class="cls-1" points="75 117.66 136.49 56.17 105.86 56.17 75 117.66"/><polygon class="cls-1" points="105.86 56.17 136.49 56.17 136.48 56.17 105.86 56.17 105.86 56.17"/><polygon class="cls-1" points="136.48 56.17 112.65 32.34 106.35 54.47 136.48 56.17"/><polygon class="cls-1" points="106.35 54.47 112.65 32.34 93.88 44.26 106.35 54.47"/><polygon class="cls-1" points="93.88 44.26 112.65 32.34 75 32.34 75 44.26 93.88 44.26"/><polygon class="cls-1" points="75 87.03 75 117.66 105.86 56.17 75 87.03"/><polygon class="cls-1" points="75 87.03 44.13 56.17 75 117.66 75 87.03 75 87.03"/><polygon class="cls-1" points="75 44.26 75 32.34 37.35 32.34 56.13 44.26 75 44.26"/><polygon class="cls-1" points="75 32.34 75 32.34 75 44.26 75 32.34"/><polygon class="cls-1" points="13.51 56.17 75 117.66 44.13 56.17 13.51 56.17"/><polygon class="cls-1" points="43.65 54.47 56.13 44.26 37.35 32.34 43.65 54.47 43.65 54.47"/><polygon class="cls-1" points="44.13 56.17 13.52 56.17 13.51 56.17 44.13 56.17 44.13 56.17"/><polygon class="cls-1" points="37.35 32.34 13.52 56.17 43.65 54.47 37.35 32.34"/><polygon class="cls-1" points="13.51 56.17 13.52 56.17 13.52 56.17 13.51 56.17"/><polygon class="cls-1" points="75.01 78.95 97.57 56.53 86.18 53.81 75.01 78.95"/><polygon class="cls-1" points="86.18 53.81 97.57 56.53 88.83 49.52 86.18 53.81"/><polygon class="cls-1" points="86.18 53.81 88.83 49.52 88.82 49.52 75.01 51.14 86.18 53.81"/><polygon class="cls-1" points="88.82 49.52 77.59 49.52 75.01 49.52 72.43 49.52 61.19 49.52 75.01 51.14 88.82 49.52"/><polygon class="cls-1" points="75.01 51.14 63.84 53.81 75.01 78.95 86.18 53.81 75.01 51.14"/><polygon class="cls-1" points="52.44 56.53 75.01 78.95 63.84 53.81 52.44 56.53"/><polygon class="cls-1" points="75.01 51.14 61.19 49.52 61.19 49.52 63.84 53.81 75.01 51.14"/><polygon class="cls-1" points="61.19 49.52 52.44 56.53 63.84 53.81 61.19 49.52"/></svg>