<svg height="512" viewBox="0 0 74 74" width="512" xmlns="http://www.w3.org/2000/svg"><g id="line_color" data-name="line color"><path d="m48.901 46.657 14.943 10.868-8.568 10.443-19.771-14.456" fill="#e7aa6c"/><path d="m48.899 46.654 15.241 11.085-5.007-.427-12.701-9.255-10.817 5.535-.113-.078z" fill="#d09865"/><g fill="#323c6b"><path d="m55.226 56.968a.5.5 0 0 1 -.3-.1l-5.734-4.268a.5.5 0 0 1 .6-.8l5.736 4.264a.5.5 0 0 1 -.3.9z"/><path d="m59.543 60.178a.5.5 0 0 1 -.3-.1l-1.085-.807a.5.5 0 0 1 .6-.8l1.085.807a.5.5 0 0 1 -.3.9z"/><path d="m50.536 59.16a.5.5 0 0 1 -.3-.1l-.934-.694a.5.5 0 0 1 .6-.8l.934.694a.5.5 0 0 1 -.3.9z"/><path d="m57.883 64.621a.5.5 0 0 1 -.3-.1l-4.583-3.411a.5.5 0 1 1 .6-.8l4.59 3.412a.5.5 0 0 1 -.3.9z"/><path d="m55.276 68.468a.5.5 0 0 1 -.294-.1l-19.772-14.452a.5.5 0 1 1 .59-.808l19.771 14.456a.5.5 0 0 1 -.3.9z"/><path d="m63.844 58.025a.5.5 0 0 1 -.293-.1l-14.944-10.863a.5.5 0 0 1 .588-.809l14.943 10.868a.5.5 0 0 1 -.294.9z"/></g><ellipse cx="60.112" cy="63.24" fill="#e7aa6c" rx="6.797" ry="5.009" transform="matrix(.653 -.757 .757 .653 -27.039 67.426)"/><path d="m58.386 69.841a4.568 4.568 0 0 1 -3.042-1.077 4.918 4.918 0 0 1 -1.553-4.238 9.1 9.1 0 0 1 6.668-7.726 4.643 4.643 0 0 1 5.972 5.155 9.1 9.1 0 0 1 -6.668 7.726 6.216 6.216 0 0 1 -1.377.16zm3.446-12.2a5.214 5.214 0 0 0 -1.151.135 8.108 8.108 0 0 0 -5.892 6.824 3.651 3.651 0 0 0 4.753 4.1 8.106 8.106 0 0 0 5.893-6.827 3.948 3.948 0 0 0 -1.209-3.4 3.59 3.59 0 0 0 -2.394-.833z" fill="#323c6b"/><ellipse cx="60.112" cy="63.24" fill="#d09865" rx="3.424" ry="2.524" transform="matrix(.653 -.757 .757 .653 -27.039 67.426)"/><path d="m23.946 46.657-14.943 10.868 8.568 10.443 19.771-14.456" fill="#e7aa6c"/><path d="m23.948 46.654-15.241 11.085 5.008-.427 12.7-9.255 10.817 5.535.113-.078z" fill="#d09865"/><g fill="#323c6b"><path d="m17.621 56.968a.5.5 0 0 1 -.3-.9l5.737-4.268a.5.5 0 0 1 .6.8l-5.736 4.264a.5.5 0 0 1 -.301.104z"/><path d="m13.3 60.178a.5.5 0 0 1 -.3-.9l1.085-.807a.5.5 0 0 1 .6.8l-1.085.807a.5.5 0 0 1 -.3.1z"/><path d="m22.311 59.16a.5.5 0 0 1 -.3-.9l.934-.694a.5.5 0 0 1 .6.8l-.934.694a.5.5 0 0 1 -.3.1z"/><path d="m14.964 64.621a.5.5 0 0 1 -.3-.9l4.59-3.412a.5.5 0 1 1 .6.8l-4.59 3.412a.5.5 0 0 1 -.3.1z"/><path d="m17.571 68.468a.5.5 0 0 1 -.3-.9l19.776-14.46a.5.5 0 1 1 .59.808l-19.771 14.456a.5.5 0 0 1 -.295.096z"/><path d="m9 58.025a.5.5 0 0 1 -.294-.9l14.946-10.872a.5.5 0 1 1 .588.809l-14.94 10.867a.5.5 0 0 1 -.3.096z"/></g><ellipse cx="12.736" cy="63.24" fill="#e7aa6c" rx="5.009" ry="6.797" transform="matrix(.757 -.653 .653 .757 -38.226 23.687)"/><path d="m14.461 69.841a6.216 6.216 0 0 1 -1.378-.161 8.628 8.628 0 0 1 -4.519-2.84 8.629 8.629 0 0 1 -2.149-4.885 4.918 4.918 0 0 1 1.553-4.238 4.917 4.917 0 0 1 4.419-.917 8.632 8.632 0 0 1 4.519 2.841 8.629 8.629 0 0 1 2.149 4.885 4.918 4.918 0 0 1 -1.555 4.238 4.568 4.568 0 0 1 -3.039 1.077zm-3.446-12.2a3.589 3.589 0 0 0 -2.394.833 3.948 3.948 0 0 0 -1.209 3.4 7.628 7.628 0 0 0 1.909 4.309 7.629 7.629 0 0 0 3.983 2.519 3.944 3.944 0 0 0 3.544-.7 3.947 3.947 0 0 0 1.209-3.4 7.627 7.627 0 0 0 -1.909-4.309 7.63 7.63 0 0 0 -3.983-2.519 5.214 5.214 0 0 0 -1.15-.134z" fill="#323c6b"/><ellipse cx="12.736" cy="63.24" fill="#d09865" rx="2.524" ry="3.424" transform="matrix(.757 -.653 .653 .757 -38.226 23.687)"/><path d="m59.555 73.475a.5.5 0 0 1 0-1c.3 0 .593-.024.888-.052a.49.49 0 0 1 .544.452.5.5 0 0 1 -.452.544c-.326.031-.653.056-.98.056z" fill="#323c6b"/><path d="m57.432 73.244a.5.5 0 0 1 -.106-.011 10.456 10.456 0 0 1 -4.019-1.806l-3.538-2.587a.5.5 0 1 1 .59-.808l3.541 2.588a9.471 9.471 0 0 0 3.639 1.635.5.5 0 0 1 -.1.989z" fill="#323c6b"/><path d="m19.448 30.249c7.084-11.927 9.339-16.249 9.418-28.318 5.527 3.46 13.122 14.529 13.754 21.649 3.359-1.083 6.233-5.2 6.916-10.806 8.8 10.157 12.268 25.567 3.438 35.654a20.77 20.77 0 0 1 -12.212 6.792c-15.65 3.08-28.388-13.06-21.314-24.971z" fill="#fe7058"/><path d="m39.343 24.947a7.775 7.775 0 0 0 3.174-2.088c-1.042-7.124-8.3-17.581-13.65-20.928-.009 1.411-.051 2.708-.124 3.933 4.896 4.779 10.082 13.253 10.6 19.083z" fill="#ea6453"/><path d="m49.536 12.774a18.357 18.357 0 0 1 -1.028 4.245c7.074 10.024 9.22 23.6 1.189 32.776a20.645 20.645 0 0 1 -6.042 4.73 20.884 20.884 0 0 0 9.319-6.1c8.826-10.084 5.361-25.494-3.438-35.651z" fill="#ea6453"/><path d="m46.478 43.572c-3.362-5.66-4.432-7.711-4.469-13.438-2.551 2.463-6.227 6.895-6.527 10.273-1.594-.514-2.958-2.467-3.282-5.128-4.175 4.821-5.822 12.133-1.632 16.921a9.856 9.856 0 0 0 5.8 3.223c7.422 1.462 13.467-6.199 10.11-11.851z" fill="#fcd462"/><path d="m38.18 56.1a9.9 9.9 0 0 1 -1.913-.187 10.419 10.419 0 0 1 -6.075-3.385c-4.485-5.124-2.576-12.72 1.63-17.575a.5.5 0 0 1 .874.267 6.016 6.016 0 0 0 2.387 4.46c.821-4.165 5.585-8.946 6.579-9.905a.5.5 0 0 1 .847.356c.037 5.595 1.014 7.487 4.4 13.186a7.721 7.721 0 0 1 -.6 8.57 9.959 9.959 0 0 1 -8.129 4.213zm-6.28-19.66c-3.441 4.523-4.822 11.014-.957 15.428a9.376 9.376 0 0 0 5.457 3.053 8.979 8.979 0 0 0 9.09-3.611 6.748 6.748 0 0 0 .558-7.482c-3.177-5.35-4.337-7.541-4.516-12.509-2.568 2.663-5.307 6.365-5.552 9.133a.5.5 0 0 1 -.651.432c-1.61-.52-2.891-2.212-3.429-4.444z" fill="#323c6b"/><path d="m22.154 41.886a.722.722 0 0 1 -.6-.312 5.545 5.545 0 0 1 -.665-2.737.722.722 0 0 1 1.444.058 4.394 4.394 0 0 0 .411 1.859.722.722 0 0 1 -.594 1.133z" fill="#fff"/><path d="m21.94 36.828a.723.723 0 0 1 -.709-.861 18.086 18.086 0 0 1 3.194-7.3c.539-.732 1.047-1.426 1.536-2.1a.723.723 0 1 1 1.168.851c-.491.672-1 1.369-1.54 2.1a16.661 16.661 0 0 0 -2.94 6.72.722.722 0 0 1 -.709.59z" fill="#fff"/><path d="m36.952 56.088a20.429 20.429 0 0 1 -16.691-8.637c-3.948-5.594-4.413-12.12-1.242-17.458 7.039-11.852 9.27-16.168 9.348-28.066a.5.5 0 0 1 .765-.42c5.454 3.414 12.884 13.959 13.912 21.376 3.032-1.341 5.406-5.324 6-10.17a.5.5 0 0 1 .874-.267c8.702 10.054 12.682 25.754 3.433 36.311a21.4 21.4 0 0 1 -12.435 6.943 20.562 20.562 0 0 1 -3.964.388zm-17.074-25.588c-2.963 4.989-2.514 11.108 1.2 16.371a19.414 19.414 0 0 0 19.587 7.854l.1-.016a20.367 20.367 0 0 0 11.835-6.609c8.615-9.842 5.192-24.416-2.732-34.153-.9 5.08-3.616 8.989-7.093 10.111a.5.5 0 0 1 -.651-.432c-.594-6.665-7.468-16.909-12.769-20.76-.19 11.457-2.519 15.922-9.478 27.638z" fill="#323c6b"/><path d="m43.049 13.273a.5.5 0 0 1 -.449-.273 43.614 43.614 0 0 0 -5.54-8.141.5.5 0 0 1 .76-.65 44.642 44.642 0 0 1 5.673 8.336.5.5 0 0 1 -.444.729z" fill="#323c6b"/><path d="m35.293 2.705a.5.5 0 0 1 -.354-.147q-.264-.265-.529-.52a.5.5 0 1 1 .693-.721q.272.261.544.535a.5.5 0 0 1 -.354.853z" fill="#323c6b"/></g></svg>