<svg height="512" viewBox="0 0 74 74" width="512" xmlns="http://www.w3.org/2000/svg"><g id="line_color" data-name="line color"><path d="m62.662 26.852-9.174 9.174-7.814-.164a2.1 2.1 0 0 1 -1.443-.616l-5.306-5.306a2.1 2.1 0 0 1 -.616-1.443l-.164-7.814 9.174-9.174 7.194.836a2.1 2.1 0 0 1 1.245.6l5.467 5.467a2.1 2.1 0 0 1 .6 1.245z" fill="#e1e6e9"/><path d="m38.151 20.681 9.167-9.167-2.255-2.243-9.167 9.167z" fill="#e1e6e9"/><path d="m38.151 21.182a.5.5 0 0 1 -.353-.146l-2.255-2.244a.5.5 0 0 1 0-.708l9.167-9.167a.5.5 0 0 1 .706 0l2.254 2.243a.5.5 0 0 1 0 .708l-9.17 9.167a.5.5 0 0 1 -.349.147zm-1.551-2.745 1.546 1.539 8.46-8.46-1.542-1.539z" fill="#323c6b"/><path d="m30.1 14.553 11.09-11.091a1 1 0 0 1 1.409 0l3.426 3.438a1 1 0 0 1 0 1.409l-11.091 11.091a1 1 0 0 1 -1.409 0l-3.425-3.438a1 1 0 0 1 0-1.409z" fill="#e1e6e9"/><path d="m53.491 36.022 9.167-9.167 2.259 2.197-9.167 9.167z" fill="#e1e6e9"/><path d="m55.75 38.719a.5.5 0 0 1 -.349-.142l-2.259-2.2a.5.5 0 0 1 0-.712l9.158-9.165a.5.5 0 0 1 .7 0l2.259 2.2a.5.5 0 0 1 0 .712l-9.159 9.16a.5.5 0 0 1 -.35.147zm-1.547-2.7 1.542 1.5 8.46-8.46-1.542-1.5z" fill="#323c6b"/><path d="m54.786 39.178 11.091-11.091a1 1 0 0 1 1.409 0l3.422 3.484a1 1 0 0 1 0 1.409l-11.091 11.092a1 1 0 0 1 -1.409 0l-3.422-3.484a1 1 0 0 1 0-1.41z" fill="#e1e6e9"/><g fill="#d5d6db"><path d="m62.66 26.85-1.59 1.59-.83-7.15a2.025 2.025 0 0 0 -.6-1.24l-5.47-5.47a2.079 2.079 0 0 0 -1.24-.6l-7.19-.84-7.6 7.6v-.06l9.18-9.17 7.19.83a2.147 2.147 0 0 1 1.25.61l5.46 5.46a2.147 2.147 0 0 1 .61 1.25z"/><path d="m46.02 8.31-1.43 1.43a.987.987 0 0 0 -.15-1.21l-3.42-3.43a1 1 0 0 0 -1.41 0l-9.68 9.68a.913.913 0 0 1 .17-.23l11.09-11.09a1 1 0 0 1 1.41 0l3.42 3.44a1 1 0 0 1 0 1.41z"/><path d="m70.71 32.98-1.44 1.44a.987.987 0 0 0 -.15-1.21l-3.42-3.49a1 1 0 0 0 -1.41 0l-9.64 9.64a2.193 2.193 0 0 1 .14-.18l11.09-11.09a1 1 0 0 1 1.41 0l3.42 3.48a1 1 0 0 1 0 1.41z"/></g><path d="m14.347 70.009 30.288-34.294-6.521-6.521-34.293 30.288a2.428 2.428 0 0 0 -.11 3.537l7.1 7.1a2.428 2.428 0 0 0 3.536-.11z" fill="#e7aa6c"/><path d="m14.347 66.634a2.428 2.428 0 0 1 -3.537.11l-7.1-7.1c-.007-.007-.011-.015-.018-.023a2.42 2.42 0 0 0 .018 3.4l7.1 7.1a2.428 2.428 0 0 0 3.537-.11l30.288-34.296-1.583-1.583z" fill="#d09865"/><g fill="#323c6b"><path d="m35.719 5.219a.5.5 0 0 1 -.354-.854l.427-.427a.5.5 0 0 1 .707.707l-.427.427a.5.5 0 0 1 -.353.147z"/><path d="m37.9 3.055a.5.5 0 0 1 -.361-.846l1.169-1.209a4.5 4.5 0 0 1 6.366-.012.5.5 0 0 1 -.707.707 3.58 3.58 0 0 0 -4.945 0l-1.156 1.205a.5.5 0 0 1 -.366.155z"/><path d="m14.292 74.031a.5.5 0 0 1 -.163-.973 4.947 4.947 0 0 0 2.092-1.4l3.119-3.532a.5.5 0 1 1 .75.662l-3.12 3.532a5.941 5.941 0 0 1 -2.516 1.68.5.5 0 0 1 -.162.031z"/><path d="m10.958 74.067a.5.5 0 0 1 -.143-.021 6.044 6.044 0 0 1 -1.606-.753.5.5 0 0 1 .551-.835 5.055 5.055 0 0 0 1.341.63.5.5 0 0 1 -.143.979z"/><path d="m53.488 36.525h-.01l-7.814-.164a2.592 2.592 0 0 1 -1.787-.762l-5.306-5.306a2.592 2.592 0 0 1 -.762-1.787l-.164-7.814a.5.5 0 0 1 .146-.364l9.173-9.174a.5.5 0 0 1 .411-.143l7.194.836a2.611 2.611 0 0 1 1.541.745l5.467 5.467a2.61 2.61 0 0 1 .745 1.541l.836 7.194a.5.5 0 0 1 -.143.411l-9.174 9.173a.5.5 0 0 1 -.353.147zm-14.839-15.64.16 7.6a1.6 1.6 0 0 0 .469 1.1l5.306 5.306a1.6 1.6 0 0 0 1.1.469l7.6.16 8.852-8.852-.808-6.954a1.606 1.606 0 0 0 -.459-.948l-5.469-5.466a1.612 1.612 0 0 0 -.949-.458l-6.951-.809z"/><path d="m34.229 20.191a1.486 1.486 0 0 1 -1.058-.438l-3.426-3.437a1.5 1.5 0 0 1 0-2.116l11.091-11.091a1.5 1.5 0 0 1 2.117 0l3.426 3.438a1.5 1.5 0 0 1 0 2.116l-11.092 11.09a1.486 1.486 0 0 1 -1.058.438zm7.665-16.521a.494.494 0 0 0 -.351.146l-11.091 11.091a.5.5 0 0 0 0 .7l3.426 3.438a.509.509 0 0 0 .7 0l11.093-11.09a.5.5 0 0 0 0-.7l-3.426-3.44a.494.494 0 0 0 -.351-.145z"/><path d="m58.913 44.863a1.49 1.49 0 0 1 -1.058-.437l-3.426-3.487a1.5 1.5 0 0 1 0-2.113l11.094-11.092a1.532 1.532 0 0 1 2.116 0l3.426 3.487a1.5 1.5 0 0 1 0 2.114l-11.094 11.09a1.49 1.49 0 0 1 -1.058.438zm7.669-16.563a.5.5 0 0 0 -.352.146l-11.091 11.086a.5.5 0 0 0 0 .7l3.426 3.487a.5.5 0 0 0 .7 0l11.089-11.092a.5.5 0 0 0 0-.7l-3.425-3.487a.488.488 0 0 0 -.347-.14z"/><path d="m12.524 71.33a2.9 2.9 0 0 1 -2.067-.857l-7.1-7.1a2.928 2.928 0 0 1 .132-4.265l34.295-30.289a.5.5 0 0 1 .685.021l6.521 6.521a.5.5 0 0 1 .021.685l-30.289 34.294-.375-.331.375.331a2.9 2.9 0 0 1 -2.1.988zm25.569-41.45-33.941 29.977a1.928 1.928 0 0 0 -.087 2.808l7.1 7.1a1.928 1.928 0 0 0 2.808-.087l29.976-33.942z"/></g><path d="m24.852 45.834a.65.65 0 0 1 -.444-1.125l5.792-5.409a.65.65 0 0 1 .888.95l-5.788 5.41a.65.65 0 0 1 -.448.174z" fill="#fff"/><path d="m22.516 48.083a.65.65 0 0 1 -.451-1.118l.584-.562a.65.65 0 1 1 .9.937l-.584.562a.647.647 0 0 1 -.449.181z" fill="#fff"/></g></svg>