<svg height="512" viewBox="0 0 74 74" width="512" xmlns="http://www.w3.org/2000/svg"><g id="line_color" data-name="line color"><path d="m3 17.093h68v7.213h-68z" fill="#e7aa6c"/><path d="m71 24.807h-68a.5.5 0 0 1 -.5-.5v-7.214a.5.5 0 0 1 .5-.5h68a.5.5 0 0 1 .5.5v7.213a.5.5 0 0 1 -.5.501zm-67.5-1h67v-6.214h-67z" fill="#323c6b"/><path d="m3 49.693h68v7.213h-68z" fill="#e7aa6c"/><path d="m71 57.407h-68a.5.5 0 0 1 -.5-.5v-7.214a.5.5 0 0 1 .5-.5h68a.5.5 0 0 1 .5.5v7.213a.5.5 0 0 1 -.5.501zm-67.5-1h67v-6.214h-67z" fill="#323c6b"/><path d="m3 17.09h68v2.59h-68z" fill="#d09865"/><path d="m3 49.69h68v2.59h-68z" fill="#d09865"/><path d="m7.905 13.588h6.954v3.505h-6.954z" fill="#e7aa6c"/><path d="m14.859 17.593h-6.959a.5.5 0 0 1 -.5-.5v-3.5a.5.5 0 0 1 .5-.5h6.954a.5.5 0 0 1 .5.5v3.5a.5.5 0 0 1 -.495.5zm-6.454-1h5.954v-2.5h-5.959z" fill="#323c6b"/><path d="m7.905 24.307h6.954v25.386h-6.954z" fill="#e7aa6c"/><path d="m14.859 50.193h-6.959a.5.5 0 0 1 -.5-.5v-25.386a.5.5 0 0 1 .5-.5h6.954a.5.5 0 0 1 .5.5v25.386a.5.5 0 0 1 -.495.5zm-6.454-1h5.954v-24.386h-5.959z" fill="#323c6b"/><path d="m7.905 56.907h6.954v3.505h-6.954z" fill="#e7aa6c"/><path d="m14.859 60.912h-6.959a.5.5 0 0 1 -.5-.5v-3.5a.5.5 0 0 1 .5-.5h6.954a.5.5 0 0 1 .5.5v3.5a.5.5 0 0 1 -.495.5zm-6.454-1h5.954v-2.5h-5.959z" fill="#323c6b"/><path d="m24.483 13.588h6.954v3.505h-6.954z" fill="#e7aa6c"/><path d="m31.437 17.593h-6.954a.5.5 0 0 1 -.5-.5v-3.5a.5.5 0 0 1 .5-.5h6.954a.5.5 0 0 1 .5.5v3.5a.5.5 0 0 1 -.5.5zm-6.454-1h5.954v-2.5h-5.954z" fill="#323c6b"/><path d="m24.483 24.307h6.954v25.386h-6.954z" fill="#e7aa6c"/><path d="m31.437 50.193h-6.954a.5.5 0 0 1 -.5-.5v-25.386a.5.5 0 0 1 .5-.5h6.954a.5.5 0 0 1 .5.5v25.386a.5.5 0 0 1 -.5.5zm-6.454-1h5.954v-24.386h-5.954z" fill="#323c6b"/><path d="m24.483 56.907h6.954v3.505h-6.954z" fill="#e7aa6c"/><path d="m31.437 60.912h-6.954a.5.5 0 0 1 -.5-.5v-3.5a.5.5 0 0 1 .5-.5h6.954a.5.5 0 0 1 .5.5v3.5a.5.5 0 0 1 -.5.5zm-6.454-1h5.954v-2.5h-5.954z" fill="#323c6b"/><path d="m41.061 13.588h6.954v3.505h-6.954z" fill="#e7aa6c"/><path d="m48.015 17.593h-6.954a.5.5 0 0 1 -.5-.5v-3.5a.5.5 0 0 1 .5-.5h6.954a.5.5 0 0 1 .5.5v3.5a.5.5 0 0 1 -.5.5zm-6.454-1h5.954v-2.5h-5.954z" fill="#323c6b"/><path d="m41.061 24.307h6.954v25.386h-6.954z" fill="#e7aa6c"/><path d="m48.015 50.193h-6.954a.5.5 0 0 1 -.5-.5v-25.386a.5.5 0 0 1 .5-.5h6.954a.5.5 0 0 1 .5.5v25.386a.5.5 0 0 1 -.5.5zm-6.454-1h5.954v-24.386h-5.954z" fill="#323c6b"/><path d="m41.061 56.907h6.954v3.505h-6.954z" fill="#e7aa6c"/><path d="m48.015 60.912h-6.954a.5.5 0 0 1 -.5-.5v-3.5a.5.5 0 0 1 .5-.5h6.954a.5.5 0 0 1 .5.5v3.5a.5.5 0 0 1 -.5.5zm-6.454-1h5.954v-2.5h-5.954z" fill="#323c6b"/><path d="m57.63 13.588h6.954v3.505h-6.954z" fill="#e7aa6c"/><path d="m64.584 17.593h-6.954a.5.5 0 0 1 -.5-.5v-3.5a.5.5 0 0 1 .5-.5h6.954a.5.5 0 0 1 .5.5v3.5a.5.5 0 0 1 -.5.5zm-6.454-1h5.954v-2.5h-5.954z" fill="#323c6b"/><path d="m57.63 24.307h6.954v25.386h-6.954z" fill="#e7aa6c"/><path d="m64.584 50.193h-6.954a.5.5 0 0 1 -.5-.5v-25.386a.5.5 0 0 1 .5-.5h6.954a.5.5 0 0 1 .5.5v25.386a.5.5 0 0 1 -.5.5zm-6.454-1h5.954v-24.386h-5.954z" fill="#323c6b"/><path d="m57.63 56.907h6.954v3.505h-6.954z" fill="#e7aa6c"/><path d="m64.584 60.912h-6.954a.5.5 0 0 1 -.5-.5v-3.5a.5.5 0 0 1 .5-.5h6.954a.5.5 0 0 1 .5.5v3.5a.5.5 0 0 1 -.5.5zm-6.454-1h5.954v-2.5h-5.954z" fill="#323c6b"/><g fill="#d09865"><path d="m12.78 13.59h2.08v3.5h-2.08z"/><path d="m12.78 24.31h2.08v25.38h-2.08z"/><path d="m12.78 56.91h2.08v3.5h-2.08z"/><path d="m29.35 13.59h2.09v3.5h-2.09z"/><path d="m29.35 24.31h2.09v25.38h-2.09z"/><path d="m29.35 56.91h2.09v3.5h-2.09z"/><path d="m45.93 13.59h2.09v3.5h-2.09z"/><path d="m45.93 24.31h2.09v25.38h-2.09z"/><path d="m45.93 56.91h2.09v3.5h-2.09z"/><path d="m62.5 13.59h2.08v3.5h-2.08z"/><path d="m62.5 24.31h2.08v25.38h-2.08z"/><path d="m62.5 56.91h2.08v3.5h-2.08z"/></g><g fill="#323c6b"><path d="m11.39 21.95a2.061 2.061 0 0 1 -.25-.02 1.612 1.612 0 0 1 -.23-.08 1.514 1.514 0 0 1 -.22-.11 1.461 1.461 0 0 1 -.19-.16 1.253 1.253 0 0 1 1.13-2.11.891.891 0 0 1 .23.08 1.512 1.512 0 0 1 .22.11 1.469 1.469 0 0 1 .19.16 1.011 1.011 0 0 1 .16.19 1.424 1.424 0 0 1 .11.21 1.116 1.116 0 0 1 .07.24.982.982 0 0 1 0 .48 1.1 1.1 0 0 1 -.07.24 1.377 1.377 0 0 1 -.11.21 1.015 1.015 0 0 1 -.16.19 1.466 1.466 0 0 1 -.19.16 1.514 1.514 0 0 1 -.22.11 1.571 1.571 0 0 1 -.23.08 1.9 1.9 0 0 1 -.24.02z"/><path d="m27.96 21.95a.987.987 0 0 1 -.24-.03 1.112 1.112 0 0 1 -.24-.07 1.377 1.377 0 0 1 -.21-.11 1.561 1.561 0 0 1 -.2-.16 1.58 1.58 0 0 1 -.15-.19 1.333 1.333 0 0 1 -.11-.21 1.116 1.116 0 0 1 -.08-.24 1.448 1.448 0 0 1 0-.48 1.129 1.129 0 0 1 .08-.24 2.195 2.195 0 0 1 .11-.22c.05-.06.1-.13.15-.19s.13-.1.2-.15a1.375 1.375 0 0 1 .21-.11 1.125 1.125 0 0 1 .24-.08 1.252 1.252 0 0 1 1.49 1.23 1.992 1.992 0 0 1 -.02.24 1.116 1.116 0 0 1 -.08.24 1.375 1.375 0 0 1 -.11.21 1.442 1.442 0 0 1 -.35.35 1.424 1.424 0 0 1 -.21.11 1.116 1.116 0 0 1 -.24.07.983.983 0 0 1 -.24.03z"/><path d="m44.53 21.95a1.217 1.217 0 0 1 -.88-.37 1.232 1.232 0 0 1 0-1.76 1.288 1.288 0 0 1 1.77 0 1.25 1.25 0 0 1 -.89 2.13z"/><path d="m61.11 21.95a1.252 1.252 0 0 1 -.89-2.13 1.288 1.288 0 0 1 1.77 0 1.232 1.232 0 0 1 0 1.76 1.217 1.217 0 0 1 -.88.37z"/><path d="m11.39 54.55a2.061 2.061 0 0 1 -.25-.02.9.9 0 0 1 -.23-.08 1.465 1.465 0 0 1 -.22-.11 1.427 1.427 0 0 1 -.19-.16 1.254 1.254 0 0 1 0-1.76 1.045 1.045 0 0 1 .41-.27.867.867 0 0 1 .23-.07 1.239 1.239 0 0 1 1.13.34 1.232 1.232 0 0 1 0 1.76 1.431 1.431 0 0 1 -.19.16 1.465 1.465 0 0 1 -.22.11.891.891 0 0 1 -.23.08 1.9 1.9 0 0 1 -.24.02z"/><path d="m27.96 54.55a1.9 1.9 0 0 1 -.24-.02 2.218 2.218 0 0 1 -.24-.07c-.07-.04-.15-.08-.21-.12a1.523 1.523 0 0 1 -.2-.16 1.256 1.256 0 0 1 0-1.76 1.564 1.564 0 0 1 .2-.16 1.333 1.333 0 0 1 .21-.11 1.059 1.059 0 0 1 .24-.07.974.974 0 0 1 .48 0 1.063 1.063 0 0 1 .24.07 1.377 1.377 0 0 1 .21.11 1.013 1.013 0 0 1 .19.16 1.218 1.218 0 0 1 .37.88 1.992 1.992 0 0 1 -.02.24 1.134 1.134 0 0 1 -.08.24 1.4 1.4 0 0 1 -.11.21 1 1 0 0 1 -.16.19 1.216 1.216 0 0 1 -.88.37z"/><path d="m44.53 54.55a1.216 1.216 0 0 1 -.88-.37 1.231 1.231 0 0 1 0-1.76 1.287 1.287 0 0 1 1.77 0 1.25 1.25 0 0 1 -.89 2.13z"/><path d="m61.11 54.55a2.053 2.053 0 0 1 -.25-.02 1.564 1.564 0 0 1 -.23-.07c-.08-.04-.15-.08-.22-.12s-.13-.1-.19-.15a1.5 1.5 0 0 1 -.15-.2.889.889 0 0 1 -.12-.21c-.03-.08-.05-.16-.07-.23a1.054 1.054 0 0 1 -.02-.25.969.969 0 0 1 .02-.24 2.226 2.226 0 0 1 .07-.24.9.9 0 0 1 .12-.21.975.975 0 0 1 .15-.19 1.042 1.042 0 0 1 .41-.27.856.856 0 0 1 .23-.07 1.238 1.238 0 0 1 1.13.34 1.013 1.013 0 0 1 .16.19 1.377 1.377 0 0 1 .11.21 1.063 1.063 0 0 1 .07.24.981.981 0 0 1 .03.24 1.132 1.132 0 0 1 -.03.25 1.157 1.157 0 0 1 -.07.23 1.355 1.355 0 0 1 -.11.21 1.564 1.564 0 0 1 -.16.2c-.06.05-.12.1-.19.15s-.14.08-.22.12a1.564 1.564 0 0 1 -.23.07 1.883 1.883 0 0 1 -.24.02z"/><path d="m71 24.807h-68a.5.5 0 0 1 -.5-.5v-7.214a.5.5 0 0 1 .5-.5h68a.5.5 0 0 1 .5.5v7.213a.5.5 0 0 1 -.5.501zm-67.5-1h67v-6.214h-67z"/><path d="m71 57.407h-68a.5.5 0 0 1 -.5-.5v-7.214a.5.5 0 0 1 .5-.5h68a.5.5 0 0 1 .5.5v7.213a.5.5 0 0 1 -.5.501zm-67.5-1h67v-6.214h-67z"/><path d="m14.859 17.593h-6.959a.5.5 0 0 1 -.5-.5v-3.5a.5.5 0 0 1 .5-.5h6.954a.5.5 0 0 1 .5.5v3.5a.5.5 0 0 1 -.495.5zm-6.454-1h5.954v-2.5h-5.959z"/><path d="m14.859 50.193h-6.959a.5.5 0 0 1 -.5-.5v-25.386a.5.5 0 0 1 .5-.5h6.954a.5.5 0 0 1 .5.5v25.386a.5.5 0 0 1 -.495.5zm-6.454-1h5.954v-24.386h-5.959z"/><path d="m14.859 60.912h-6.959a.5.5 0 0 1 -.5-.5v-3.5a.5.5 0 0 1 .5-.5h6.954a.5.5 0 0 1 .5.5v3.5a.5.5 0 0 1 -.495.5zm-6.454-1h5.954v-2.5h-5.959z"/><path d="m31.437 17.593h-6.954a.5.5 0 0 1 -.5-.5v-3.5a.5.5 0 0 1 .5-.5h6.954a.5.5 0 0 1 .5.5v3.5a.5.5 0 0 1 -.5.5zm-6.454-1h5.954v-2.5h-5.954z"/><path d="m31.437 50.193h-6.954a.5.5 0 0 1 -.5-.5v-25.386a.5.5 0 0 1 .5-.5h6.954a.5.5 0 0 1 .5.5v25.386a.5.5 0 0 1 -.5.5zm-6.454-1h5.954v-24.386h-5.954z"/><path d="m31.437 60.912h-6.954a.5.5 0 0 1 -.5-.5v-3.5a.5.5 0 0 1 .5-.5h6.954a.5.5 0 0 1 .5.5v3.5a.5.5 0 0 1 -.5.5zm-6.454-1h5.954v-2.5h-5.954z"/><path d="m48.015 17.593h-6.954a.5.5 0 0 1 -.5-.5v-3.5a.5.5 0 0 1 .5-.5h6.954a.5.5 0 0 1 .5.5v3.5a.5.5 0 0 1 -.5.5zm-6.454-1h5.954v-2.5h-5.954z"/><path d="m48.015 50.193h-6.954a.5.5 0 0 1 -.5-.5v-25.386a.5.5 0 0 1 .5-.5h6.954a.5.5 0 0 1 .5.5v25.386a.5.5 0 0 1 -.5.5zm-6.454-1h5.954v-24.386h-5.954z"/><path d="m48.015 60.912h-6.954a.5.5 0 0 1 -.5-.5v-3.5a.5.5 0 0 1 .5-.5h6.954a.5.5 0 0 1 .5.5v3.5a.5.5 0 0 1 -.5.5zm-6.454-1h5.954v-2.5h-5.954z"/><path d="m64.584 17.593h-6.954a.5.5 0 0 1 -.5-.5v-3.5a.5.5 0 0 1 .5-.5h6.954a.5.5 0 0 1 .5.5v3.5a.5.5 0 0 1 -.5.5zm-6.454-1h5.954v-2.5h-5.954z"/><path d="m64.584 50.193h-6.954a.5.5 0 0 1 -.5-.5v-25.386a.5.5 0 0 1 .5-.5h6.954a.5.5 0 0 1 .5.5v25.386a.5.5 0 0 1 -.5.5zm-6.454-1h5.954v-24.386h-5.954z"/><path d="m64.584 60.912h-6.954a.5.5 0 0 1 -.5-.5v-3.5a.5.5 0 0 1 .5-.5h6.954a.5.5 0 0 1 .5.5v3.5a.5.5 0 0 1 -.5.5zm-6.454-1h5.954v-2.5h-5.954z"/><path d="m0 24.375a.5.5 0 0 1 -.5-.5v-.875a.5.5 0 0 1 .5-.5.5.5 0 0 1 .5.5v.875a.5.5 0 0 1 -.5.5z"/><path d="m0 20.917a.5.5 0 0 1 -.5-.5v-6.324a.5.5 0 0 1 .5-.5h4a.5.5 0 1 1 0 1h-3.5v5.823a.5.5 0 0 1 -.5.501z"/><path d="m67.584 33.146a.5.5 0 0 1 -.5-.5v-.833a.5.5 0 0 1 1 0v.833a.5.5 0 0 1 -.5.5z"/><path d="m67.584 44.958a.5.5 0 0 1 -.5-.5v-8.875a.5.5 0 0 1 1 0v8.875a.5.5 0 0 1 -.5.5z"/></g><path d="m26.721 35.086a.713.713 0 0 1 -.713-.713v-.457a.713.713 0 0 1 1.426 0v.457a.713.713 0 0 1 -.713.713z" fill="#fff"/><path d="m26.721 43.82a.713.713 0 0 1 -.713-.713v-6.519a.713.713 0 0 1 1.426 0v6.519a.713.713 0 0 1 -.713.713z" fill="#fff"/></g></svg>