<svg height="512" viewBox="0 0 74 74" width="512" xmlns="http://www.w3.org/2000/svg"><g id="line_color" data-name="line color"><rect fill="#9297ab" height="20.112" rx="10.056" width="60.828" x="6.586" y="50.888"/><path d="m67.41 60.94a10.038 10.038 0 0 1 -10.05 10.06h-40.72a10.033 10.033 0 0 1 -8.28-4.36 10 10 0 0 0 5.2 1.44h40.71a10.049 10.049 0 0 0 8.3-15.73 10.039 10.039 0 0 1 4.84 8.59z" fill="#84879c"/><path d="m14.839 24.169h44.322v26.719h-44.322z" fill="#fcd462"/><path d="m56.099 24.169h3.063v26.719h-3.063z" fill="#f7be56"/><rect fill="#fcd462" height="8.424" rx="1.348" width="51.55" x="11.225" y="15.745"/><path d="m62.78 17.09v5.73a1.351 1.351 0 0 1 -1.35 1.35h-3.4a1.344 1.344 0 0 0 1.35-1.35v-5.73a1.342 1.342 0 0 0 -1.35-1.34h3.4a1.349 1.349 0 0 1 1.35 1.34z" fill="#f7be56"/><path d="m43.35 13.134-4.645 2.571-23.866.009 2.407-7.897 7.04.602 6.476-5.419 9.589 6.066z" fill="#eeefee"/><path d="m60.354 12.552-1.656 3.153h-19.993l4.645-2.571-2.999-4.068.968-2.783 14.745-1.97z" fill="#eeefee"/><path d="m17.375 10.375 7.039.601 6.348-5.184 9.589 6.065 1.537 2.086 1.462-.809-2.999-4.068-9.589-6.066-6.476 5.419-7.04-.601-2.407 7.896h.871z" fill="#e1e6e9"/><path d="m56.064 4.313-14.745 1.97-.794 2.28 14.039-1.875 4.29 8.239-.409.778h.253l1.656-3.153z" fill="#e1e6e9"/><g fill="#323c6b"><path d="m62.161 30.188a.5.5 0 0 1 -.5-.5v-.5a.5.5 0 0 1 1 0v.5a.5.5 0 0 1 -.5.5z"/><path d="m62.161 42.625a.5.5 0 0 1 -.5-.5v-9.625a.5.5 0 0 1 1 0v9.625a.5.5 0 0 1 -.5.5z"/><path d="m62.161 30.188a.5.5 0 0 1 -.5-.5v-.5a.5.5 0 0 1 1 0v.5a.5.5 0 0 1 -.5.5z"/><path d="m62.161 42.625a.5.5 0 0 1 -.5-.5v-9.625a.5.5 0 0 1 1 0v9.625a.5.5 0 0 1 -.5.5z"/><path d="m23.594 5.586a.5.5 0 0 1 -.321-.883l.531-.444a.5.5 0 0 1 .642.767l-.531.444a.5.5 0 0 1 -.321.116z"/><path d="m26.188 3.416a.5.5 0 0 1 -.321-.883l4.333-3.622a.5.5 0 0 1 .588-.039l3.412 2.165a.5.5 0 1 1 -.534.845l-3.109-1.97-4.049 3.388a.5.5 0 0 1 -.32.116z"/></g><path d="m18.004 55.69h37.992v10.508h-37.992z" fill="#e1e6e9"/><path d="m56 66.7h-38a.5.5 0 0 1 -.5-.5v-10.51a.5.5 0 0 1 .5-.5h38a.5.5 0 0 1 .5.5v10.51a.5.5 0 0 1 -.5.5zm-37.5-1h37v-9.51h-37z" fill="#323c6b"/><circle cx="18.004" cy="60.944" fill="#bbbbcd" r="5.254"/><path d="m18 66.7a5.754 5.754 0 1 1 5.754-5.754 5.76 5.76 0 0 1 -5.754 5.754zm0-10.51a4.754 4.754 0 1 0 4.754 4.754 4.76 4.76 0 0 0 -4.754-4.754z" fill="#323c6b"/><circle cx="37" cy="60.944" fill="#bbbbcd" r="5.254"/><path d="m37 66.7a5.754 5.754 0 1 1 5.754-5.754 5.76 5.76 0 0 1 -5.754 5.754zm0-10.51a4.754 4.754 0 1 0 4.754 4.754 4.76 4.76 0 0 0 -4.754-4.754z" fill="#323c6b"/><circle cx="55.996" cy="60.944" fill="#bbbbcd" r="5.254"/><g fill="#323c6b"><path d="m56 66.7a5.754 5.754 0 1 1 5.754-5.754 5.76 5.76 0 0 1 -5.754 5.754zm0-10.51a4.754 4.754 0 1 0 4.754 4.754 4.76 4.76 0 0 0 -4.754-4.754z"/><path d="m14.839 16.214a.5.5 0 0 1 -.478-.646l2.408-7.9a.5.5 0 0 1 .521-.352l6.834.583 6.318-5.286a.5.5 0 0 1 .588-.039l9.588 6.066a.5.5 0 0 1 .135.125l3 4.068a.5.5 0 0 1 -.16.734l-4.644 2.571a.5.5 0 0 1 -.242.063l-23.867.009zm2.768-7.864-2.093 6.864 23.062-.009 4.033-2.232-2.609-3.535-9.2-5.82-6.194 5.182a.508.508 0 0 1 -.363.115z"/><path d="m58.7 16.205h-19.994a.5.5 0 0 1 -.242-.937l4.146-2.295-2.661-3.61a.5.5 0 0 1 -.07-.461l.968-2.783a.5.5 0 0 1 .406-.332l14.747-1.97a.5.5 0 0 1 .51.265l4.29 8.239a.5.5 0 0 1 0 .463l-1.656 3.153a.5.5 0 0 1 -.444.268zm-18.057-1h17.757l1.394-2.654-4.007-7.7-14.097 1.887-.781 2.244 2.843 3.856a.5.5 0 0 1 -.16.734z"/><path d="m59.161 51.389h-44.322a.5.5 0 0 1 -.5-.5v-26.72a.5.5 0 0 1 .5-.5h44.322a.5.5 0 0 1 .5.5v26.72a.5.5 0 0 1 -.5.5zm-43.822-1h43.322v-25.72h-43.322z"/></g><path d="m18.586 20.176h-.586a.76.76 0 1 1 0-1.52h.585a.76.76 0 0 1 0 1.52z" fill="#fff"/><path d="m30.89 20.176h-8.812a.76.76 0 1 1 0-1.52h8.812a.76.76 0 1 1 0 1.52z" fill="#fff"/><path d="m61.427 24.669h-48.854a1.85 1.85 0 0 1 -1.848-1.848v-5.728a1.85 1.85 0 0 1 1.848-1.848h48.854a1.85 1.85 0 0 1 1.848 1.848v5.728a1.85 1.85 0 0 1 -1.848 1.848zm-48.854-8.424a.849.849 0 0 0 -.848.848v5.728a.849.849 0 0 0 .848.848h48.854a.849.849 0 0 0 .848-.848v-5.728a.849.849 0 0 0 -.848-.848z" fill="#323c6b"/><path d="m57.358 71.5h-40.716a10.556 10.556 0 0 1 0-21.111h40.716a10.556 10.556 0 0 1 0 21.111zm-40.716-20.111a9.556 9.556 0 0 0 0 19.111h40.716a9.556 9.556 0 0 0 0-19.111z" fill="#323c6b"/></g></svg>