<svg height="512" viewBox="0 0 74 74" width="512" xmlns="http://www.w3.org/2000/svg"><g id="line_color" data-name="line color"><path d="m48.648 20.922a31.746 31.746 0 0 1 4.484 13.135c3.664-2.846 4.863-10.6 1.915-17.743" fill="#e1e6e9"/><path d="m42.429 12.733a32.212 32.212 0 0 0 -11.978-8.11c3.794-2.9 11.946-1.942 18.188 3.106" fill="#e1e6e9"/><rect fill="#bbbbcd" height="10.803" rx="2.055" transform="matrix(.792 -.61 .61 .792 1.479 32.826)" width="10.648" x="43.607" y="8.841"/><path d="m48.387 21.442a2.552 2.552 0 0 1 -2.026-.994l-4.087-5.3a2.559 2.559 0 0 1 .466-3.583l5.18-3.991a2.558 2.558 0 0 1 3.583.464l4.085 5.3a2.545 2.545 0 0 1 -.465 3.583l-5.18 3.991a2.538 2.538 0 0 1 -1.556.53zm1.089-13.4a1.548 1.548 0 0 0 -.947.322l-5.18 3.991a1.557 1.557 0 0 0 -.282 2.181l4.086 5.3a1.539 1.539 0 0 0 2.181.282l5.18-3.991a1.548 1.548 0 0 0 .282-2.181l-4.086-5.3a1.552 1.552 0 0 0 -1.234-.604z" fill="#323c6b"/><path d="m5.026 44.044 37.739-29.08 3.9 5.064-37.737 29.079a1.58 1.58 0 0 1 -2.216-.287l-1.973-2.561a1.575 1.575 0 0 1 .287-2.215z" fill="#e7aa6c"/><path d="m6.148 47.93a1.575 1.575 0 0 1 .287-2.216l37.665-29.021-1.332-1.729-37.742 29.08a1.575 1.575 0 0 0 -.287 2.216l1.973 2.56a1.564 1.564 0 0 0 .4.358z" fill="#d09865"/><path d="m54.761 7.715 1.973 2.561a1.586 1.586 0 0 1 -.287 2.216l-1.347 1.036-3.9-5.063 1.345-1.037a1.58 1.58 0 0 1 2.216.287z" fill="#e7aa6c"/><path d="m55.1 14.028a.5.5 0 0 1 -.4-.195l-3.9-5.063a.5.5 0 0 1 .091-.7l1.345-1.037a2.084 2.084 0 0 1 2.918.378l1.974 2.561a2.083 2.083 0 0 1 -.378 2.917l-1.347 1.037a.5.5 0 0 1 -.303.102zm-3.2-5.473 3.291 4.272.95-.731a1.081 1.081 0 0 0 .2-1.515l-1.977-2.561a1.082 1.082 0 0 0 -1.515-.2z" fill="#323c6b"/><path d="m69.591 27.406-10.782 5.728-1.387 8.906h-10.178l-2.607 7.856-17.407 7.24-8.318 6.758v7.106h50.679z" fill="#9297ab"/><path d="m69.59 27.41v43.59h-50.68v-3.25h47.43v-38.62z" fill="#84879c"/><g fill="#323c6b"><path d="m37.749 12.958a.5.5 0 0 1 -.324-.12 48.126 48.126 0 0 0 -6.1-4.235.5.5 0 1 1 .508-.861 49.117 49.117 0 0 1 6.24 4.336.5.5 0 0 1 -.324.88z"/><path d="m29.5 7.533a.5.5 0 0 1 -.222-.052c-.276-.137-.534-.256-.77-.356a.5.5 0 0 1 .392-.925c.251.106.526.234.822.38a.5.5 0 0 1 -.222.948z"/><path d="m15.912 68.917a.5.5 0 0 1 -.5-.5v-.667a.5.5 0 0 1 1 0v.667a.5.5 0 0 1 -.5.5z"/><path d="m15.912 66.167a.5.5 0 0 1 -.5-.5v-3.2a.5.5 0 0 1 .185-.388l5.171-4.2a.5.5 0 0 1 .631.776l-4.987 4.045v2.963a.5.5 0 0 1 -.5.504z"/><path d="m53.132 34.558a.5.5 0 0 1 -.5-.465 31.522 31.522 0 0 0 -4.417-12.918.5.5 0 1 1 .863-.5 33.775 33.775 0 0 1 4.454 12.337c2.726-2.958 3.865-9.682 1.052-16.5a.5.5 0 1 1 .924-.381c2.88 6.981 1.951 15.2-2.07 18.329a.5.5 0 0 1 -.306.098z"/><path d="m42.43 13.232a.5.5 0 0 1 -.358-.151 31.924 31.924 0 0 0 -11.782-7.981.5.5 0 0 1 -.144-.871c4.241-3.244 12.676-1.847 18.807 3.111a.5.5 0 1 1 -.629.777c-5.824-4.711-13.017-5.589-16.757-3.617a34.15 34.15 0 0 1 11.221 7.881.5.5 0 0 1 -.358.849z"/><path d="m7.967 49.935a2.079 2.079 0 0 1 -1.65-.809l-1.974-2.562a2.083 2.083 0 0 1 .378-2.917l37.739-29.079a.51.51 0 0 1 .37-.1.5.5 0 0 1 .332.191l3.9 5.064a.5.5 0 0 1 -.091.7l-37.738 29.077a2.072 2.072 0 0 1 -1.266.435zm-2.635-5.5a1.075 1.075 0 0 0 -.2 1.515l1.973 2.561a1.081 1.081 0 0 0 1.514.2l37.347-28.774-3.291-4.272z"/></g><path d="m63.208 65.233h-6.208a.65.65 0 1 1 0-1.3h5.561v-2.308a.65.65 0 0 1 1.3 0v2.958a.65.65 0 0 1 -.653.65z" fill="#fff"/><path d="m63.208 59.846a.65.65 0 0 1 -.65-.65v-.552a.65.65 0 0 1 1.3 0v.556a.65.65 0 0 1 -.65.646z" fill="#fff"/><path d="m69.592 71.5h-50.68a.5.5 0 0 1 -.5-.5v-7.106a.5.5 0 0 1 .185-.388l8.318-6.758a.491.491 0 0 1 .123-.073l17.2-7.152 2.535-7.64a.5.5 0 0 1 .475-.342h9.75l1.32-8.483a.5.5 0 0 1 .26-.364l10.783-5.728a.5.5 0 0 1 .734.441v43.593a.5.5 0 0 1 -.503.5zm-50.18-1h49.68v-42.262l-9.828 5.22-1.348 8.659a.5.5 0 0 1 -.494.423h-9.817l-2.494 7.514a.5.5 0 0 1 -.282.3l-17.34 7.216-8.077 6.562z" fill="#323c6b"/></g></svg>