<svg height="512" viewBox="0 0 74 74" width="512" xmlns="http://www.w3.org/2000/svg"><g id="line_color" data-name="line color"><path d="m42.273 51.75h-33.873a2.5 2.5 0 0 1 -2.5-2.5v-16.4a2.5 2.5 0 0 1 2.5-2.5h12.627a2.5 2.5 0 0 0 1.467-.475l6.406-4.638a2.5 2.5 0 0 1 1.467-.475h11.906a2.5 2.5 0 0 1 2.5 2.5v21.985a2.5 2.5 0 0 1 -2.5 2.503z" fill="#fcd462"/><path d="m42.394 29.25h2.383v-1.984a2.5 2.5 0 0 0 -2.5-2.5h-11.911a2.5 2.5 0 0 0 -1.467.475l-6.405 4.631a2.5 2.5 0 0 1 -1.467.475h-12.627a2.5 2.5 0 0 0 -2.45 2.003c.025 0 .048-.007.072-.007h12.624a2.5 2.5 0 0 0 1.467-.475l6.405-4.631a2.5 2.5 0 0 1 1.467-.475h11.907a2.5 2.5 0 0 1 2.502 2.488z" fill="#f7be56"/><path d="m42.4 41.333v9.913a2.512 2.512 0 0 1 -.05.5 2.5 2.5 0 0 0 2.431-2.5v-7.913z" fill="#f7be56"/><rect fill="#bbbbcd" height="11.632" rx="5.816" width="44.677" x="3" y="54.68"/><path d="m47.68 60.5a5.821 5.821 0 0 1 -5.82 5.81h-33.04a5.8 5.8 0 0 1 -5.03-2.89 5.72 5.72 0 0 0 2.64.64h33.05a5.814 5.814 0 0 0 5.03-8.74 5.814 5.814 0 0 1 3.17 5.18z" fill="#9297ab"/><circle cx="10.277" cy="60.496" fill="#eeefee" r="2.639"/><path d="m10.277 63.635a3.139 3.139 0 1 1 3.139-3.135 3.143 3.143 0 0 1 -3.139 3.135zm0-5.278a2.139 2.139 0 1 0 2.139 2.143 2.142 2.142 0 0 0 -2.139-2.144z" fill="#323c6b"/><circle cx="20.318" cy="60.496" fill="#eeefee" r="2.639"/><path d="m20.318 63.635a3.139 3.139 0 1 1 3.139-3.135 3.143 3.143 0 0 1 -3.139 3.135zm0-5.278a2.139 2.139 0 1 0 2.139 2.143 2.142 2.142 0 0 0 -2.139-2.144z" fill="#323c6b"/><circle cx="30.359" cy="60.496" fill="#eeefee" r="2.639"/><path d="m30.359 63.635a3.139 3.139 0 1 1 3.141-3.135 3.143 3.143 0 0 1 -3.141 3.135zm0-5.278a2.139 2.139 0 1 0 2.141 2.143 2.142 2.142 0 0 0 -2.141-2.144z" fill="#323c6b"/><circle cx="40.4" cy="60.496" fill="#eeefee" r="2.639"/><path d="m40.4 63.635a3.139 3.139 0 1 1 3.139-3.135 3.143 3.143 0 0 1 -3.139 3.135zm0-5.278a2.139 2.139 0 1 0 2.139 2.143 2.142 2.142 0 0 0 -2.139-2.144z" fill="#323c6b"/><path d="m9.591 51.75h31.495v2.93h-31.495z" fill="#e1e6e9"/><path d="m41.086 55.18h-31.495a.5.5 0 0 1 -.5-.5v-2.93a.5.5 0 0 1 .5-.5h31.5a.5.5 0 0 1 .5.5v2.93a.5.5 0 0 1 -.505.5zm-31-1h30.5v-1.93h-30.5z" fill="#323c6b"/><path d="m30.079 29.461h14.7a0 0 0 0 1 0 0v11.721a0 0 0 0 1 0 0h-14.7a1.1 1.1 0 0 1 -1.1-1.1v-9.519a1.1 1.1 0 0 1 1.1-1.102z" fill="#89c5cd"/><path d="m66.792 29.068-6.094-14.065-3.236 1.332 6.063 14.314z" fill="#fcd462"/><path d="m53.608 10.338-16.6 6.2a2.145 2.145 0 0 0 -1.4 2.011v6.213h4.295v-4.732l14.366-5.347z" fill="#fcd462"/><path d="m65.188 29.844 1.604-.776-6.094-14.065-1.57.647z" fill="#f7be56"/><path d="m53 12.583h.952l-.344-2.245-16.6 6.2a2.145 2.145 0 0 0 -1.4 2.011v.974a2.137 2.137 0 0 1 .886-.653l16.506-6.163z" fill="#f7be56"/><path d="m68 33.938 3.125 8.555a3.228 3.228 0 0 1 -1.947 4.12l-4.946 1.767a10.814 10.814 0 0 1 -13.539-6.61l13.369-4.77 1.19-2.115" fill="#e1e6e9"/><path d="m71.125 42.493-3.125-8.555-1.892.652 2.476 6.778a3.228 3.228 0 0 1 -1.947 4.12l-4.947 1.767a11.662 11.662 0 0 1 -6.507.047 11.25 11.25 0 0 0 9.049 1.078l4.946-1.767a3.228 3.228 0 0 0 1.947-4.12z" fill="#d5d6db"/><g fill="#323c6b"><path d="m2.9 36.167a.5.5 0 0 1 -.5-.5v-.646a.5.5 0 0 1 1 0v.646a.5.5 0 0 1 -.5.5z"/><path d="m2.9 33.392a.463.463 0 0 1 -.5-.454 6.064 6.064 0 0 1 5.473-6.068.5.5 0 1 1 .088 1 5.035 5.035 0 0 0 -4.561 4.976.54.54 0 0 1 -.5.546z"/><path d="m60.125 52.451h-.025l-.131-.006c-.214-.009-.427-.019-.641-.037a.5.5 0 0 1 .088-1c.2.018.4.026.595.034l.134.006a.5.5 0 0 1 -.022 1z"/><path d="m56.667 51.869a.51.51 0 0 1 -.148-.022 13.222 13.222 0 0 1 -6.527-4.406.5.5 0 0 1 .777-.63 12.464 12.464 0 0 0 4.371 3.443 12.652 12.652 0 0 0 1.676.638.5.5 0 0 1 -.148.978z"/><path d="m42.273 52.25h-33.873a3.006 3.006 0 0 1 -3-3v-16.4a3.006 3.006 0 0 1 3-3h12.627a1.99 1.99 0 0 0 1.174-.38l6.405-4.631a2.986 2.986 0 0 1 1.76-.569h11.907a3.006 3.006 0 0 1 3 3v21.977a3.006 3.006 0 0 1 -3 3.003zm-33.873-21.407a2.006 2.006 0 0 0 -2 2v16.4a2.006 2.006 0 0 0 2 2h33.87a2.006 2.006 0 0 0 2-2v-21.977a2.006 2.006 0 0 0 -2-2h-11.904a1.99 1.99 0 0 0 -1.174.38l-6.405 4.631a2.986 2.986 0 0 1 -1.76.569z"/></g><path d="m42.396 29.333h2.381v11.849h-2.381z" fill="#6eaaad"/><path d="m63.525 31.149a.5.5 0 0 1 -.46-.305l-6.065-14.314a.5.5 0 0 1 0-.385.5.5 0 0 1 .272-.272l3.236-1.332a.5.5 0 0 1 .649.264l6.094 14.065a.5.5 0 0 1 -.241.649l-3.267 1.581a.5.5 0 0 1 -.218.049zm-5.406-14.544 5.661 13.365 2.362-1.143-5.707-13.174z" fill="#323c6b"/><path d="m39.907 25.262h-4.295a.5.5 0 0 1 -.5-.5v-6.214a2.63 2.63 0 0 1 1.721-2.479l16.6-6.2a.49.49 0 0 1 .428.037.5.5 0 0 1 .241.355l.666 4.345a.5.5 0 0 1 -.319.544l-14.042 5.227v4.384a.5.5 0 0 1 -.5.501zm-3.795-1h3.295v-4.232a.5.5 0 0 1 .325-.469l13.985-5.205-.512-3.334-16.021 5.983a1.638 1.638 0 0 0 -1.071 1.543z" fill="#323c6b"/><circle cx="57.549" cy="11.954" fill="#e1e6e9" r="4.265"/><g fill="#323c6b"><path d="m57.549 16.718a4.765 4.765 0 1 1 4.766-4.765 4.77 4.77 0 0 1 -4.766 4.765zm0-8.53a3.765 3.765 0 1 0 3.766 3.765 3.769 3.769 0 0 0 -3.766-3.765z"/><circle cx="57.549" cy="11.954" r="1.615"/><path d="m44.776 41.682h-14.7a1.6 1.6 0 0 1 -1.6-1.6v-9.519a1.6 1.6 0 0 1 1.6-1.6h14.7a.5.5 0 0 1 .5.5v11.719a.5.5 0 0 1 -.5.5zm-14.697-11.722a.6.6 0 0 0 -.6.6v9.52a.6.6 0 0 0 .6.6h14.2v-10.72z"/><path d="m60.821 49.363a11.037 11.037 0 0 1 -10.6-7.424.5.5 0 0 1 .3-.639l13.194-4.708 1.1-1.952a.5.5 0 1 1 .871.49l-1.186 2.115a.5.5 0 0 1 -.268.226l-12.889 4.6c2.025 4.942 7.309 7.387 12.752 5.829l4.916-1.756a2.729 2.729 0 0 0 1.645-3.482l-3.126-8.553a.5.5 0 1 1 .939-.343l3.125 8.555a3.729 3.729 0 0 1 -2.249 4.762l-4.945 1.767a13.008 13.008 0 0 1 -3.579.513z"/></g><circle cx="66.245" cy="32.098" fill="#e1e6e9" r="3.079" transform="matrix(.994 -.11 .11 .994 -3.141 7.516)"/><path d="m66.237 35.678a3.581 3.581 0 0 1 -3.55-3.185 3.58 3.58 0 1 1 3.953 3.163 3.735 3.735 0 0 1 -.403.022zm.009-6.16a2.579 2.579 0 0 0 -2.564 2.864 2.579 2.579 0 1 0 2.564-2.864z" fill="#323c6b"/><circle cx="66.245" cy="32.098" fill="#323c6b" r="1.086" transform="matrix(.994 -.11 .11 .994 -3.141 7.516)"/><path d="m23.42 48.891h-.331a.516.516 0 1 1 0-1.033h.331a.516.516 0 1 1 0 1.033z" fill="#fff"/><path d="m21.094 48.891h-6.04a.516.516 0 1 1 0-1.033h6.04a.516.516 0 1 1 0 1.033z" fill="#fff"/><path d="m41.861 66.812h-33.046a6.316 6.316 0 0 1 0-12.632h33.046a6.316 6.316 0 0 1 0 12.632zm-33.046-11.632a5.316 5.316 0 0 0 0 10.632h33.046a5.316 5.316 0 0 0 0-10.632z" fill="#323c6b"/></g></svg>