<svg height="512" viewBox="0 0 74 74" width="512" xmlns="http://www.w3.org/2000/svg"><g id="line_color" data-name="line color"><g fill="#eeefee"><path d="m36.669 64.461h-31.812l6.217-19.047h19.379z"/><path d="m68.857 64.461h-31.812l6.217-19.047h19.379z"/><path d="m52.763 45.414h-31.812l6.217-19.046h19.379z"/></g><path d="m28.036 47.914 5.401 16.547h3.232l-6.216-19.047h-19.379l-.816 2.5z" fill="#e1e6e9"/><path d="m60.224 47.914 5.401 16.547h3.232l-6.216-19.047h-19.379l-.816 2.5z" fill="#e1e6e9"/><path d="m44.13 28.868 5.401 16.546h3.232l-6.216-19.046h-19.379l-.816 2.5z" fill="#e1e6e9"/><g fill="#323c6b"><path d="m22.833 21.545c3.052-2.375 1.127-4.3-1.248-1.248-2.375-3.052-4.3-1.127-1.249 1.248-3.052 2.375-1.127 4.3 1.249 1.249 2.375 3.051 4.3 1.126 1.248-1.249z"/><path d="m46.9 13.292c3.052-2.375 1.127-4.3-1.248-1.248-2.375-3.052-4.3-1.127-1.249 1.248-3.052 2.375-1.127 4.3 1.249 1.249 2.379 3.051 4.305 1.126 1.248-1.249z"/><path d="m59.021 26.647c3.052-2.375 1.127-4.3-1.248-1.248-2.375-3.052-4.3-1.127-1.249 1.248-3.052 2.375-1.127 4.3 1.249 1.249 2.375 3.052 4.3 1.126 1.248-1.249z"/><path d="m66.438 47.641a.5.5 0 0 1 -.473-.338l-1.5-4.388h-3.465a.5.5 0 0 1 0-1h3.817a.5.5 0 0 1 .473.338l1.62 4.726a.5.5 0 0 1 -.311.635.508.508 0 0 1 -.161.027z"/><path d="m67.688 51.474a.5.5 0 0 1 -.476-.345l-.366-1.129a.5.5 0 0 1 .951-.311l.367 1.125a.5.5 0 0 1 -.32.63.492.492 0 0 1 -.156.03z"/><path d="m20.9 36.417a.492.492 0 0 1 -.155-.025.5.5 0 0 1 -.32-.63l2.692-8.25a.5.5 0 0 1 .951.311l-2.692 8.25a.5.5 0 0 1 -.476.344z"/><path d="m19.822 39.7a.492.492 0 0 1 -.155-.025.5.5 0 0 1 -.32-.63l.176-.538a.5.5 0 0 1 .951.311l-.176.538a.5.5 0 0 1 -.476.344z"/><path d="m36.669 64.961h-31.812a.5.5 0 0 1 -.476-.655l6.219-19.047a.5.5 0 0 1 .476-.345h19.377a.5.5 0 0 1 .476.345l6.216 19.047a.5.5 0 0 1 -.476.655zm-31.122-1h30.432l-5.888-18.046h-18.654z"/><path d="m68.857 64.961h-31.811a.5.5 0 0 1 -.476-.655l6.216-19.047a.5.5 0 0 1 .476-.345h19.379a.5.5 0 0 1 .476.345l6.217 19.047a.5.5 0 0 1 -.476.655zm-31.122-1h30.433l-5.89-18.047h-18.654z"/><path d="m52.764 45.915h-31.813a.5.5 0 0 1 -.476-.655l6.217-19.047a.5.5 0 0 1 .476-.345h19.379a.5.5 0 0 1 .476.345l6.217 19.047a.5.5 0 0 1 -.476.655zm-31.123-1h30.433l-5.89-18.047h-18.654z"/></g><path d="m14.679 61.833h-5.429a.649.649 0 0 1 -.612-.868l1.156-3.251a.65.65 0 0 1 1.225.436l-.848 2.383h4.508a.65.65 0 1 1 0 1.3z" fill="#fff"/><path d="m17.739 61.833h-.683a.65.65 0 1 1 0-1.3h.683a.65.65 0 1 1 0 1.3z" fill="#fff"/></g></svg>