<svg height="512" viewBox="0 0 74 74" width="512" xmlns="http://www.w3.org/2000/svg"><g id="line_color" data-name="line color"><path d="m38.665 19.216-1.243 2.865h-16.284l4.338-2.947-1.876-2.872.727-2.356 11.114-1.677z" fill="#e1e6e9"/><path d="m25.476 19.134-4.338 2.947h-16.764l1.641-4.576 5.135 1.313 5.053-5.393 7.397 2.837z" fill="#e1e6e9"/><path d="m35.441 12.229-11.114 1.677-.649 2.105 10.429-1.573 3.224 6.987-.285.656h.376l1.243-2.865z" fill="#d5d6db"/><path d="m6.765 19.713 5.135 1.313 5.053-5.393 7.397 2.837.647.99.479-.326-1.876-2.872-7.397-2.837-5.053 5.393-5.135-1.313-1.641 4.576h1.542z" fill="#d5d6db"/><path d="m62.753 54.35h6.408a1.84 1.84 0 0 0 1.839-1.85v-9.46a1.833 1.833 0 0 0 -.377-1.122l-9.2-11.988a1.837 1.837 0 0 0 -1.462-.726h-12.901a1.846 1.846 0 0 0 -1.839 1.848v23.3h8.247" fill="#eeefee"/><path d="m69.161 54.85h-6.408a.5.5 0 0 1 0-1h6.408a1.345 1.345 0 0 0 1.339-1.35v-9.46a1.344 1.344 0 0 0 -.273-.816l-9.2-11.989a1.347 1.347 0 0 0 -1.065-.531h-12.902a1.345 1.345 0 0 0 -1.339 1.348v22.8h7.747a.5.5 0 0 1 0 1h-8.247a.5.5 0 0 1 -.5-.5v-23.3a2.346 2.346 0 0 1 2.339-2.348h12.9a2.351 2.351 0 0 1 1.86.923l9.2 11.986a2.348 2.348 0 0 1 .48 1.426v9.461a2.346 2.346 0 0 1 -2.339 2.35z" fill="#323c6b"/><path d="m62.753 54.35h6.408a1.84 1.84 0 0 0 1.839-1.85v-9.46a1.833 1.833 0 0 0 -.377-1.122l-9.2-11.988a1.837 1.837 0 0 0 -1.462-.726h-12.901a1.846 1.846 0 0 0 -1.839 1.848v23.3h8.247" fill="#e1e6e9"/><path d="m68.765 39.5h-.05a1.831 1.831 0 0 1 .313 1v9.46a1.84 1.84 0 0 1 -1.839 1.848h-21.968v2.542h23.94a1.84 1.84 0 0 0 1.839-1.85v-9.46a1.833 1.833 0 0 0 -.377-1.122z" fill="#d5d6db"/><path d="m66.114 42.315-7.128-9.291h-9.951v9.291z" fill="#89c5cd"/><path d="m66.114 42.815h-17.079a.5.5 0 0 1 -.5-.5v-9.291a.5.5 0 0 1 .5-.5h9.951a.5.5 0 0 1 .4.2l7.128 9.291a.5.5 0 0 1 -.4.8zm-16.579-1h15.565l-6.36-8.291h-9.2z" fill="#323c6b"/><path d="m25.685 54.35h19.536v-7.364h-37.665v7.364h8.844" fill="#e1e6e9"/><path d="m16.4 51.875h-8.844v2.475h8.844 9.285 19.536v-2.475h-19.536z" fill="#d5d6db"/><path d="m53.715 46.035h-2.444a.5.5 0 0 1 0-1h2.444a.5.5 0 0 1 0 1z" fill="#323c6b"/><path d="m51.608 19.991-6.535 2.2-2.915 21.914a3.318 3.318 0 0 1 -3.289 2.881h-32.551a3.318 3.318 0 0 1 -3.318-3.318v-21.478h37.431l.616-2.932 9.379-3.225z" fill="#fcd462"/><path d="m49.371 20.744 2.237-.753-1.183-3.958-2.232.768z" fill="#f7be56"/><path d="m42.744 22.813-2.9 21.793a3.313 3.313 0 0 1 -1.544 2.38h.567a3.318 3.318 0 0 0 3.289-2.881l2.834-21.292z" fill="#f7be56"/><g fill="#323c6b"><path d="m63.809 28.616a.5.5 0 0 1 -.4-.2 4.363 4.363 0 0 0 -3.452-1.712h-2.191a.5.5 0 0 1 0-1h2.193a5.369 5.369 0 0 1 4.248 2.107.5.5 0 0 1 -.4.8z"/><path d="m.211 45.917a.5.5 0 0 1 -.483-.372 6.645 6.645 0 0 1 -.229-1.7v-4.97a.5.5 0 0 1 .5-.5.5.5 0 0 1 .5.5v4.968a5.612 5.612 0 0 0 .2 1.445.5.5 0 0 1 -.359.612.51.51 0 0 1 -.129.017z"/><path d="m0 37.26a.5.5 0 0 1 -.5-.5v-.4a.5.5 0 0 1 .5-.5.5.5 0 0 1 .5.5v.4a.5.5 0 0 1 -.5.5z"/><path d="m55.563 26.706h-.641a.5.5 0 0 1 0-1h.641a.5.5 0 0 1 0 1z"/><path d="m69.161 54.85h-6.408a.5.5 0 0 1 0-1h6.408a1.345 1.345 0 0 0 1.339-1.35v-9.46a1.344 1.344 0 0 0 -.273-.816l-9.2-11.989a1.347 1.347 0 0 0 -1.065-.531h-12.902a1.345 1.345 0 0 0 -1.339 1.348v22.8h7.747a.5.5 0 0 1 0 1h-8.247a.5.5 0 0 1 -.5-.5v-23.3a2.346 2.346 0 0 1 2.339-2.348h12.9a2.351 2.351 0 0 1 1.86.923l9.2 11.986a2.348 2.348 0 0 1 .48 1.426v9.461a2.346 2.346 0 0 1 -2.339 2.35z"/><path d="m45.221 54.85h-19.536a.5.5 0 1 1 0-1h19.036v-6.364h-36.665v6.364h8.344a.5.5 0 0 1 0 1h-8.844a.5.5 0 0 1 -.5-.5v-7.364a.5.5 0 0 1 .5-.5h37.665a.5.5 0 0 1 .5.5v7.364a.5.5 0 0 1 -.5.5z"/><path d="m38.869 47.486h-32.551a3.823 3.823 0 0 1 -3.818-3.819v-21.478a.5.5 0 0 1 .5-.5h37.025l.532-2.534a.5.5 0 0 1 .327-.37l9.378-3.225a.5.5 0 0 1 .642.33l1.183 3.958a.5.5 0 0 1 -.319.617l-6.24 2.1-2.874 21.606a3.831 3.831 0 0 1 -3.785 3.315zm-35.369-24.797v20.978a2.822 2.822 0 0 0 2.818 2.819h32.55a2.828 2.828 0 0 0 2.794-2.447l2.915-21.916a.5.5 0 0 1 .336-.408l6.078-2.044-.9-3-8.617 2.963-.558 2.654a.5.5 0 0 1 -.489.4z"/><path d="m37.422 22.581h-16.284a.5.5 0 0 1 -.281-.914l3.932-2.667-1.607-2.461a.5.5 0 0 1 -.059-.421l.727-2.356a.5.5 0 0 1 .4-.347l11.114-1.677a.5.5 0 0 1 .529.285l3.224 6.987a.5.5 0 0 1 0 .409l-1.237 2.861a.5.5 0 0 1 -.458.301zm-14.658-1h14.33l1.023-2.358-2.973-6.443-10.432 1.574-.565 1.832 1.748 2.676a.5.5 0 0 1 -.138.687z"/><path d="m21.138 22.581h-16.764a.5.5 0 0 1 -.471-.669l1.642-4.577a.5.5 0 0 1 .595-.315l4.848 1.24 4.851-5.177a.5.5 0 0 1 .544-.125l7.4 2.837a.5.5 0 0 1 .239.193l1.876 2.873a.5.5 0 0 1 -.138.687l-4.338 2.947a.5.5 0 0 1 -.284.086zm-16.054-1h15.9l3.805-2.581-1.519-2.33-6.932-2.658-4.823 5.147a.5.5 0 0 1 -.489.143l-4.693-1.202z"/></g><g fill="#f7be56"><path d="m8.467 26.206h1.609v15.894h-1.609z"/><path d="m15.189 26.206h1.609v15.894h-1.609z"/><path d="m21.912 26.206h1.609v15.894h-1.609z"/><path d="m28.635 26.206h1.609v15.894h-1.609z"/><path d="m35.358 26.206h1.609v15.894h-1.609z"/></g><path d="m25.841 44.651h-5.682a.463.463 0 0 1 0-.926h5.682a.463.463 0 0 1 0 .926z" fill="#fff"/><path d="m18.318 44.651h-.282a.463.463 0 0 1 0-.926h.282a.463.463 0 0 1 0 .926z" fill="#fff"/><circle cx="58.112" cy="54.708" fill="#707583" r="5.349"/><path d="m58.111 60.557a5.849 5.849 0 1 1 5.849-5.849 5.855 5.855 0 0 1 -5.849 5.849zm0-10.7a4.849 4.849 0 1 0 4.849 4.849 4.854 4.854 0 0 0 -4.849-4.847z" fill="#323c6b"/><circle cx="58.112" cy="54.708" fill="#bbbbcd" r="2.661"/><path d="m58.111 57.869a3.161 3.161 0 1 1 3.161-3.161 3.165 3.165 0 0 1 -3.161 3.161zm0-5.322a2.161 2.161 0 1 0 2.161 2.161 2.164 2.164 0 0 0 -2.161-2.161z" fill="#323c6b"/><circle cx="20.937" cy="54.708" fill="#707583" r="5.349"/><path d="m20.938 60.557a5.849 5.849 0 1 1 5.849-5.849 5.855 5.855 0 0 1 -5.849 5.849zm0-10.7a4.849 4.849 0 1 0 4.849 4.849 4.854 4.854 0 0 0 -4.849-4.847z" fill="#323c6b"/><circle cx="20.938" cy="54.708" fill="#bbbbcd" r="2.661"/><path d="m20.938 57.869a3.161 3.161 0 1 1 3.162-3.161 3.165 3.165 0 0 1 -3.162 3.161zm0-5.322a2.161 2.161 0 1 0 2.162 2.161 2.164 2.164 0 0 0 -2.162-2.161z" fill="#323c6b"/></g></svg>