<svg height="512" viewBox="0 0 74 74" width="512" xmlns="http://www.w3.org/2000/svg"><g id="line_color" data-name="line color"><path d="m65.675 40.516v30.484h-34.655l-2.893-30.484z" fill="#eeefee"/><path d="m63.26 40.52h2.42v30.48h-2.42z" fill="#dbd8dd"/><path d="m31.02 71h-22.695l4.99-52.578h12.715z" fill="#eeefee"/><path d="m26.516 23.542-.486-5.12h-2.365l.486 5.12z" fill="#dbd8dd"/><path d="m26.915 27.75h-2.364l4.105 43.25h2.364z" fill="#dbd8dd"/><path d="m26.891 27.5-.348-3.667h-13.742l-.348 3.667z" fill="#9297ab"/><path d="m47.458 40.519h-11.638v-3.907l11.638-2.945z" fill="#e1e6e9"/><path d="m47.458 41.019h-11.638a.5.5 0 0 1 -.5-.5v-3.907a.5.5 0 0 1 .377-.485l11.638-2.945a.5.5 0 0 1 .623.485v6.852a.5.5 0 0 1 -.5.5zm-11.138-1h10.638v-5.71l-10.638 2.691z" fill="#323c6b"/><path d="m59.095 40.519h-11.637v-3.907l11.637-2.945z" fill="#e1e6e9"/><path d="m59.1 41.019h-11.642a.5.5 0 0 1 -.5-.5v-3.907a.5.5 0 0 1 .377-.485l11.638-2.945a.5.5 0 0 1 .623.485v6.852a.5.5 0 0 1 -.496.5zm-11.138-1h10.638v-5.71l-10.642 2.691z" fill="#323c6b"/><path d="m39.853 44.569h5.633v5.633h-5.633z" fill="#89c5cd"/><path d="m45.486 50.7h-5.633a.5.5 0 0 1 -.5-.5v-5.631a.5.5 0 0 1 .5-.5h5.633a.5.5 0 0 1 .5.5v5.631a.5.5 0 0 1 -.5.5zm-5.133-1h4.633v-4.631h-4.633z" fill="#323c6b"/><path d="m49.429 44.569h5.633v5.633h-5.633z" fill="#89c5cd"/><path d="m55.063 50.7h-5.634a.5.5 0 0 1 -.5-.5v-5.631a.5.5 0 0 1 .5-.5h5.633a.5.5 0 0 1 .5.5v5.631a.5.5 0 0 1 -.499.5zm-5.133-1h4.633v-4.631h-4.634z" fill="#323c6b"/><path d="m40.937 54.333h13.04v16.667h-13.04z" fill="#9297ab"/><path d="m53.978 71.5h-13.04a.5.5 0 0 1 -.5-.5v-16.667a.5.5 0 0 1 .5-.5h13.04a.5.5 0 0 1 .5.5v16.667a.5.5 0 0 1 -.5.5zm-12.54-1h12.04v-15.667h-12.04z" fill="#323c6b"/><path d="m39.678 5.888a4 4 0 0 0 -2.161.619c.008-.085.016-.171.016-.258 0-1.795-1.818-3.249-4.061-3.249a3.92 3.92 0 0 0 -3.992 2.661 4.524 4.524 0 0 0 -1.217-.176c-2.058 0-3.727 1.335-3.727 2.981a2.412 2.412 0 0 0 .156.809 2.425 2.425 0 0 0 -1.767 2.172 2.731 2.731 0 0 0 2.975 2.382 3.511 3.511 0 0 0 1.613-.384v.023a2.731 2.731 0 0 0 2.979 2.382 2.772 2.772 0 0 0 2.958-2.219 3.515 3.515 0 0 0 2.394.89c1.751 0 3.171-1.136 3.171-2.536a2.049 2.049 0 0 0 -.1-.611 4.3 4.3 0 0 0 .765.073c1.919 0 3.475-1.244 3.475-2.779s-1.555-2.78-3.477-2.78z" fill="#eeefee"/><path d="m39.678 5.888a4 4 0 0 0 -2.161.619c.008-.085.016-.171.016-.258 0-1.795-1.818-3.249-4.061-3.249a3.92 3.92 0 0 0 -3.992 2.661 4.523 4.523 0 0 0 -1.217-.176 3.529 3.529 0 0 0 -3.679 2.6 4.243 4.243 0 0 1 2.533-.805 4.523 4.523 0 0 1 1.217.176 3.92 3.92 0 0 1 3.992-2.661c2.243 0 4.062 1.454 4.062 3.249 0 .087-.008.172-.016.258a4 4 0 0 1 2.161-.619c1.919 0 3.475 1.244 3.475 2.779a2.207 2.207 0 0 1 -.036.282 2.57 2.57 0 0 0 1.181-2.073c0-1.539-1.553-2.783-3.475-2.783z" fill="#dbd8dd"/><g fill="#323c6b"><path d="m68.675 41.989a.5.5 0 0 1 -.5-.5v-3.473h-4.237a.5.5 0 0 1 0-1h4.738a.5.5 0 0 1 .5.5v3.974a.5.5 0 0 1 -.501.499z"/><path d="m68.675 44.938a.5.5 0 0 1 -.5-.5v-.511a.5.5 0 0 1 1 0v.511a.5.5 0 0 1 -.5.5z"/><path d="m8.325 39.75a.4.4 0 0 1 -.048 0 .5.5 0 0 1 -.45-.545l.04-.417a.491.491 0 0 1 .545-.45.5.5 0 0 1 .45.545l-.04.417a.5.5 0 0 1 -.497.45z"/><path d="m8.666 36.167a.4.4 0 0 1 -.048 0 .5.5 0 0 1 -.45-.545l.7-7.421a.494.494 0 0 1 .545-.45.5.5 0 0 1 .45.545l-.7 7.421a.5.5 0 0 1 -.497.45z"/><path d="m65.675 71.5h-34.655a.5.5 0 0 1 -.5-.453l-2.891-30.484a.5.5 0 0 1 .5-.547h37.546a.5.5 0 0 1 .5.5v30.484a.5.5 0 0 1 -.5.5zm-34.2-1h33.7v-29.484h-36.5z"/><path d="m31.02 71.5h-22.695a.5.5 0 0 1 -.5-.547l4.99-52.578a.5.5 0 0 1 .5-.453h12.715a.5.5 0 0 1 .5.453l4.99 52.578a.5.5 0 0 1 -.5.547zm-22.146-1h21.6l-4.9-51.578h-11.804z"/><path d="m30.493 16.35a3.42 3.42 0 0 1 -3.381-2.2 4.1 4.1 0 0 1 -1.208.181c-1.918 0-3.479-1.293-3.479-2.882a2.815 2.815 0 0 1 1.666-2.458 2.534 2.534 0 0 1 -.056-.522c0-2.158 2.389-3.911 5.107-3.4a4.572 4.572 0 0 1 4.33-2.569c2.292 0 4.194 1.4 4.514 3.207a4.57 4.57 0 0 1 1.692-.319c2.192 0 3.975 1.471 3.975 3.279 0 1.853-1.871 3.366-4.138 3.276v.041c0 1.674-1.647 3.036-3.671 3.036a4.19 4.19 0 0 1 -2.1-.556 3.513 3.513 0 0 1 -3.251 1.886zm-2.976-3.406a.5.5 0 0 1 .5.5.638.638 0 0 1 -.01.105c.007.956 1.12 1.8 2.486 1.8a2.292 2.292 0 0 0 2.46-1.762.5.5 0 0 1 .838-.323 3.03 3.03 0 0 0 2.053.756c1.473 0 2.671-.914 2.671-2.036a1.541 1.541 0 0 0 -.081-.463.5.5 0 0 1 .1-.479.491.491 0 0 1 .464-.16 3.752 3.752 0 0 0 .676.064c1.641 0 2.975-1.022 2.975-2.279s-1.334-2.279-2.975-2.279a3.49 3.49 0 0 0 -1.891.54.5.5 0 0 1 -.768-.469c.007-.069.014-.139.014-.209 0-1.516-1.6-2.749-3.562-2.749a3.425 3.425 0 0 0 -3.5 2.272.5.5 0 0 1 -.621.371 4.008 4.008 0 0 0 -1.083-.158c-1.779 0-3.227 1.113-3.227 2.481a1.91 1.91 0 0 0 .128.642.5.5 0 0 1 -.3.637 1.939 1.939 0 0 0 -1.435 1.7 2.245 2.245 0 0 0 2.471 1.883 3.015 3.015 0 0 0 1.387-.329.5.5 0 0 1 .23-.056z"/></g><path d="m43.625 67.64a.56.56 0 0 1 -.56-.56v-5.73a.56.56 0 0 1 1.121 0v5.73a.56.56 0 0 1 -.561.56z" fill="#fff"/><path d="m43.625 59.844a.56.56 0 0 1 -.56-.56v-.341a.56.56 0 0 1 1.121 0v.341a.56.56 0 0 1 -.561.56z" fill="#fff"/><path d="m26.86 27.167-.301-3.167h-2.364l.3 3.167z" fill="#84879c"/><path d="m26.892 28h-14.439a.5.5 0 0 1 -.5-.547l.348-3.667a.5.5 0 0 1 .5-.453h13.742a.5.5 0 0 1 .5.453l.348 3.667a.5.5 0 0 1 -.5.547zm-13.892-1h13.342l-.253-2.667h-12.833z" fill="#323c6b"/></g></svg>