<svg height="512" viewBox="0 0 74 74" width="512" xmlns="http://www.w3.org/2000/svg"><g id="line_color" data-name="line color"><path d="m53.94 9.912c-8.393-6.724-21.472-10.05-29.845-2.929a10.215 10.215 0 0 0 -2.87 4 1.562 1.562 0 0 0 2.116 2.056c6.337-2.6 18.571 1.6 22.216 5.429z" fill="#e1e6e9"/><path d="m55.615 28.533c3.824 3.645 7.945 15.79 5.343 22.127a1.562 1.562 0 0 0 2.056 2.116 10.215 10.215 0 0 0 4-2.87c7.122-8.373 3.8-21.453-2.929-29.845z" fill="#e1e6e9"/><path d="m53.94 9.91-8.38 8.56-.02-.02 6.25-6.39c-8.21-6.58-20.9-9.9-29.28-3.38a9.52 9.52 0 0 1 1.58-1.7c8.38-7.12 21.46-3.79 29.85 2.93z" fill="#d5d6db"/><path d="m55.61 28.53 6.33-6.32-6.32 6.33z" fill="#dbd8dd"/><path d="m67.02 49.91a9.522 9.522 0 0 1 -1.7 1.58c6.52-8.38 3.2-21.07-3.38-29.28l2.15-2.15c6.72 8.39 10.05 21.47 2.93 29.85z" fill="#d5d6db"/><rect fill="#9297ab" height="15.042" rx="1.825" transform="matrix(.707 .707 -.707 .707 29.53 -33.36)" width="14.351" x="47.858" y="11.446"/><g fill="#323c6b"><path d="m54.79 29.1a2.317 2.317 0 0 1 -1.644-.68l-7.568-7.568a2.327 2.327 0 0 1 0-3.287l8.056-8.056a2.379 2.379 0 0 1 3.288 0l7.567 7.567a2.324 2.324 0 0 1 0 3.288l-8.056 8.056a2.317 2.317 0 0 1 -1.643.68zm.488-19.27a1.316 1.316 0 0 0 -.937.388l-8.056 8.056a1.326 1.326 0 0 0 0 1.873l7.568 7.568a1.326 1.326 0 0 0 1.873 0l8.056-8.056a1.324 1.324 0 0 0 0-1.874l-7.567-7.567a1.316 1.316 0 0 0 -.937-.388z"/><path d="m58.746 20.169a.5.5 0 0 1 -.354-.146l-4.646-4.645a.5.5 0 0 1 .707-.707l4.647 4.645a.5.5 0 0 1 -.354.854z"/><path d="m55.967 23.408a.5.5 0 0 1 -.354-.146l-4.646-4.645a.5.5 0 0 1 .707-.707l4.646 4.645a.5.5 0 0 1 -.354.854z"/></g><path d="m3.961 64.335 5.7 5.7a3.28 3.28 0 0 0 4.746-.113l38.772-42.174-6.927-6.927-42.178 38.768a3.28 3.28 0 0 0 -.113 4.746z" fill="#fcd462"/><path d="m14.661 66.093a3.28 3.28 0 0 1 -4.746.113l-5.7-5.7a3.282 3.282 0 0 1 -.449-.565 3.27 3.27 0 0 0 .2 4.4l5.7 5.7a3.28 3.28 0 0 0 4.746-.113l38.767-42.18-1.706-1.706z" fill="#f7be56"/><g fill="#323c6b"><path d="m73.1 32a.5.5 0 0 1 -.484-.377 34.2 34.2 0 0 0 -3.316-8.254.5.5 0 1 1 .873-.487 35.191 35.191 0 0 1 3.411 8.5.5.5 0 0 1 -.362.607.508.508 0 0 1 -.122.011z"/><path d="m73.8 35.81a.5.5 0 0 1 -.5-.438v-.006c-.034-.285-.068-.57-.11-.854a.5.5 0 0 1 .989-.147c.044.294.079.589.114.884a.5.5 0 0 1 -.5.562z"/><path d="m15.208 45.78a.5.5 0 0 1 -.338-.868l.333-.306a.5.5 0 0 1 .677.736l-.333.306a.5.5 0 0 1 -.339.132z"/><path d="m16.939 44.189a.5.5 0 0 1 -.338-.868l7.352-6.757a.5.5 0 0 1 .677.736l-7.352 6.757a.5.5 0 0 1 -.339.132z"/><path d="m45.556 18.971a.592.592 0 0 1 -.362-.155c-3.575-3.75-15.629-7.789-21.664-5.312a2.163 2.163 0 0 1 -2.407-.46 2 2 0 0 1 -.353-2.267 10.71 10.71 0 0 1 3-4.176c8.546-7.268 21.8-4.032 30.48 2.92a.5.5 0 0 1 .044.74l-8.384 8.559a.5.5 0 0 1 -.354.151zm-17.444-7.228c6.3 0 14.176 2.994 17.438 6.02l7.644-7.8c-8.36-6.46-20.779-9.4-28.774-2.6a9.7 9.7 0 0 0 -2.739 3.828 1.009 1.009 0 0 0 .163 1.159 1.154 1.154 0 0 0 1.306.229 13.2 13.2 0 0 1 4.962-.836z"/></g><path d="m41.765 12.591a.651.651 0 0 1 -.266-.057 32.9 32.9 0 0 0 -8.956-2.568.65.65 0 0 1 .168-1.289 34.251 34.251 0 0 1 9.32 2.67.65.65 0 0 1 -.267 1.244z" fill="#fff"/><path d="m28.714 9.794a.65.65 0 0 1 -.035-1.3c.365-.02.736-.03 1.113-.026a.65.65 0 0 1 -.009 1.3c-.35 0-.7.006-1.034.024z" fill="#fff"/><path d="m62.324 53.433a1.955 1.955 0 0 1 -1.368-.555 2.164 2.164 0 0 1 -.46-2.409c2.477-6.031-1.509-18.03-5.227-21.574a.5.5 0 0 1 -.008-.715l8.473-8.473a.525.525 0 0 1 .381-.146.5.5 0 0 1 .363.187c6.953 8.678 10.188 21.935 2.919 30.481a10.712 10.712 0 0 1 -4.178 3 2.136 2.136 0 0 1 -.895.204zm-6-24.9c3.876 4.18 7.681 16.033 5.1 22.314a1.155 1.155 0 0 0 .229 1.307 1.006 1.006 0 0 0 1.155.165 9.706 9.706 0 0 0 3.83-2.739c6.8-7.994 3.866-20.412-2.592-28.771z" fill="#323c6b"/><path d="m11.981 71.5a3.744 3.744 0 0 1 -2.669-1.107l-5.7-5.7a3.78 3.78 0 0 1 .13-5.47l42.172-38.77a.5.5 0 0 1 .692.015l6.927 6.927a.5.5 0 0 1 .015.692l-38.769 42.178a3.742 3.742 0 0 1 -2.705 1.235zm34.256-49.987-41.825 38.444a2.78 2.78 0 0 0 -.1 4.024l5.7 5.7a2.789 2.789 0 0 0 2.032.813 2.754 2.754 0 0 0 1.991-.909l38.452-41.822z" fill="#323c6b"/></g></svg>