<svg height="512" viewBox="0 0 74 74" width="512" xmlns="http://www.w3.org/2000/svg"><g id="line_color" data-name="line color"><path d="m30.313 42.8v1.6a3.167 3.167 0 0 1 -2.388 3.069l-11.36 2.886a11.264 11.264 0 0 0 -8.494 10.919v9.726h57.858v-9.726a11.264 11.264 0 0 0 -8.494-10.918l-11.36-2.882a3.167 3.167 0 0 1 -2.388-3.074v-1.6" fill="#fcd462"/><path d="m57.435 50.355-11.36-2.881a3.167 3.167 0 0 1 -2.388-3.074v-.821h-2.02v.833h-.23v1.118a3.167 3.167 0 0 0 2.388 3.07l11.36 2.88a11.264 11.264 0 0 1 8.494 10.92v8.6h2.25v-9.726a11.264 11.264 0 0 0 -8.494-10.919z" fill="#f4bb87"/><path d="m45.875 47.4a3.159 3.159 0 0 1 -2.188-3v-.821h-2.02v.833h-.23v1.118a3.167 3.167 0 0 0 2.388 3.07l.919.233a13.2 13.2 0 0 1 1.131-1.433z" fill="#f7be56"/><path d="m57.435 50.355-.747-.19v1.819a11.259 11.259 0 0 1 6.991 10.416v8.6h2.25v-9.726a11.264 11.264 0 0 0 -8.494-10.919z" fill="#f7be56"/><path d="m56.329 71v-20.925l-9.932-2.521-9.397 8.859-9.397-8.859-9.932 2.521v20.925z" fill="#9297ab"/><path d="m22.688 59.855h6.15a0 0 0 0 1 0 0v5.168a.982.982 0 0 1 -.982.982h-4.186a.982.982 0 0 1 -.982-.982v-5.168a0 0 0 0 1 0 0z" fill="#e1e6e9"/><path d="m27.856 66.5h-4.186a1.484 1.484 0 0 1 -1.482-1.482v-5.163a.5.5 0 0 1 .5-.5h6.15a.5.5 0 0 1 .5.5v5.168a1.484 1.484 0 0 1 -1.482 1.477zm-4.668-6.15v4.668a.483.483 0 0 0 .482.482h4.186a.483.483 0 0 0 .482-.482v-4.663z" fill="#323c6b"/><path d="m29.838 60.355h-8.15a.5.5 0 0 1 0-1h8.15a.5.5 0 1 1 0 1z" fill="#323c6b"/><path d="m46.144 59.855h4.186a.982.982 0 0 1 .982.982v5.163a0 0 0 0 1 0 0h-6.15a0 0 0 0 1 0 0v-5.163a.982.982 0 0 1 .982-.982z" fill="#e1e6e9" transform="matrix(-1 0 0 -1 96.474 125.86)"/><g fill="#323c6b"><path d="m50.33 66.5h-4.186a1.484 1.484 0 0 1 -1.482-1.482v-5.163a.5.5 0 0 1 .5-.5h6.15a.5.5 0 0 1 .5.5v5.168a1.484 1.484 0 0 1 -1.482 1.477zm-4.668-6.15v4.668a.483.483 0 0 0 .482.482h4.186a.483.483 0 0 0 .482-.482v-4.663z"/><path d="m52.313 60.355h-8.151a.5.5 0 0 1 0-1h8.151a.5.5 0 0 1 0 1z"/><path d="m56.75 47.587a.512.512 0 0 1 -.124-.015l-.583-.148a.5.5 0 0 1 .246-.97l.583.148a.5.5 0 0 1 -.123.985z"/><path d="m66.753 54.207a.5.5 0 0 1 -.424-.234 13.766 13.766 0 0 0 -7.4-5.777.5.5 0 0 1 .31-.951 14.772 14.772 0 0 1 7.938 6.2.5.5 0 0 1 -.159.689.494.494 0 0 1 -.265.073z"/><path d="m65.929 71.5h-57.858a.5.5 0 0 1 -.5-.5v-9.727a11.754 11.754 0 0 1 8.872-11.4l11.357-2.884a2.664 2.664 0 0 0 2.013-2.589v-1.6a.5.5 0 0 1 1 0v1.6a3.664 3.664 0 0 1 -2.765 3.554l-11.36 2.886a10.754 10.754 0 0 0 -8.117 10.433v9.227h56.858v-9.227a10.754 10.754 0 0 0 -8.117-10.433l-11.36-2.881a3.664 3.664 0 0 1 -2.765-3.559v-1.6a.5.5 0 0 1 1 0v1.6a2.664 2.664 0 0 0 2.013 2.589l11.359 2.881a11.754 11.754 0 0 1 8.872 11.4v9.73a.5.5 0 0 1 -.502.5z"/></g><path d="m23.047 24.885v7.765c0 6.732 5.724 10.564 9.839 12.449a9.85 9.85 0 0 0 8.227 0c4.116-1.886 9.839-5.718 9.839-12.449v-7.765z" fill="#fcd462"/><path d="m23.047 24.885v.167h25.864v7.765c0 6.732-5.724 10.564-9.839 12.449a9.885 9.885 0 0 1 -2.305.721 9.855 9.855 0 0 0 4.347-.888c4.116-1.885 9.839-5.718 9.839-12.449v-7.765z" fill="#f7be56"/><path d="m37 46.5a10.375 10.375 0 0 1 -4.322-.943c-3.784-1.734-10.131-5.716-10.131-12.9v-7.772a.5.5 0 0 1 .5-.5h27.906a.5.5 0 0 1 .5.5v7.765c0 7.188-6.347 11.17-10.13 12.9a10.378 10.378 0 0 1 -4.323.95zm-13.453-21.115v7.265c0 6.3 5.192 10 9.547 12a9.372 9.372 0 0 0 7.811 0c4.355-2 9.547-5.7 9.547-12v-7.265z" fill="#323c6b"/><path d="m22.393 20.684v-1.466a14.621 14.621 0 0 1 12.307-14.437h4.638a14.628 14.628 0 0 1 12.314 14.437v1.466z" fill="#fe7058"/><path d="m47.366 8.879a14.522 14.522 0 0 0 -8.024-4.1h-4.642a14.507 14.507 0 0 0 -5.021 1.793 14.476 14.476 0 0 1 3.021-.833h4.638a14.628 14.628 0 0 1 12.314 14.437v.508h2v-1.466a14.556 14.556 0 0 0 -4.286-10.339z" fill="#ea6453"/><path d="m53.216 21.643v3.4a.968.968 0 0 1 -.98.956h-30.423a.968.968 0 0 1 -.98-.956v-3.4a.968.968 0 0 1 .98-.956h30.424a.968.968 0 0 1 .979.956z" fill="#fe7058"/><path d="m52.237 26.5h-30.424a1.47 1.47 0 0 1 -1.48-1.457v-3.4a1.47 1.47 0 0 1 1.48-1.457h30.424a1.47 1.47 0 0 1 1.479 1.457v3.4a1.47 1.47 0 0 1 -1.479 1.457zm-30.424-5.314a.469.469 0 0 0 -.48.457v3.4a.469.469 0 0 0 .48.457h30.424a.469.469 0 0 0 .479-.457v-3.4a.469.469 0 0 0 -.479-.457z" fill="#323c6b"/><path d="m23.808 12.937h11.9v4.12h-13.156a17.889 17.889 0 0 1 1.256-4.12z" fill="#ea6453"/><path d="m35.71 17.556h-13.158a.5.5 0 0 1 -.491-.595 18.211 18.211 0 0 1 1.29-4.228.5.5 0 0 1 .457-.3h11.9a.5.5 0 0 1 .5.5v4.119a.5.5 0 0 1 -.498.504zm-12.546-1h12.046v-3.119h-11.075a16.638 16.638 0 0 0 -.97 3.119z" fill="#323c6b"/><path d="m51.494 17.056h-13.154v-4.12h11.9a14.959 14.959 0 0 1 1.254 4.12z" fill="#ea6453"/><g fill="#323c6b"><path d="m51.494 17.556h-13.154a.5.5 0 0 1 -.5-.5v-4.119a.5.5 0 0 1 .5-.5h11.9a.5.5 0 0 1 .445.271 15.382 15.382 0 0 1 1.3 4.253.5.5 0 0 1 -.491.595zm-12.654-1h12.045a13.706 13.706 0 0 0 -.958-3.119h-11.087z"/><path d="m19.818 15.2a.5.5 0 0 1 -.487-.616c.031-.131.064-.262.1-.392a.5.5 0 1 1 .962.272c-.033.116-.062.234-.09.352a.5.5 0 0 1 -.485.384z"/><path d="m20.871 12.246a.5.5 0 0 1 -.454-.709 18.2 18.2 0 0 1 5.9-7.164.5.5 0 0 1 .584.812 17.194 17.194 0 0 0 -5.572 6.77.5.5 0 0 1 -.458.291z"/><path d="m51.652 21.184h-29.258a.5.5 0 0 1 -.5-.5v-1.466a15.037 15.037 0 0 1 12.732-14.93l4.716-.006a15.115 15.115 0 0 1 12.81 14.936v1.466a.5.5 0 0 1 -.5.5zm-28.759-1h28.259v-.966a14.128 14.128 0 0 0 -11.888-13.943l-4.56.006a14.033 14.033 0 0 0 -11.81 13.937z"/></g><path d="m34.63 11.924v-7.845a.7.7 0 0 1 .7-.708h3.387a.7.7 0 0 1 .7.708v7.836" fill="#ea6453"/><path d="m34.63 12.424a.5.5 0 0 1 -.5-.5v-7.845a1.2 1.2 0 0 1 1.2-1.208h3.387a1.2 1.2 0 0 1 1.2 1.208v7.836a.5.5 0 0 1 -1 0v-7.836a.2.2 0 0 0 -.2-.208h-3.388a.2.2 0 0 0 -.2.208v7.845a.5.5 0 0 1 -.499.5z" fill="#323c6b"/><circle cx="37.025" cy="14.809" fill="#e1e6e9" r="4.063"/><path d="m37.025 19.372a4.563 4.563 0 1 1 4.563-4.563 4.568 4.568 0 0 1 -4.563 4.563zm0-8.126a3.563 3.563 0 1 0 3.563 3.563 3.567 3.567 0 0 0 -3.563-3.563z" fill="#323c6b"/><path d="m56.187 51.788v-1.749l-9.187-2.331c-.036.059-.535-.2-.6-.154a7.252 7.252 0 0 0 -1.517 1.43z" fill="#84879c"/><path d="m56.329 71.5h-38.658a.5.5 0 0 1 -.5-.5v-20.925a.5.5 0 0 1 .377-.485l9.932-2.52a.5.5 0 0 1 .466.121l9.054 8.535 9.054-8.535a.5.5 0 0 1 .466-.121l9.932 2.52a.5.5 0 0 1 .377.485v20.925a.5.5 0 0 1 -.5.5zm-38.157-1h37.657v-20.036l-9.289-2.357-9.2 8.67a.5.5 0 0 1 -.686 0l-9.2-8.67-9.289 2.357z" fill="#323c6b"/><path d="m29.13 40.348a.55.55 0 0 1 -.336-.114q-.207-.159-.407-.328a.552.552 0 0 1 .711-.846c.121.1.244.2.369.3a.552.552 0 0 1 -.337.991z" fill="#fff"/><path d="m27.357 38.692a.551.551 0 0 1 -.414-.186 8.812 8.812 0 0 1 -2.243-6.006.553.553 0 1 1 1.105 0 7.636 7.636 0 0 0 1.966 5.278.553.553 0 0 1 -.414.919z" fill="#fff"/></g></svg>