<svg height="512" viewBox="0 0 74 74" width="512" xmlns="http://www.w3.org/2000/svg"><g id="line_color" data-name="line color"><path d="m47.252 25.502-5.92 1.18-3.5-3.33-5.25 3.33-2.59-2.12 8.34-13.4z" fill="#e1e6e9"/><path d="m67.512 58.072h-17.11l-6.96-14.91h-10.22l-6.96 14.91h-17.11l.93-1.5 19.91-32.01 2.59 2.12 5.25-3.33 3.5 3.33 5.92-1.18 19.33 31.07z" fill="#9297ab"/><path d="m47.252 25.502-2.86.57-7.67-12.33 1.61-2.58z" fill="#d5d6db"/><path d="m66.741 56.828-.159-.256-19.33-31.07-2.86.57.11.18 19.023 30.576z" fill="#84879c"/><path d="m41.332 27.182a.5.5 0 0 1 -.345-.138l-3.217-3.061-4.92 3.117a.5.5 0 0 1 -.584-.036l-2.591-2.12a.5.5 0 0 1 -.108-.651l8.341-13.4a.5.5 0 0 1 .425-.236.5.5 0 0 1 .425.236l8.92 14.34a.5.5 0 0 1 -.327.754l-5.92 1.18a.473.473 0 0 1 -.099.015zm-3.5-4.33a.5.5 0 0 1 .345.138l3.312 3.151 4.958-.988-8.115-13.045-7.685 12.345 1.972 1.613 4.945-3.137a.5.5 0 0 1 .268-.077z" fill="#323c6b"/><path d="m67.512 58.572h-17.112a.5.5 0 0 1 -.453-.289l-6.824-14.621h-9.583l-6.825 14.621a.5.5 0 0 1 -.453.289h-17.111a.5.5 0 0 1 -.425-.764l20.84-33.508a.5.5 0 0 1 .741-.123l2.312 1.891 4.945-3.137a.5.5 0 0 1 .612.06l3.312 3.151 5.666-1.129a.5.5 0 0 1 .522.226l20.26 32.571a.5.5 0 0 1 -.425.763zm-16.792-1h15.893l-.456-.737-19.146-30.775-5.581 1.112a.5.5 0 0 1 -.442-.128l-3.217-3.061-4.921 3.117a.5.5 0 0 1 -.584-.036l-2.15-1.759-20.066 32.267h15.893l6.826-14.622a.5.5 0 0 1 .453-.289h10.22a.5.5 0 0 1 .453.289z" fill="#323c6b"/><path d="m50.14 54.664-4.726-11.502h-14.273l-4.726 11.502z" fill="#9297ab"/><path d="m50.14 55.165h-23.725a.5.5 0 0 1 -.463-.69l4.727-11.5a.5.5 0 0 1 .463-.31h14.272a.5.5 0 0 1 .463.31l4.726 11.5a.5.5 0 0 1 -.463.69zm-22.979-1h22.233l-4.314-10.5h-13.6z" fill="#323c6b"/><path d="m29.968 49.43h16.599v2.852h-16.599z" fill="#eeefee"/><path d="m46.567 52.782h-16.6a.5.5 0 0 1 -.5-.5v-2.852a.5.5 0 0 1 .5-.5h16.6a.5.5 0 0 1 .5.5v2.853a.5.5 0 0 1 -.5.499zm-16.1-1h15.6v-1.852h-15.6z" fill="#323c6b"/><path d="m28.356 58.292h19.842v2.852h-19.842z" fill="#eeefee"/><path d="m48.2 61.644h-19.845a.5.5 0 0 1 -.5-.5v-2.852a.5.5 0 0 1 .5-.5h19.845a.5.5 0 0 1 .5.5v2.852a.5.5 0 0 1 -.5.5zm-19.343-1h18.843v-1.852h-18.845z" fill="#323c6b"/><path d="m27.55 67.153h21.462v2.852h-21.462z" fill="#eeefee"/><path d="m49.012 70.505h-21.462a.5.5 0 0 1 -.5-.5v-2.852a.5.5 0 0 1 .5-.5h21.462a.5.5 0 0 1 .5.5v2.852a.5.5 0 0 1 -.5.5zm-20.962-1h20.462v-1.852h-20.462z" fill="#323c6b"/><path d="m28.069 74.078 3.799-27.833h-3.375l-3.799 27.833z" fill="#eeefee"/><path d="m28.069 74.578h-3.375a.5.5 0 0 1 -.5-.567l3.806-27.833a.5.5 0 0 1 .5-.433h3.375a.5.5 0 0 1 .5.567l-3.8 27.833a.5.5 0 0 1 -.506.433zm-2.8-1h2.365l3.662-26.833h-2.366z" fill="#323c6b"/><path d="m51.969 74.078-3.799-27.833h-3.375l3.799 27.833z" fill="#eeefee"/><path d="m51.969 74.578h-3.375a.5.5 0 0 1 -.5-.433l-3.794-27.832a.5.5 0 0 1 .5-.567h3.37a.5.5 0 0 1 .5.433l3.8 27.833a.5.5 0 0 1 -.5.567zm-2.938-1h2.369l-3.667-26.833h-2.365z" fill="#323c6b"/><path d="m66.582 56.572 1.875 3h-16.4a1.517 1.517 0 0 1 -1.36-.86l-.3-.64-6.96-14.91h-10.215l-6.96 14.91-.3.64a1.517 1.517 0 0 1 -1.36.86h-16.52l2.062-3h13.5l7.27-15.54a1.5 1.5 0 0 1 1.36-.87h12.12a1.5 1.5 0 0 1 1.36.87l7.27 15.54z" fill="#e7aa6c"/><path d="m68.457 60.072h-16.4a2.021 2.021 0 0 1 -1.81-1.144l-7.124-15.266h-9.583l-7.125 15.262a2.026 2.026 0 0 1 -1.815 1.148h-16.518a.5.5 0 0 1 -.412-.783l2.063-3a.5.5 0 0 1 .412-.217h13.178l7.136-15.252a1.99 1.99 0 0 1 1.812-1.158h12.12a1.99 1.99 0 0 1 1.809 1.156l7.14 15.254h13.242a.5.5 0 0 1 .424.235l1.875 3a.5.5 0 0 1 -.424.765zm-35.235-17.41h10.22a.5.5 0 0 1 .453.289l7.259 15.549a1.016 1.016 0 0 0 .907.573h15.494l-1.25-2h-13.284a.5.5 0 0 1 -.453-.288l-7.268-15.541a1 1 0 0 0 -.907-.582h-12.122a1 1 0 0 0 -.907.583l-7.27 15.539a.5.5 0 0 1 -.453.288h-13.234l-1.375 2h15.568a1.019 1.019 0 0 0 .91-.577l7.259-15.545a.5.5 0 0 1 .453-.288z" fill="#323c6b"/><g fill="#fff"><path d="m26.472 36.724a.642.642 0 0 1 -.327-.089.649.649 0 0 1 -.232-.89l.432-.737a.65.65 0 1 1 1.121.657l-.432.737a.648.648 0 0 1 -.562.322z"/><path d="m21.693 44.916a.65.65 0 0 1 -.561-.978l3.518-6.038a.65.65 0 0 1 1.123.656l-3.518 6.036a.651.651 0 0 1 -.562.324z"/></g></g></svg>