<svg height="512" viewBox="0 0 74 74" width="512" xmlns="http://www.w3.org/2000/svg"><g id="line_color" data-name="line color"><path d="m39.899 3.437h-36.899v67.126h50.583v-53.442z" fill="#eeefee"/><path d="m3 66.833h50.583v3.73h-50.583z" fill="#e1e6e9"/><path d="m50.087 16.625.496.496v53.442h3v-53.442l-.496-.496z" fill="#e1e6e9"/><path d="m59.7 28.486h4.812a2.118 2.118 0 0 1 2.123 2.114v32.066a0 0 0 0 1 0 0h-9.049a0 0 0 0 1 0 0v-32.066a2.118 2.118 0 0 1 2.114-2.114z" fill="#89c5cd"/><path d="m64.516 28.486h-2.341a2.118 2.118 0 0 1 2.118 2.114v32.066h2.342v-32.066a2.118 2.118 0 0 0 -2.119-2.114z" fill="#6eaaad"/><path d="m61.208 25.523h1.8a1.408 1.408 0 0 1 1.408 1.408v1.555a0 0 0 0 1 0 0h-4.616a0 0 0 0 1 0 0v-1.556a1.408 1.408 0 0 1 1.408-1.407z" fill="#84879c"/><path d="m64.42 28.986h-4.62a.5.5 0 0 1 -.5-.5v-1.555a1.91 1.91 0 0 1 1.907-1.908h1.8a1.91 1.91 0 0 1 1.908 1.908v1.555a.5.5 0 0 1 -.495.5zm-4.119-1h3.619v-1.055a.909.909 0 0 0 -.908-.908h-1.8a.909.909 0 0 0 -.907.908z" fill="#323c6b"/><path d="m57.586 62.666 4.524 7.588 4.525-7.588z" fill="#fcd462"/><g fill="#323c6b"><path d="m62.11 70.754a.5.5 0 0 1 -.43-.244l-4.524-7.588a.5.5 0 0 1 .43-.756h9.049a.5.5 0 0 1 .43.756l-4.525 7.588a.5.5 0 0 1 -.43.244zm-3.645-7.588 3.645 6.112 3.645-6.112z"/><path d="m70.467 47.125a.5.5 0 0 1 -.5-.5v-7.98a.5.5 0 0 1 .153-.361 1.232 1.232 0 0 0 -.5-2.069l-.205-.062a1.234 1.234 0 0 0 -.354-.052h-11.475a.5.5 0 0 1 0-1h11.476a2.218 2.218 0 0 1 .643.095l.2.062a2.233 2.233 0 0 1 1.059 3.585v7.781a.5.5 0 0 1 -.497.501z"/><path d="m21.1 11.636h-11.35a.5.5 0 0 1 0-1h11.35a.5.5 0 0 1 0 1z"/><path d="m17.895 16.894h-8.145a.5.5 0 0 1 0-1h8.145a.5.5 0 1 1 0 1z"/><path d="m46.862 38.117h-37.141a.5.5 0 0 1 0-1h37.141a.5.5 0 0 1 0 1z"/><path d="m46.862 45.85h-37.141a.5.5 0 0 1 0-1h37.141a.5.5 0 0 1 0 1z"/><path d="m46.862 53.582h-37.141a.5.5 0 0 1 0-1h37.141a.5.5 0 0 1 0 1z"/><path d="m46.862 61.315h-37.141a.5.5 0 0 1 0-1h37.141a.5.5 0 0 1 0 1z"/><path d="m18.25.937h-.812a.5.5 0 0 1 0-1h.813a.5.5 0 0 1 0 1z"/><path d="m32.625.937h-11.375a.5.5 0 0 1 0-1h11.375a.5.5 0 0 1 0 1z"/><path d="m69.635 50.917a.5.5 0 0 1 -.5-.5v-.583a.5.5 0 0 1 1 0v.583a.5.5 0 0 1 -.5.5z"/><path d="m69.635 60.542a.5.5 0 0 1 -.5-.5v-7.542a.5.5 0 0 1 1 0v7.542a.5.5 0 0 1 -.5.5z"/></g><path d="m39.899 17.121h13.684l-13.684-13.684z" fill="#d5d6db"/><g fill="#323c6b"><path d="m53.583 17.621h-13.683a.5.5 0 0 1 -.5-.5v-13.684a.5.5 0 0 1 .854-.354l13.683 13.684a.5.5 0 0 1 -.354.854zm-13.184-1h11.977l-11.976-11.977z"/><path d="m53.583 71.063h-50.583a.5.5 0 0 1 -.5-.5v-67.126a.5.5 0 0 1 .5-.5h36.9a.5.5 0 0 1 .354.146l13.683 13.684a.5.5 0 0 1 .146.354v53.442a.5.5 0 0 1 -.5.5zm-50.083-1h49.583v-52.735l-13.391-13.391h-36.192z"/><path d="m66.635 63.166h-9.049a.5.5 0 0 1 -.5-.5v-32.066a2.621 2.621 0 0 1 2.614-2.614h4.813a2.621 2.621 0 0 1 2.622 2.614v32.066a.5.5 0 0 1 -.5.5zm-8.549-1h8.049v-31.566a1.62 1.62 0 0 0 -1.618-1.618h-4.817a1.62 1.62 0 0 0 -1.614 1.618z"/></g><path d="m59.8 54.284a.65.65 0 0 1 -.65-.65v-7.2a.65.65 0 0 1 1.3 0v7.2a.65.65 0 0 1 -.65.65z" fill="#fff"/><path d="m59.8 57.061a.65.65 0 0 1 -.65-.65v-.429a.65.65 0 0 1 1.3 0v.429a.65.65 0 0 1 -.65.65z" fill="#fff"/></g></svg>