<svg height="512" viewBox="0 0 74 74" width="512" xmlns="http://www.w3.org/2000/svg"><g id="line_color" data-name="line color"><path d="m20.772 32.488 42.19-18.936a2.291 2.291 0 0 1 3.028 1.148l4.943 11.014a.782.782 0 0 1 -.641 1.1l-3.579.334-2.475 3.6-4.02.135-2.456 3.621-4.068.051-2.42 3.7-4.043.107-2.478 3.572-4.086.01-2.46 3.612-4.068.051-2.439 3.665-4.05.091-1.262 2.11z" fill="#e1e6e9"/><path d="m70.933 25.718-4.943-11.018a2.291 2.291 0 0 0 -3.028-1.152l-42.19 18.94.722 2.44 40.385-18.128a2.291 2.291 0 0 1 3.028 1.152l4.034 8.989 1.352-.126a.782.782 0 0 0 .64-1.097z" fill="#d5d6db"/><g fill="#323c6b"><circle cx="62.164" cy="18.581" r="1.293"/><path d="m55.378 14.168a.5.5 0 0 1 -.205-.956l.541-.243a.5.5 0 0 1 .41.912l-.541.243a.5.5 0 0 1 -.205.044z"/><path d="m58.336 12.811a.5.5 0 0 1 -.2-.958l3.4-1.5a5.742 5.742 0 0 1 4.427-.128.5.5 0 1 1 -.355.935 4.762 4.762 0 0 0 -3.665.107l-3.4 1.5a.5.5 0 0 1 -.207.044z"/><path d="m26.389 51.973a.537.537 0 0 1 -.062 0 .5.5 0 0 1 -.417-.354l-5.617-18.99a.5.5 0 0 1 .274-.6l42.19-18.929a2.794 2.794 0 0 1 3.689 1.4l4.944 11.014a1.282 1.282 0 0 1 -1.05 1.8l-3.347.312-2.343 3.408a.5.5 0 0 1 -.4.216l-3.766.127-2.313 3.41a.5.5 0 0 1 -.408.219l-3.8.047-2.273 3.478a.5.5 0 0 1 -.405.227l-3.79.1-2.334 3.364a.5.5 0 0 1 -.41.215l-3.822.01-2.311 3.394a.5.5 0 0 1 -.407.219l-3.8.047-2.292 3.441a.5.5 0 0 1 -.405.223l-3.773.084-1.121 1.874a.5.5 0 0 1 -.431.244zm-5.013-19.208 5.169 17.473.678-1.132a.5.5 0 0 1 .418-.243l3.789-.085 2.294-3.444a.5.5 0 0 1 .41-.223l3.808-.047 2.313-3.4a.5.5 0 0 1 .412-.219l3.825-.01 2.328-3.355a.5.5 0 0 1 .4-.215l3.781-.1 2.276-3.482a.5.5 0 0 1 .413-.227l3.806-.047 2.31-3.4a.5.5 0 0 1 .4-.219l3.769-.127 2.325-3.395a.5.5 0 0 1 .365-.215l3.579-.334a.283.283 0 0 0 .231-.4l-4.941-11.01a1.794 1.794 0 0 0 -2.367-.9z"/></g><path d="m15.338 60.589 9.723-4.364a3.017 3.017 0 0 0 1.666-3.581l-5.477-19.176a3.017 3.017 0 0 0 -4.137-1.924l-12.328 5.533a3.017 3.017 0 0 0 -1.517 3.988l8.082 18.007a3.017 3.017 0 0 0 3.988 1.517z" fill="#e7aa6c"/><path d="m4.266 43.29h.081l-.017-.038a3.017 3.017 0 0 1 1.517-3.988l12.328-5.533a3 3 0 0 1 3.318.591l-.244-.854a3.017 3.017 0 0 0 -4.137-1.924l-12.327 5.533a3.017 3.017 0 0 0 -1.517 3.988z" fill="#d09865"/><rect fill="#fff" height="16.565" rx="2.531" transform="matrix(.912 -.409 .409 .912 -18.299 9.512)" width="5.061" x="10.53" y="39.205"/><g fill="#323c6b"><path d="m15.417 55.767a3.039 3.039 0 0 1 -2.766-1.792l-4.71-10.495a3.03 3.03 0 1 1 5.53-2.48l4.71 10.5a3.034 3.034 0 0 1 -2.764 4.273zm-4.712-15.559a2.023 2.023 0 0 0 -.83.179 2.032 2.032 0 0 0 -1.021 2.685l4.71 10.495a2.031 2.031 0 0 0 3.705-1.667l-4.71-10.5a2.036 2.036 0 0 0 -1.854-1.2z"/><path d="m2.449 47.108a.5.5 0 0 1 -.456-.3l-.262-.583a.5.5 0 1 1 .912-.409l.262.583a.5.5 0 0 1 -.456.7z"/><path d="m1.177 44.275a.5.5 0 0 1 -.458-.3l-.646-1.481a6.494 6.494 0 0 1 2.307-8.056.5.5 0 0 1 .559.83 5.493 5.493 0 0 0 -1.952 6.821l.647 1.486a.5.5 0 0 1 -.458.7z"/><path d="m14.107 61.354a3.523 3.523 0 0 1 -3.214-2.077l-8.081-18.007a3.516 3.516 0 0 1 1.768-4.649l12.328-5.533a3.517 3.517 0 0 1 4.822 2.243l5.477 19.176a3.534 3.534 0 0 1 -1.941 4.175l-9.723 4.364a3.5 3.5 0 0 1 -1.436.308zm4.241-29.575a2.51 2.51 0 0 0 -1.03.221l-12.328 5.533a2.521 2.521 0 0 0 -1.267 3.328l8.082 18.007a2.521 2.521 0 0 0 3.327 1.266l9.723-4.364a2.53 2.53 0 0 0 1.391-2.988l-5.476-19.177a2.518 2.518 0 0 0 -2.421-1.826z"/></g><path d="m22.833 48.822a.487.487 0 0 1 -.469-.354l-.109-.359a.487.487 0 1 1 .937-.267l.109.359a.488.488 0 0 1 -.469.621z" fill="#fff"/><path d="m22.037 54.927a.487.487 0 0 1 -.2-.932l.452-.193a1.784 1.784 0 0 0 .98-2.107l-.414-1.507a.487.487 0 1 1 .937-.268l.414 1.507a2.764 2.764 0 0 1 -1.518 3.263l-.452.193a.487.487 0 0 1 -.199.044z" fill="#fff"/></g></svg>