<svg height="512" viewBox="0 0 74 74" width="512" xmlns="http://www.w3.org/2000/svg"><g id="line_color" data-name="line color"><path d="m70.99 58.65v1.22h-6.26c-7.4-3.19-8.73-9.99-5.97-15.25l.82.13a14.162 14.162 0 0 1 11.41 13.9z" fill="#6eaaad"/><path d="m64.73 59.87h-41.04c-.93-11.81-6.72-20.47-17.7-25.77v-20.59h28.04v18.92a9.606 9.606 0 0 0 7.73 9.42l17 2.77c-2.76 5.26-1.43 12.06 5.97 15.25z" fill="#89c5cd"/><path d="m58.76 44.62a11.575 11.575 0 0 0 -.93 2.36l-18.36-3.19a9.606 9.606 0 0 1 -7.73-9.42v-20.86h2.29v18.92a9.606 9.606 0 0 0 7.73 9.42z" fill="#6eaaad"/><path d="m7.7 67.3h14.527v-3.487h10.646l4.472 3h29.155a4.5 4.5 0 0 0 4.5-4.5v-2.437h-65.012v5.707a1.713 1.713 0 0 0 1.712 1.717z" fill="#9297ab"/><path d="m22.227 67.8h-14.527a2.216 2.216 0 0 1 -2.213-2.213v-5.711a.5.5 0 0 1 .5-.5h65.013a.5.5 0 0 1 .5.5v2.436a5 5 0 0 1 -5 5h-29.155a.5.5 0 0 1 -.278-.084l-4.346-2.914h-9.994v2.986a.5.5 0 0 1 -.5.5zm-15.74-7.424v5.207a1.214 1.214 0 0 0 1.213 1.217h14.027v-2.987a.5.5 0 0 1 .5-.5h10.646a.5.5 0 0 1 .278.084l4.349 2.914h29a4 4 0 0 0 4-4v-1.935z" fill="#323c6b"/><rect fill="#9297ab" height="7.335" rx="1.396" width="34.015" x="3" y="6.174"/><g fill="#323c6b"><path d="m35.62 14.009h-31.22a1.9 1.9 0 0 1 -1.9-1.9v-4.539a1.9 1.9 0 0 1 1.9-1.9h31.22a1.9 1.9 0 0 1 1.9 1.9v4.543a1.9 1.9 0 0 1 -1.9 1.896zm-31.22-7.335a.9.9 0 0 0 -.9.9v4.543a.9.9 0 0 0 .9.9h31.22a.9.9 0 0 0 .9-.9v-4.547a.9.9 0 0 0 -.9-.9z"/><path d="m34.021 41.132a.5.5 0 0 1 -.338-.868l4.349-4a.5.5 0 1 1 .676.736l-4.349 4a.5.5 0 0 1 -.338.132z"/><path d="m41.575 45.409a.5.5 0 0 1 -.455-.707l2.447-5.375a.5.5 0 1 1 .91.414l-2.447 5.375a.5.5 0 0 1 -.455.293z"/><path d="m48.47 46.822a.5.5 0 0 1 -.49-.6l1.209-5.781a.5.5 0 1 1 .979.205l-1.209 5.781a.5.5 0 0 1 -.489.395z"/><path d="m30.95 33.041a.5.5 0 0 1 -.111-.987l5.761-1.317a.5.5 0 1 1 .223.975l-5.758 1.316a.487.487 0 0 1 -.115.013z"/><path d="m64.75 60.38a.515.515 0 0 1 -.232-.058.5.5 0 0 1 -.287-.452.513.513 0 0 1 .732-.442.5.5 0 0 1 -.213.952z"/><path d="m58.76 45.115a.5.5 0 0 1 -.5-.5v-.01a.5.5 0 1 1 .5.505z"/></g><path d="m23.69 59.87h-17.7v-25.77c10.98 5.3 16.77 13.96 17.7 25.77z" fill="#6eaaad"/><g fill="#323c6b"><path d="m23.69 60.37h-17.7a.5.5 0 0 1 -.5-.5v-25.77a.5.5 0 0 1 .718-.45c10.979 5.3 17.029 14.108 17.98 26.181a.5.5 0 0 1 -.5.539zm-17.2-1h16.656c-1.033-11.152-6.633-19.378-16.656-24.465z"/><path d="m59.751 42.236a.5.5 0 0 1 -.081-.006l-1.17-.19a.5.5 0 0 1 .16-.987l1.167.19a.5.5 0 0 1 -.079.994z"/><path d="m69.889 48.051a.5.5 0 0 1 -.381-.176 16.672 16.672 0 0 0 -7.578-5.083.5.5 0 1 1 .307-.951 17.663 17.663 0 0 1 8.033 5.387.5.5 0 0 1 -.381.824z"/><path d="m0 8.07a.5.5 0 0 1 -.5-.5 4.9 4.9 0 0 1 4.9-4.9h2.913a.5.5 0 0 1 0 1h-2.913a3.9 3.9 0 0 0 -3.9 3.9.5.5 0 0 1 -.5.5z"/><path d="m10.625 3.674h-.812a.5.5 0 0 1 0-1h.813a.5.5 0 0 1 0 1z"/><path d="m70.99 60.37h-6.26a.494.494 0 0 1 -.2-.041 12.107 12.107 0 0 1 -7-6.95 11.317 11.317 0 0 1 .788-8.992.493.493 0 0 1 .521-.261l.82.13a14.7 14.7 0 0 1 11.831 14.394v1.22a.5.5 0 0 1 -.5.5zm-6.156-1h5.656v-.72a13.693 13.693 0 0 0 -11.007-13.409l-.442-.07a10.122 10.122 0 0 0 -.569 7.875 11.1 11.1 0 0 0 6.362 6.324z"/><path d="m64.73 60.37h-41.04a.5.5 0 0 1 -.5-.461c-.919-11.692-6.78-20.224-17.418-25.359a.5.5 0 0 1 -.282-.45v-20.59a.5.5 0 0 1 .5-.5h28.04a.5.5 0 0 1 .5.5v18.92a9.122 9.122 0 0 0 7.327 8.93l16.983 2.766a.5.5 0 0 1 .362.726 10.188 10.188 0 0 0 -.73 8.193 11.141 11.141 0 0 0 6.457 6.366.5.5 0 0 1 -.2.959zm-40.58-1h38.5a11.444 11.444 0 0 1 -5.119-5.991 11.232 11.232 0 0 1 .485-8.374l-16.336-2.661a10.129 10.129 0 0 1 -8.15-9.914v-18.42h-27.04v19.778c10.662 5.246 16.602 13.849 17.66 25.582z"/></g><path d="m16.232 36.328a.648.648 0 0 1 -.4-.14 35.526 35.526 0 0 0 -6.614-4.088.651.651 0 0 1 -.368-.585v-3.827a.65.65 0 0 1 1.3 0v3.412a36.631 36.631 0 0 1 6.485 4.064.65.65 0 0 1 -.4 1.16z" fill="#fff"/><path d="m19.082 39.075a.649.649 0 0 1 -.484-.216c-.256-.285-.517-.566-.786-.842a.65.65 0 0 1 .932-.907q.422.434.823.882a.65.65 0 0 1 -.484 1.084z" fill="#fff"/></g></svg>