<svg height="512" viewBox="0 0 74 74" width="512" xmlns="http://www.w3.org/2000/svg"><g id="line_color" data-name="line color"><path d="m49.196 24.687 1.391-2.984-3.601-7.78-12.374 1.862-1.273 4.11-10.28 4.792z" fill="#bbbbcd"/><path d="m49.2 25.187h-26.141a.5.5 0 0 1 -.211-.953l10.079-4.7 1.208-3.9a.5.5 0 0 1 .4-.347l12.373-1.862a.5.5 0 0 1 .528.285l3.6 7.78a.5.5 0 0 1 0 .421l-1.388 2.989a.5.5 0 0 1 -.448.287zm-23.881-1h23.558l1.158-2.487-3.346-7.229-11.689 1.762-1.181 3.81a.5.5 0 0 1 -.267.305z" fill="#323c6b"/><path d="m23.059 24.687 10.28-4.792.46-1.486.001.001-10.741-3.165-5.621 6.012-5.718-1.463-1.822 4.897z" fill="#bbbbcd"/><g fill="#323c6b"><path d="m9.9 25.191a.5.5 0 0 1 -.469-.674l1.821-4.9a.5.5 0 0 1 .593-.31l5.429 1.393 5.42-5.795a.493.493 0 0 1 .507-.138l10.74 3.164a.5.5 0 0 1 .336.628l-.461 1.485a.5.5 0 0 1 -.267.305l-10.279 4.791a.5.5 0 0 1 -.211.047zm2.133-4.8-1.413 3.8h12.329l9.979-4.651.244-.79-9.957-2.934-5.415 5.784a.5.5 0 0 1 -.489.143z"/><path d="m42.561 25.187a.5.5 0 0 1 -.472-.333l-1.3-3.662a.5.5 0 0 1 .114-.516l1.167-1.2-7.654-3.234a.5.5 0 1 1 .389-.921l8.33 3.52a.5.5 0 0 1 .163.81l-1.462 1.5 1.194 3.369a.5.5 0 0 1 -.472.667z"/><path d="m46.455 20.468a.5.5 0 0 1 -.093-.009l-3.512-.659a.5.5 0 0 1 .186-.982l3.233.611 2-2.259a.5.5 0 0 1 .75.662l-2.189 2.468a.5.5 0 0 1 -.375.168z"/><path d="m34.972 25.187a.493.493 0 0 1 -.2-.042.5.5 0 0 1 -.258-.658l1.412-3.232-2.74-.883a.5.5 0 0 1 .307-.952l3.267 1.053a.5.5 0 0 1 .3.676l-1.63 3.738a.5.5 0 0 1 -.458.3z"/><path d="m25.245 23.84a.5.5 0 0 1 -.158-.026l-4.646-1.553a.5.5 0 0 1 -.191-.832l2.5-2.446-2.281-.625a.5.5 0 1 1 .264-.965l3.121.856a.5.5 0 0 1 .218.84l-2.536 2.483 3.864 1.294a.5.5 0 0 1 -.158.974z"/></g><path d="m9.512 28.072 3.17 8.2a11.4 11.4 0 0 0 10.633 7.288h22.2a4.112 4.112 0 0 0 4.052-3.414l2.079-12.074z" fill="#fe7058"/><path d="m49.21 28.072-1.644 9.547a4.112 4.112 0 0 1 -4.052 3.414h-22.2a11.392 11.392 0 0 1 -7.858-3.146 11.4 11.4 0 0 0 9.856 5.673h22.2a4.112 4.112 0 0 0 4.052-3.414l2.079-12.074z" fill="#ea6453"/><rect fill="#fe7058" height="4.721" rx="2.36" width="48.817" x="5.834" y="23.352"/><path d="m52.291 28.572h-44.097a2.86 2.86 0 1 1 0-5.72h44.1a2.86 2.86 0 1 1 0 5.72zm-44.1-4.72a1.86 1.86 0 1 0 0 3.72h44.1a1.86 1.86 0 1 0 0-3.72z" fill="#323c6b"/><path d="m48.556 57.533a3.763 3.763 0 0 1 -2.975-1.445l-9.472-12.028h-13.16l-12.519 6.892a.5.5 0 0 1 -.733-.524l2.493-14.243a.5.5 0 1 1 .984.173l-2.313 13.215 11.718-6.451a.5.5 0 0 1 .241-.062h13.533a.5.5 0 0 1 .393.191l9.62 12.219a2.787 2.787 0 0 0 4.972-1.9l-1-20.778a.5.5 0 0 1 .281-.474l11.091-5.377 2.175-5.886a.5.5 0 1 1 .938.347l-2.248 6.078a.5.5 0 0 1 -.251.276l-10.974 5.321.986 20.442a3.787 3.787 0 0 1 -3.78 4.014z" fill="#323c6b"/><rect fill="#d5d6db" height="4.04" rx="2.02" transform="matrix(.986 -.164 .164 .986 -2.387 11.599)" width="9.234" x="64.244" y="18.198"/><path d="m66.294 23.166a2.521 2.521 0 0 1 -.409-5.007l5.124-.854a2.52 2.52 0 0 1 .828 4.972l-5.123.854a2.539 2.539 0 0 1 -.42.035zm-.245-4.021a1.52 1.52 0 0 0 .5 3l5.123-.854a1.52 1.52 0 0 0 -.5-3z" fill="#323c6b"/><circle cx="10.444" cy="50.498" fill="#707583" r="5.998"/><path d="m10.444 57a6.5 6.5 0 1 1 6.5-6.5 6.505 6.505 0 0 1 -6.5 6.5zm0-12a5.5 5.5 0 1 0 5.5 5.5 5.5 5.5 0 0 0 -5.5-5.5z" fill="#323c6b"/><circle cx="10.444" cy="50.591" fill="#bbbbcd" r="3.017"/><g fill="#323c6b"><path d="m10.444 54.108a3.517 3.517 0 1 1 3.517-3.517 3.521 3.521 0 0 1 -3.517 3.517zm0-6.034a2.517 2.517 0 1 0 2.517 2.517 2.52 2.52 0 0 0 -2.517-2.517z"/><path d="m3.181 28.047a.5.5 0 0 1 -.469-.327 5.627 5.627 0 0 1 -.274-.982.5.5 0 0 1 .984-.174 4.783 4.783 0 0 0 .228.81.5.5 0 0 1 -.469.673z"/><path d="m2.957 25.088a.482.482 0 0 1 -.1-.011.5.5 0 0 1 -.385-.594 5.89 5.89 0 0 1 5.726-4.632.5.5 0 0 1 0 1 4.883 4.883 0 0 0 -4.747 3.842.5.5 0 0 1 -.494.395z"/><path d="m41.611 55.588a.5.5 0 0 1 -.393-.191l-.271-.344a.5.5 0 1 1 .785-.618l.271.344a.5.5 0 0 1 -.393.809z"/><path d="m40.05 53.606a.5.5 0 0 1 -.393-.191l-4.811-6.109a.5.5 0 1 1 .785-.618l4.811 6.112a.5.5 0 0 1 -.393.809z"/><path d="m45.512 44.06h-22.2a11.975 11.975 0 0 1 -11.1-7.608l-3.171-8.2a.5.5 0 0 1 .467-.68h42.135a.5.5 0 0 1 .493.585l-2.079 12.074a4.6 4.6 0 0 1 -4.545 3.829zm-35.271-15.488 2.908 7.519a10.967 10.967 0 0 0 10.166 6.969h22.2a3.6 3.6 0 0 0 3.559-3l1.979-11.489z"/></g><path d="m30.358 31.663a.65.65 0 0 1 0-1.3h.438a.65.65 0 0 1 0 1.3h-.437z" fill="#fff"/><path d="m19.213 31.725a.65.65 0 0 1 0-1.3l8.274-.049a.65.65 0 0 1 0 1.3z" fill="#fff"/></g></svg>