<svg height="512" viewBox="0 0 74 74" width="512" xmlns="http://www.w3.org/2000/svg"><g id="line_color" data-name="line color"><path d="m40.395 69.727 5.714-26.567h-18.218l5.715 26.567a3.531 3.531 0 0 0 3.394 2.599 3.531 3.531 0 0 0 3.395-2.599z" fill="#89c5cd"/><path d="m46.11 43.156-5.72 26.57a3.531 3.531 0 0 1 -1.26 1.88 3.5 3.5 0 0 1 -3.5.44 3.53 3.53 0 0 0 2.01-2.32l5.72-26.57z" fill="#6eaaad"/><path d="m37 72.826a4.045 4.045 0 0 1 -3.877-2.965l-5.723-26.596a.5.5 0 0 1 .489-.6h18.22a.5.5 0 0 1 .489.6l-5.714 26.567-.007.029a4.045 4.045 0 0 1 -3.877 2.965zm-8.49-29.166 5.584 25.962a3.018 3.018 0 0 0 5.816-.015l5.58-25.947z" fill="#323c6b"/><path d="m26.182 39.386h21.636a0 0 0 0 1 0 0v1.63a2.424 2.424 0 0 1 -2.424 2.424h-16.788a2.424 2.424 0 0 1 -2.424-2.424v-1.63a0 0 0 0 1 0 0z" fill="#e1e6e9"/><path d="m45.473 39.386v1.63a2.424 2.424 0 0 1 -2.424 2.424h2.345a2.424 2.424 0 0 0 2.424-2.424v-1.63z" fill="#d5d6db"/><path d="m22.111 33.437h29.778a0 0 0 0 1 0 0v1.189a4.76 4.76 0 0 1 -4.76 4.76h-20.259a4.76 4.76 0 0 1 -4.76-4.76v-1.189a0 0 0 0 1 .001 0z" fill="#89c5cd"/><path d="m51.89 33.436v1.19a4.759 4.759 0 0 1 -4.76 4.76h-2.75a4.759 4.759 0 0 0 4.76-4.76v-1.19z" fill="#6eaaad"/><path d="m26.323 33.437c-4.623-6.513-2.334-15.785 3.06-22.012.442 3.631 2.3 6.3 4.479 7 .409-4.61 5.327-11.778 8.906-14.019.051 7.815 1.511 10.614 6.1 18.337a9.865 9.865 0 0 1 -.631 10.7z" fill="#fe7058"/><path d="m33.4 20.572a10.787 10.787 0 0 1 .476-2.216c-2.211-.442-4.509-4.11-4.492-6.931a23.881 23.881 0 0 0 -2.007 2.689c.723 2.773 4.193 5.868 6.023 6.458z" fill="#ea6453"/><path d="m48.866 22.741c-4.587-7.723-6.047-10.523-6.1-18.337a13.347 13.347 0 0 0 -2.316 1.939c.16 7.135 1.677 10.024 6.082 17.44a9.647 9.647 0 0 1 -.01 9.654h1.712a9.865 9.865 0 0 0 .632-10.696z" fill="#ea6453"/><path d="m29.758 33.437a5.026 5.026 0 0 1 .673-1.975c2.536-4.269 3.343-5.817 3.371-10.136 1.924 1.858 4.7 5.2 4.923 7.749 1.2-.388 2.231-1.861 2.476-3.868a11.915 11.915 0 0 1 3.045 8.23z" fill="#fcd462"/><g fill="#323c6b"><path d="m44.247 33.938h-14.489a.5.5 0 0 1 -.5-.56 5.528 5.528 0 0 1 .74-2.17c2.54-4.276 3.273-5.7 3.3-9.884a.5.5 0 0 1 .847-.356c.74.714 4.236 4.224 4.959 7.36a4.575 4.575 0 0 0 1.6-3.18.5.5 0 0 1 .874-.267 12.411 12.411 0 0 1 3.167 8.588.5.5 0 0 1 -.498.469zm-13.889-1h13.405a11.327 11.327 0 0 0 -2.282-6.577 4.422 4.422 0 0 1 -2.6 3.19.5.5 0 0 1 -.651-.432c-.177-1.986-2.092-4.632-3.955-6.606-.169 3.576-1.064 5.254-3.411 9.2a4.54 4.54 0 0 0 -.506 1.225z"/><path d="m44.318 66.326a.5.5 0 0 1 -.489-.606l1.792-8.251a.5.5 0 0 1 .978.212l-1.792 8.251a.5.5 0 0 1 -.489.394z"/><path d="m43.558 69.826a.5.5 0 0 1 -.489-.606l.181-.833a.5.5 0 1 1 .978.213l-.181.833a.5.5 0 0 1 -.489.393z"/><path d="m40.705 2.689a.5.5 0 0 1 -.287-.91l.146-.1c.116-.083.232-.166.345-.237l.3-.188a.5.5 0 0 1 .529.849l-.3.188c-.095.06-.194.131-.292.2l-.156.111a.5.5 0 0 1 -.285.087z"/><path d="m34 10.341a.5.5 0 0 1 -.427-.759 31.124 31.124 0 0 1 4.6-5.9.5.5 0 1 1 .7.712 30.112 30.112 0 0 0 -4.449 5.706.5.5 0 0 1 -.424.241z"/><path d="m48.235 33.938h-21.912a.5.5 0 0 1 -.408-.21c-5.11-7.2-1.98-16.776 3.09-22.629a.5.5 0 0 1 .874.267c.361 2.964 1.763 5.417 3.57 6.346.796-4.835 5.551-11.538 9.051-13.732a.5.5 0 0 1 .765.42c.05 7.658 1.489 10.442 6.028 18.085a10.332 10.332 0 0 1 -.646 11.23.5.5 0 0 1 -.412.223zm-21.651-1h21.381a9.311 9.311 0 0 0 .472-9.938c-4.455-7.5-5.991-10.43-6.155-17.64-3.36 2.61-7.552 8.95-7.921 13.11a.5.5 0 0 1 -.651.432c-2.226-.718-3.979-3.138-4.64-6.307-4.359 5.543-6.848 13.94-2.486 20.343z"/></g><path d="m27.025 27.1a.65.65 0 0 1 -.648-.6 19.541 19.541 0 0 1 1.278-8.141.65.65 0 0 1 1.218.455 18.229 18.229 0 0 0 -1.2 7.593.651.651 0 0 1 -.6.695z" fill="#fff"/><path d="m27.529 30.032a.65.65 0 0 1 -.632-.5q-.091-.387-.161-.778a.65.65 0 1 1 1.279-.229q.064.356.147.708a.649.649 0 0 1 -.633.8z" fill="#fff"/><g fill="#323c6b"><path d="m47.13 39.886h-20.26a5.266 5.266 0 0 1 -5.26-5.26v-1.188a.5.5 0 0 1 .5-.5h29.78a.5.5 0 0 1 .5.5v1.188a5.266 5.266 0 0 1 -5.26 5.26zm-24.52-5.948v.688a4.265 4.265 0 0 0 4.26 4.26h20.26a4.265 4.265 0 0 0 4.26-4.26v-.688z"/><path d="m45.394 43.939h-16.788a2.927 2.927 0 0 1 -2.924-2.924v-1.63a.5.5 0 0 1 .5-.5h21.636a.5.5 0 0 1 .5.5v1.63a2.927 2.927 0 0 1 -2.924 2.924zm-18.712-4.053v1.13a1.926 1.926 0 0 0 1.924 1.924h16.788a1.926 1.926 0 0 0 1.924-1.924v-1.13z"/></g></g></svg>