<svg height="512" viewBox="0 0 74 74" width="512" xmlns="http://www.w3.org/2000/svg"><g id="line_color" data-name="line color"><path d="m17.483 40.346 38.161 27.3v.008c2.208 1.569 8.392-.5 12.222-5.887s3.855-12.059 1.647-13.628v-.008l-38.161-27.3" fill="#e1e6e9"/><path d="m69.515 48.141v-.008l-38.161-27.3-1.946 2.738 36.43 26.063v.008c2.208 1.569 2.183 8.239-1.647 13.628a16.877 16.877 0 0 1 -5.091 4.713 15.5 15.5 0 0 0 8.77-6.214c3.83-5.389 3.853-12.059 1.645-13.628z" fill="#d5d6db"/><ellipse cx="24.41" cy="30.589" fill="#9297ab" rx="11.97" ry="5.155" transform="matrix(.579 -.815 .815 .579 -14.665 32.766)"/><path d="m19 41.291a3.059 3.059 0 0 1 -1.81-.536c-1.3-.921-1.7-2.868-1.14-5.482a22.572 22.572 0 0 1 3.75-7.959 22.563 22.563 0 0 1 6.282-6.163c2.286-1.389 4.258-1.646 5.551-.727s1.7 2.868 1.14 5.482a22.57 22.57 0 0 1 -3.754 7.959c-3.25 4.573-7.239 7.426-10.019 7.426zm-1.23-1.352c2.049 1.461 6.83-1.585 10.43-6.653a21.554 21.554 0 0 0 3.6-7.586c.465-2.167.195-3.792-.741-4.457s-2.558-.386-4.453.766a21.55 21.55 0 0 0 -5.986 5.887 21.556 21.556 0 0 0 -3.592 7.589c-.465 2.167-.195 3.792.741 4.457z" fill="#323c6b"/><path d="m14 12.32a.565.565 0 0 0 .01.86l1.78 1.45.02.01.59.49a.563.563 0 0 1 -.46.99l-3.03-.58a.575.575 0 0 0 -.67.55l.48 4.48a.561.561 0 0 1 -1.06.25l-1.95-4.12a.555.555 0 0 0 -.84-.18l-2.96 2.12a.562.562 0 0 1 -.86-.67l1.76-3.05a.559.559 0 0 0 -.38-.77l-3-.72a.561.561 0 0 1 -.01-1.09l4.03-.29a.556.556 0 0 0 .36-.78l-2.43-3.39a.565.565 0 0 1 .85-.69l2.55 1.92a.566.566 0 0 0 .84-.2l1.36-2.76a.563.563 0 0 1 1.07.23l.11 3.08a.564.564 0 0 0 .68.53l4.91-1.38a.562.562 0 0 1 .48.98l-2.74 1.77z" fill="#fe7058"/><path d="m12.15 21.625a1.045 1.045 0 0 1 -.934-.574l-1.958-4.137-3.058 2.132a1.062 1.062 0 0 1 -1.607-1.283l1.784-3.093-3.063-.753a1.061 1.061 0 0 1 -.021-2.06l4.122-.305-2.441-3.381a1.064 1.064 0 0 1 .242-1.351 1.052 1.052 0 0 1 1.313-.031l2.552 1.921 1.45-2.782a1.063 1.063 0 0 1 2.018.435l.11 3.079 4.955-1.313a1.06 1.06 0 0 1 1.208.568 1.047 1.047 0 0 1 -.271 1.276l-4.233 2.737a.068.068 0 0 0 -.011.041l1.772 1.469a.5.5 0 0 1 .051.036l.59.49a1.063 1.063 0 0 1 -.874 1.866l-3.029-.58.4 4.485a1.051 1.051 0 0 1 -.8 1.076 1.111 1.111 0 0 1 -.267.032zm-2.936-5.725a1.078 1.078 0 0 1 .226.024 1.053 1.053 0 0 1 .714.548l1.958 4.135.108-.006-.477-4.457a1.1 1.1 0 0 1 .393-.87 1.068 1.068 0 0 1 .864-.226l3.037.581.046-.114-.559-.464a.559.559 0 0 1 -.047-.033l-1.78-1.45a1.055 1.055 0 0 1 -.387-.8 1.072 1.072 0 0 1 .362-.825.548.548 0 0 1 .061-.046l4.225-2.727-.208-.56.135.481-4.91 1.38a1.076 1.076 0 0 1 -.915-.2 1.052 1.052 0 0 1 -.4-.8l-.11-3.071-.122-.027-1.36 2.76a1.078 1.078 0 0 1 -.719.563 1.053 1.053 0 0 1 -.87-.184l-2.55-1.923-.1.055 2.39 3.334a1.091 1.091 0 0 1 .049.982 1.053 1.053 0 0 1 -.687.573l-4.123.305-.025.592.117-.486 3 .72a1.051 1.051 0 0 1 .7.555 1.061 1.061 0 0 1 .022.9l-1.785 3.1s.11.015.132.015l2.96-2.12a1.026 1.026 0 0 1 .635-.214z" fill="#323c6b"/><path d="m11.487 12.894a.176.176 0 0 0 0 .268l.554.451h.006l.184.152a.175.175 0 0 1 -.143.308l-.943-.18a.179.179 0 0 0 -.208.171l.149 1.394a.175.175 0 0 1 -.33.078l-.607-1.282a.173.173 0 0 0 -.261-.056l-.921.66a.175.175 0 0 1 -.268-.209l.551-.949a.174.174 0 0 0 -.118-.24l-.932-.22a.175.175 0 0 1 0-.339l1.254-.09a.173.173 0 0 0 .112-.243l-.766-1.056a.176.176 0 0 1 .265-.215l.794.6a.176.176 0 0 0 .261-.062l.423-.859a.175.175 0 0 1 .333.072l.034.958a.176.176 0 0 0 .212.165l1.528-.429a.175.175 0 0 1 .149.3l-.853.551z" fill="#fcd462"/><path d="m25.111 30.083a2.472 2.472 0 0 1 -1.242 1.3.968.968 0 0 1 -1.107-.147c-.426-.4-.847-.813-1.252-1.225a9.161 9.161 0 0 1 -2.68-6.2 11.883 11.883 0 0 1 .22-2.45 6.156 6.156 0 0 0 -1.13-5.11 5.772 5.772 0 0 0 -1.4-1.22 7.049 7.049 0 0 0 -.71-.39l-.02-.01-1.78-1.45a.565.565 0 0 1 -.01-.86l1.49-.96a9.317 9.317 0 0 1 2.61 1.12 8.522 8.522 0 0 1 2.12 1.86 9.077 9.077 0 0 1 1.77 7.58 8.84 8.84 0 0 0 -.16 1.85 6.181 6.181 0 0 0 1.83 4.15c.386.386.789.784 1.2 1.171a.931.931 0 0 1 .251.991z" fill="#fcd462"/><g fill="#323c6b"><path d="m23.418 31.994a1.455 1.455 0 0 1 -1-.4c-.43-.4-.856-.822-1.267-1.239a9.686 9.686 0 0 1 -2.823-6.543 12.386 12.386 0 0 1 .229-2.553 5.641 5.641 0 0 0 -1.024-4.695 5.278 5.278 0 0 0 -1.277-1.114 6.631 6.631 0 0 0 -.671-.368.688.688 0 0 1 -.113-.07l-1.78-1.45a1.053 1.053 0 0 1 -.387-.8 1.072 1.072 0 0 1 .362-.825l1.551-1.006a.5.5 0 0 1 .391-.065 9.743 9.743 0 0 1 2.751 1.18 9.01 9.01 0 0 1 2.244 1.968 9.558 9.558 0 0 1 1.876 7.992 8.356 8.356 0 0 0 -.151 1.748 5.691 5.691 0 0 0 1.691 3.812c.375.376.776.771 1.18 1.154a1.424 1.424 0 0 1 .378 1.532 2.97 2.97 0 0 1 -1.478 1.573 1.464 1.464 0 0 1 -.682.169zm-7.355-17.786a7.331 7.331 0 0 1 .729.4 6.26 6.26 0 0 1 1.51 1.318 6.634 6.634 0 0 1 1.238 5.524 11.429 11.429 0 0 0 -.211 2.35 8.687 8.687 0 0 0 2.54 5.86c.4.4.813.812 1.234 1.208a.468.468 0 0 0 .532.069 1.981 1.981 0 0 0 1.007-1.035.433.433 0 0 0 -.132-.452c-.411-.39-.817-.791-1.206-1.18a6.694 6.694 0 0 1 -1.976-4.5 9.344 9.344 0 0 1 .169-1.952 8.564 8.564 0 0 0 -1.663-7.164 8.028 8.028 0 0 0 -2-1.755 9.006 9.006 0 0 0 -2.258-.999l-1.3.841z"/><path d="m55.237 34.73a.5.5 0 0 1 -.291-.093l-8.487-6.072a.5.5 0 0 1 .582-.813l8.487 6.072a.5.5 0 0 1 -.292.907z"/><path d="m44.5 27.048a.5.5 0 0 1 -.291-.093l-.645-.462a.5.5 0 0 1 .582-.813l.645.462a.5.5 0 0 1 -.292.907z"/></g><path d="m37.862 50.957a.648.648 0 0 1 -.378-.121l-6.658-4.756a.65.65 0 1 1 .757-1.058l6.658 4.756a.65.65 0 0 1 -.379 1.179z" fill="#fff"/><path d="m40.757 53.028a.648.648 0 0 1 -.378-.121l-.645-.461a.65.65 0 1 1 .757-1.058l.645.461a.65.65 0 0 1 -.379 1.179z" fill="#fff"/><g fill="#323c6b"><path d="m63.125 70.166a.5.5 0 0 1 -.262-.926c.176-.108.349-.225.52-.344a.5.5 0 0 1 .573.819c-.187.131-.377.259-.57.377a.5.5 0 0 1 -.261.074z"/><path d="m57.6 71.666a6.723 6.723 0 0 1 -3.979-1.158l-2.421-1.953a.5.5 0 1 1 .628-.778l2.4 1.934c1.484 1.052 3.7 1.275 6.382.458a.5.5 0 1 1 .291.957 11.445 11.445 0 0 1 -3.301.54z"/><path d="m16.937 15.594a.5.5 0 0 1 -.457-.7l1.163-2.614a.5.5 0 0 1 .914.406l-1.162 2.614a.5.5 0 0 1 -.458.294z"/><path d="m18.433 17.5a.5.5 0 0 1 -.354-.853l2.162-2.173a.5.5 0 0 1 .709.705l-2.162 2.173a.5.5 0 0 1 -.355.148z"/><path d="m19.112 19.52a.5.5 0 0 1 -.161-.974l2.843-.965a.5.5 0 1 1 .321.947l-2.843.965a.5.5 0 0 1 -.16.027z"/><path d="m18.98 22.272a.5.5 0 0 1 -.073-.995l3.071-.457a.5.5 0 0 1 .147.989l-3.071.457a.548.548 0 0 1 -.074.006z"/><path d="m18.863 24.968a.5.5 0 0 1 -.076-.994l2.966-.46a.5.5 0 1 1 .153.988l-2.966.46a.518.518 0 0 1 -.077.006z"/><path d="m19.773 27.938a.5.5 0 0 1 -.208-.955l2.611-1.193a.5.5 0 1 1 .415.909l-2.611 1.194a.5.5 0 0 1 -.207.045z"/><path d="m21.687 30.688a.5.5 0 0 1 -.335-.871l2.23-2.012a.5.5 0 1 1 .67.742l-2.23 2.012a.5.5 0 0 1 -.335.129z"/><path d="m57.594 68.668a3.826 3.826 0 0 1 -2.237-.605.5.5 0 0 1 -.055-.045l-38.11-27.266a.5.5 0 0 1 .582-.813l38.161 27.3a.514.514 0 0 1 .047.038c.963.637 2.9.476 4.968-.417a15.925 15.925 0 0 0 6.51-5.383c3.7-5.2 3.713-11.546 1.765-12.931a.546.546 0 0 1 -.06-.05l-38.1-27.26a.5.5 0 1 1 .582-.813l38.153 27.303a.508.508 0 0 1 .063.054c2.521 1.907 2.3 8.81-1.591 14.279a16.94 16.94 0 0 1 -6.929 5.722 9.721 9.721 0 0 1 -3.749.887z"/></g></g></svg>