<svg height="512" viewBox="0 0 74 74" width="512" xmlns="http://www.w3.org/2000/svg"><g id="line_color" data-name="line color"><path d="m22.753 60.609h27.293l1.837 3.369h-29.782z" fill="#fed19a"/><path d="m51.883 64.478h-29.783a.5.5 0 0 1 -.491-.6l.652-3.369a.5.5 0 0 1 .491-.4h27.294a.5.5 0 0 1 .439.261l1.837 3.369a.5.5 0 0 1 -.439.739zm-29.176-1h28.334l-1.291-2.369h-26.584z" fill="#323c6b"/><path d="m22.753 60.609h27.293l1.837 3.369h-29.782z" fill="#fed19a"/><path d="m51.883 64.478h-29.783a.5.5 0 0 1 -.491-.6l.652-3.369a.5.5 0 0 1 .491-.4h27.294a.5.5 0 0 1 .439.261l1.837 3.369a.5.5 0 0 1 -.439.739zm-29.176-1h28.334l-1.291-2.369h-26.584z" fill="#323c6b"/><path d="m22.753 60.609h27.293l1.837 3.369h-29.782z" fill="#9297ab"/><path d="m51.883 64.478h-29.783a.5.5 0 0 1 -.491-.6l.652-3.369a.5.5 0 0 1 .491-.4h27.294a.5.5 0 0 1 .439.261l1.837 3.369a.5.5 0 0 1 -.439.739zm-29.176-1h28.334l-1.291-2.369h-26.584z" fill="#323c6b"/><path d="m21.531 70.563 4.731-15.962h-5.048l-4.654 15.962z" fill="#9297ab"/><path d="m24.262 54.601-4.731 15.962h2l4.731-15.962z" fill="#84879c"/><path d="m21.531 71.063h-4.97a.5.5 0 0 1 -.48-.64l4.653-15.961a.5.5 0 0 1 .48-.36h5.048a.5.5 0 0 1 .479.642l-4.73 15.956a.5.5 0 0 1 -.48.363zm-4.3-1h3.931l4.43-14.963h-4z" fill="#323c6b"/><path d="m57.424 70.563-4.653-15.962h-5.049l4.731 15.962z" fill="#9297ab"/><path d="m52.771 54.601h-2l4.653 15.962h2z" fill="#84879c"/><path d="m57.424 71.063h-4.971a.5.5 0 0 1 -.479-.358l-4.731-15.962a.5.5 0 0 1 .479-.642h5.049a.5.5 0 0 1 .48.36l4.649 15.961a.5.5 0 0 1 -.48.64zm-4.6-1h3.931l-4.355-14.963h-4z" fill="#323c6b"/><path d="m61.449 11.054v40.36a4.579 4.579 0 0 1 -4.579 4.579h-39.785a4.569 4.569 0 0 1 -4.569-4.569v-40.37a4.579 4.579 0 0 1 4.584-4.579h10.756a1.5 1.5 0 0 0 1.3-.756l1.744-3.046a1.5 1.5 0 0 1 1.3-.756h9.551a1.5 1.5 0 0 1 1.3.756l1.749 3.046a1.5 1.5 0 0 0 1.3.756h10.77a4.579 4.579 0 0 1 4.579 4.579z" fill="#e1e6e9"/><path d="m59.116 14.875h2.333v-3.821a4.579 4.579 0 0 0 -4.579-4.579h-10.761a1.5 1.5 0 0 1 -1.3-.756l-1.747-3.046a1.5 1.5 0 0 0 -1.3-.756h-9.555a1.5 1.5 0 0 0 -1.3.756l-.807 1.41h9.329a1.5 1.5 0 0 1 1.3.756l1.742 3.046a1.5 1.5 0 0 0 1.3.756h10.766a4.579 4.579 0 0 1 4.579 4.579z" fill="#d5d6db"/><path d="m61.142 40.907c-.423.806-1.142 1.017-1.848 1.5a.483.483 0 0 1 -.178.074v11.1a4.529 4.529 0 0 1 -.516 2.069 4.576 4.576 0 0 0 2.849-4.235v-11.058c-.106.184-.211.367-.307.55z" fill="#d5d6db"/><path d="m57.581 42.386h-41.2a3.872 3.872 0 0 1 -3.872-3.872v-23.487h48.94v23.488a3.872 3.872 0 0 1 -3.868 3.871z" fill="#89c5cd"/><circle cx="22.757" cy="48.974" fill="#fcd462" r="2.652"/><path d="m22.757 52.127a3.152 3.152 0 1 1 3.152-3.152 3.156 3.156 0 0 1 -3.152 3.152zm0-5.3a2.152 2.152 0 1 0 2.152 2.152 2.155 2.155 0 0 0 -2.152-2.157z" fill="#323c6b"/><circle cx="51.208" cy="48.974" fill="#fcd462" r="2.652"/><g fill="#323c6b"><path d="m51.208 52.127a3.152 3.152 0 1 1 3.152-3.152 3.156 3.156 0 0 1 -3.152 3.152zm0-5.3a2.152 2.152 0 1 0 2.152 2.152 2.155 2.155 0 0 0 -2.152-2.157z"/><path d="m36.983 42.886a.5.5 0 0 1 -.5-.5v-27.36a.5.5 0 0 1 1 0v27.36a.5.5 0 0 1 -.5.5z"/><circle cx="32.067" cy="10.026" r="1.256"/><circle cx="36.983" cy="10.026" r="1.256"/><circle cx="41.898" cy="10.026" r="1.256"/><path d="m11.355 6.283a.5.5 0 0 1 -.369-.838 8.294 8.294 0 0 1 6.1-2.69h1.248a.5.5 0 0 1 0 1h-1.249a7.29 7.29 0 0 0 -5.361 2.366.5.5 0 0 1 -.369.162z"/><path d="m21.788 3.755h-.638a.5.5 0 0 1 0-1h.637a.5.5 0 0 1 0 1z"/><path d="m64.67 43.726a.5.5 0 0 1 -.5-.5v-9.5a.5.5 0 0 1 1 0v9.5a.5.5 0 0 1 -.5.5z"/><path d="m64.67 31.709a.5.5 0 0 1 -.5-.5v-.626a.5.5 0 1 1 1 0v.626a.5.5 0 0 1 -.5.5z"/><path d="m42.4 48.125h-9.931a.5.5 0 0 1 0-1h9.931a.5.5 0 0 1 0 1z"/><path d="m40.879 51.613h-6.893a.5.5 0 1 1 0-1h6.893a.5.5 0 0 1 0 1z"/><path d="m56.87 56.494h-39.785a5.075 5.075 0 0 1 -5.069-5.069v-40.371a5.085 5.085 0 0 1 5.084-5.079h10.756a1 1 0 0 0 .87-.5l1.742-3.046a2.008 2.008 0 0 1 1.738-1.008h9.551a2.007 2.007 0 0 1 1.743 1.004l1.742 3.046a1 1 0 0 0 .87.5h10.758a5.085 5.085 0 0 1 5.079 5.08v40.36a5.085 5.085 0 0 1 -5.079 5.083zm-39.77-49.519a4.084 4.084 0 0 0 -4.079 4.079v40.371a4.073 4.073 0 0 0 4.069 4.069h39.78a4.084 4.084 0 0 0 4.079-4.079v-40.36a4.084 4.084 0 0 0 -4.079-4.08h-10.761a2.007 2.007 0 0 1 -1.738-1.008l-1.743-3.046a1 1 0 0 0 -.87-.5h-9.551a1.006 1.006 0 0 0 -.871.5l-1.741 3.046a2.007 2.007 0 0 1 -1.738 1.008z"/></g><path d="m60.368 40.351a8.518 8.518 0 0 0 .921-1.9.436.436 0 0 1 .161-.256v-23.028h-2.334v26.3a2.668 2.668 0 0 0 1.252-1.116z" fill="#6eaaad"/><path d="m57.581 42.886h-41.2a4.376 4.376 0 0 1 -4.372-4.372v-23.488a.5.5 0 0 1 .5-.5h48.94a.5.5 0 0 1 .5.5v23.489a4.376 4.376 0 0 1 -4.368 4.371zm-44.568-27.36v22.989a3.376 3.376 0 0 0 3.372 3.372h41.2a3.376 3.376 0 0 0 3.372-3.372v-22.989z" fill="#323c6b"/><g fill="#fff"><path d="m15.729 31.316a.65.65 0 0 1 -.65-.65v-8.416a.65.65 0 0 1 1.3 0v8.417a.65.65 0 0 1 -.65.649z"/><path d="m15.729 34.561a.65.65 0 0 1 -.65-.65v-.78a.65.65 0 1 1 1.3 0v.78a.65.65 0 0 1 -.65.65z"/></g></g></svg>