<svg height="512" viewBox="0 0 74 74" width="512" xmlns="http://www.w3.org/2000/svg"><g id="line_color" data-name="line color"><path d="m65.18 31.18v39.82h-10.7v-39.82a17.48 17.48 0 1 0 -34.96 0v39.82h-10.7v-39.82a28.18 28.18 0 1 1 56.36 0z" fill="#e7aa6c"/><path d="m16.645 33.306v37.694h2.875v-39.82a17.435 17.435 0 0 1 5.745-12.924 17.487 17.487 0 0 0 -8.62 15.05z" fill="#d09865"/><path d="m37 3a28.049 28.049 0 0 0 -18.137 6.634 28.158 28.158 0 0 1 43.437 23.672v37.694h2.88v-39.82a28.21 28.21 0 0 0 -28.18-28.18z" fill="#d09865"/><path d="m54.48 71h-34.96l7.91-11.167h19.14z" fill="#707583"/><path d="m54.48 71.5h-34.96a.5.5 0 0 1 -.408-.789l7.91-11.167a.5.5 0 0 1 .408-.211h19.14a.5.5 0 0 1 .408.211l7.91 11.167a.5.5 0 0 1 -.408.789zm-33.993-1h33.026l-7.2-10.167h-18.624z" fill="#323c6b"/><path d="m27.43 41.391v18.442l-7.91 11.167v-39.366c0-9.78 8-18.108 17.781-17.941a17.507 17.507 0 0 1 17.179 17.487v39.82l-7.91-11.167v-18.442" fill="#eeefee"/><path d="m54.48 71.5a.5.5 0 0 1 -.408-.211l-7.91-11.167a.5.5 0 0 1 -.092-.289v-18.442a.5.5 0 0 1 1 0v18.283l6.91 9.755v-38.249a17.063 17.063 0 0 0 -16.687-16.988 16.608 16.608 0 0 0 -11.97 4.868 17.758 17.758 0 0 0 -5.3 12.573v37.8l6.91-9.755v-18.287a.5.5 0 0 1 1 0v18.442a.5.5 0 0 1 -.092.289l-7.91 11.167a.5.5 0 0 1 -.911-.289v-39.366a18.763 18.763 0 0 1 5.6-13.286 17.676 17.676 0 0 1 12.69-5.156 18.067 18.067 0 0 1 17.67 17.988v39.82a.5.5 0 0 1 -.348.477.51.51 0 0 1 -.152.023z" fill="#323c6b"/><path d="m46.57 41.005v18.828h-19.14v-18.828a9.57 9.57 0 0 1 9.57-9.57 9.57 9.57 0 0 1 9.57 9.57z" fill="#9297ab"/><path d="m37 31.435a9.536 9.536 0 0 0 -6.85 2.894 9.564 9.564 0 0 1 14.017 8.471v17.033h2.4v-18.828a9.57 9.57 0 0 0 -9.567-9.57z" fill="#84879c"/><g fill="#323c6b"><path d="m8.876 18.258a.5.5 0 0 1 -.449-.72q.174-.354.353-.7a.5.5 0 1 1 .891.454c-.116.229-.232.458-.345.688a.5.5 0 0 1 -.45.278z"/><path d="m10.451 15.375a.5.5 0 0 1 -.425-.762 31.944 31.944 0 0 1 5.739-6.913.5.5 0 1 1 .672.741 30.921 30.921 0 0 0 -5.56 6.7.5.5 0 0 1 -.426.234z"/><path d="m49.417 38.88a.5.5 0 0 1 -.494-.425 11.981 11.981 0 0 0 -3.262-6.568.5.5 0 1 1 .719-.7 12.972 12.972 0 0 1 3.532 7.113.5.5 0 0 1 -.495.575z"/><path d="m49.571 42.276a.5.5 0 0 1 -.5-.5v-.771a.5.5 0 0 1 1 0v.771a.5.5 0 0 1 -.5.5z"/><path d="m37 14.19a.5.5 0 0 1 -.5-.5v-10.69a.5.5 0 0 1 1 0v10.69a.5.5 0 0 1 -.5.5z"/><path d="m32.041 14.9a.5.5 0 0 1 -.456-.293l-4.414-9.739a.5.5 0 0 1 .911-.413l4.418 9.737a.5.5 0 0 1 -.455.707z"/><path d="m26.7 17.563a.5.5 0 0 1 -.39-.187l-6.71-8.337a.5.5 0 1 1 .779-.627l6.7 8.337a.5.5 0 0 1 -.389.813z"/><path d="m22.926 21.291a.5.5 0 0 1 -.214-.049l-9.65-4.6a.5.5 0 1 1 .43-.9l9.65 4.6a.5.5 0 0 1 -.215.951z"/><path d="m19.991 27.3a.512.512 0 0 1 -.094-.009l-10.445-1.991a.5.5 0 0 1 .187-.982l10.445 1.987a.5.5 0 0 1 -.093.991z"/><path d="m8.82 33.73a.5.5 0 0 1 0-1l10.7-.044a.5.5 0 0 1 0 1z"/><path d="m8.821 40.188a.5.5 0 0 1 0-1l10.7-.044a.512.512 0 0 1 .5.5.5.5 0 0 1 -.5.5z"/><path d="m8.826 59.563a.5.5 0 0 1 0-1l10.7-.044a.476.476 0 0 1 .5.5.5.5 0 0 1 -.5.5z"/><path d="m8.828 66.022a.5.5 0 0 1 0-1l10.7-.044a.5.5 0 0 1 0 1z"/><path d="m41.959 14.9a.5.5 0 0 1 -.455-.707l4.414-9.737a.5.5 0 1 1 .911.413l-4.413 9.731a.5.5 0 0 1 -.457.3z"/><path d="m47.3 17.563a.5.5 0 0 1 -.389-.813l6.7-8.337a.5.5 0 1 1 .779.627l-6.7 8.337a.5.5 0 0 1 -.39.186z"/><path d="m51.074 21.291a.5.5 0 0 1 -.215-.951l9.65-4.6a.5.5 0 1 1 .43.9l-9.65 4.6a.5.5 0 0 1 -.215.051z"/><path d="m54.009 27.3a.5.5 0 0 1 -.093-.991l10.445-1.987a.5.5 0 0 1 .187.982l-10.448 1.987a.512.512 0 0 1 -.091.009z"/><path d="m65.18 33.73-10.7-.044a.5.5 0 0 1 0-1l10.7.044a.5.5 0 0 1 0 1z"/><path d="m65.179 40.188-10.7-.044a.5.5 0 0 1 0-1l10.7.044a.5.5 0 0 1 0 1z"/><path d="m65.177 46.647-10.7-.044a.5.5 0 0 1 0-1l10.7.044a.5.5 0 0 1 0 1z"/><path d="m65.176 53.1-10.7-.044a.5.5 0 0 1 0-1l10.7.044a.5.5 0 0 1 0 1z"/><path d="m65.174 59.563-10.7-.044a.5.5 0 0 1 0-1l10.7.044a.5.5 0 0 1 0 1z"/><path d="m65.172 66.022-10.7-.044a.5.5 0 0 1 0-1l10.7.044a.5.5 0 0 1 0 1z"/><path d="m65.18 71.5h-10.7a.5.5 0 0 1 -.5-.5v-39.82a16.98 16.98 0 1 0 -33.96 0v39.82a.5.5 0 0 1 -.5.5h-10.7a.5.5 0 0 1 -.5-.5v-39.82a28.68 28.68 0 0 1 57.36 0v39.82a.5.5 0 0 1 -.5.5zm-10.2-1h9.7v-39.32a27.68 27.68 0 0 0 -55.36 0v39.32h9.7v-39.32a17.98 17.98 0 1 1 35.96 0z"/></g><path d="m11.75 55.316a.65.65 0 0 1 -.65-.65v-8.358a.65.65 0 1 1 1.3 0v8.358a.65.65 0 0 1 -.65.65z" fill="#fff"/><path d="m11.75 44.675a.65.65 0 0 1 -.65-.65v-.425a.65.65 0 0 1 1.3 0v.428a.65.65 0 0 1 -.65.647z" fill="#fff"/><g fill="#323c6b"><path d="m46.57 60.333h-19.14a.5.5 0 0 1 -.5-.5v-18.828a10.07 10.07 0 0 1 20.14 0v18.828a.5.5 0 0 1 -.5.5zm-18.64-1h18.14v-18.328a9.07 9.07 0 0 0 -18.14 0z"/><path d="m8.823 46.647a.5.5 0 0 1 0-1l10.7-.044a.5.5 0 0 1 0 1z"/><path d="m8.824 53.1a.5.5 0 0 1 0-1l10.7-.044a.5.5 0 0 1 0 1z"/></g></g></svg>