<svg height="512" viewBox="0 0 74 74" width="512" xmlns="http://www.w3.org/2000/svg"><g id="line_color" data-name="line color"><path d="m55.048 27.75h-36.09a7.163 7.163 0 0 1 -7.158-7.163l-.062-1h50.411l.063 1a7.163 7.163 0 0 1 -7.164 7.163z" fill="#89c5cd"/><path d="m22.757 27.75h28.493v3.17h-28.493z" fill="#e1e6e9"/><path d="m51.25 31.42h-28.493a.5.5 0 0 1 -.5-.5v-3.17a.5.5 0 0 1 .5-.5h28.493a.5.5 0 0 1 .5.5v3.17a.5.5 0 0 1 -.5.5zm-27.993-1h27.493v-2.17h-27.493z" fill="#323c6b"/><path d="m66.33 58.48v7.7a2.147 2.147 0 0 1 -2.15 2.15h-54.36a2.147 2.147 0 0 1 -2.15-2.15v-7.7a1.414 1.414 0 0 1 .02-.29h58.62a1.414 1.414 0 0 1 .02.29z" fill="#e1e6e9"/><path d="m7.67 65.5v.68a2.147 2.147 0 0 0 2.15 2.15h54.36a2.147 2.147 0 0 0 2.15-2.15v-.68z" fill="#d5d6db"/><path d="m66.31 58.19h-2.688a1.414 1.414 0 0 1 .02.29v7.7a2.147 2.147 0 0 1 -2.15 2.15h2.688a2.147 2.147 0 0 0 2.15-2.15v-7.7a1.414 1.414 0 0 0 -.02-.29z" fill="#d5d6db"/><path d="m66.31 58.19h-58.62a3.621 3.621 0 0 1 .24-1.12l9.48-24.76a2.151 2.151 0 0 1 2.01-1.39h35.16a2.151 2.151 0 0 1 2.01 1.39l9.48 24.76a3.621 3.621 0 0 1 .24 1.12z" fill="#89c5cd"/><path d="m65.709 57.246-9.48-24.76a2.151 2.151 0 0 0 -2.01-1.39h-2.313a2.151 2.151 0 0 1 2.01 1.39l9.48 24.76a3.621 3.621 0 0 1 .24 1.12h2.313a3.621 3.621 0 0 0 -.24-1.12z" fill="#6eaaad"/><path d="m62.149 19.589h-2.728l.063 1a7.163 7.163 0 0 1 -7.164 7.161h2.728a7.163 7.163 0 0 0 7.163-7.163z" fill="#6eaaad"/><path d="m7.69 58.69h-.02a.5.5 0 0 1 0-1 .508.508 0 0 1 .51.5.491.491 0 0 1 -.49.5z" fill="#323c6b"/><path d="m66.33 58.69h-.02a.5.5 0 0 1 0-1 .509.509 0 0 1 .51.5.491.491 0 0 1 -.49.5z" fill="#323c6b"/><circle cx="37" cy="44.441" fill="#e1e6e9" r="8.687"/><path d="m37 44.94a.5.5 0 0 1 -.368-.161l-3.227-3.5a.5.5 0 0 1 .735-.678l3.227 3.5a.5.5 0 0 1 -.367.839z" fill="#323c6b"/><path d="m37 39.14a.507.507 0 0 1 -.35-.15.468.468 0 0 1 -.15-.35.507.507 0 0 1 .15-.36.52.52 0 0 1 .7 0 .508.508 0 0 1 .15.36.468.468 0 0 1 -.15.35.507.507 0 0 1 -.35.15z" fill="#323c6b"/><path d="m37 50.75a.641.641 0 0 1 -.19-.04.652.652 0 0 1 -.16-.11.506.506 0 0 1 -.15-.36.429.429 0 0 1 .04-.19.418.418 0 0 1 .11-.16.463.463 0 0 1 .16-.11.514.514 0 0 1 .54.11.419.419 0 0 1 .11.16.436.436 0 0 1 .04.19.514.514 0 0 1 -.5.51z" fill="#323c6b"/><path d="m42.8 44.94a.471.471 0 0 1 -.35-.15.457.457 0 0 1 -.11-.16.585.585 0 0 1 -.04-.19.5.5 0 0 1 .86-.35.5.5 0 0 1 .14.35.582.582 0 0 1 -.03.19.652.652 0 0 1 -.11.16.491.491 0 0 1 -.36.15z" fill="#323c6b"/><path d="m31.2 44.94a.509.509 0 0 1 -.36-.15.5.5 0 0 1 -.14-.35.627.627 0 0 1 .03-.19.638.638 0 0 1 .11-.16.5.5 0 1 1 .71.7.487.487 0 0 1 -.35.15z" fill="#323c6b"/><g fill="#e1e6e9"><path d="m25.372 19.589h-10.198l1.993-5.558h6.212z"/><path d="m36.972 19.589h-10.198l1.993-5.558h6.212z"/><path d="m31.172 14.031h-10.198l1.993-6.105h6.212z"/><path d="m47.17 19.589h-10.198l1.993-5.558h6.212z"/><path d="m58.77 19.589h-10.197l1.992-5.558h6.212z"/></g><path d="m58.77 19.59h-1.97l-1.46-4.08h-5.3l.53-1.48h6.21z" fill="#d5d6db"/><path d="m52.97 14.031h-10.198l1.993-6.105h6.212z" fill="#e1e6e9"/><path d="m31.17 14.03h-1.92l-1.51-4.62h-5.26l.49-1.48h6.21z" fill="#d5d6db"/><path d="m52.97 14.03h-1.92l-1.51-4.62h-5.26l.49-1.48h6.21z" fill="#d5d6db"/><path d="m21.941 15.512 1.462 4.077h1.969l-1.993-5.558h-6.212l-.531 1.481z" fill="#d5d6db"/><path d="m33.542 15.512 1.462 4.077h1.968l-1.993-5.558h-6.212l-.531 1.481z" fill="#d5d6db"/><path d="m43.74 15.512 1.461 4.077h1.969l-1.993-5.558h-6.212l-.531 1.481z" fill="#d5d6db"/><g fill="#323c6b"><path d="m15.174 29.969a.491.491 0 0 1 -.07 0 6.372 6.372 0 0 1 -2.243-.766 7.113 7.113 0 0 1 -2.481-2.442 12.952 12.952 0 0 1 -1.367-2.8.5.5 0 1 1 .946-.323 11.97 11.97 0 0 0 1.264 2.581 6.13 6.13 0 0 0 2.128 2.108 5.371 5.371 0 0 0 1.893.647.5.5 0 0 1 -.069 1z"/><path d="m8.916 21.911a.5.5 0 0 1 -.494-.425q-.052-.349-.091-.7a.5.5 0 0 1 .44-.553.493.493 0 0 1 .553.44c.025.222.054.443.087.664a.5.5 0 0 1 -.42.569.562.562 0 0 1 -.075.005z"/><path d="m64.756 45.75a.5.5 0 0 1 -.467-.321l-.383-1a.5.5 0 0 1 .934-.357l.383 1a.5.5 0 0 1 -.467.679z"/><path d="m68.847 56.438a.5.5 0 0 1 -.467-.321l-3.086-8.062a.5.5 0 0 1 .934-.357l3.086 8.063a.5.5 0 0 1 -.467.679z"/><path d="m66.31 58.69h-58.62a.5.5 0 0 1 -.5-.526 4.11 4.11 0 0 1 .274-1.275l9.479-24.757a2.666 2.666 0 0 1 2.477-1.712h35.16a2.667 2.667 0 0 1 2.477 1.712l9.479 24.759a4.106 4.106 0 0 1 .273 1.272.5.5 0 0 1 -.5.526zm-58.048-1h57.476a3.074 3.074 0 0 0 -.134-.439l-9.481-24.762a1.642 1.642 0 0 0 -1.543-1.069h-35.16a1.641 1.641 0 0 0 -1.542 1.068l-9.478 24.761a3.085 3.085 0 0 0 -.138.441z"/><path d="m55.048 28.25h-36.09a7.672 7.672 0 0 1 -7.664-7.664l-.062-.966a.5.5 0 0 1 .5-.531h50.417a.5.5 0 0 1 .5.469l.063 1a7.678 7.678 0 0 1 -7.664 7.692zm-42.783-8.161.029.466a6.679 6.679 0 0 0 6.665 6.695h36.09a6.671 6.671 0 0 0 6.664-6.664l-.032-.5z"/><path d="m64.18 68.83h-54.36a2.653 2.653 0 0 1 -2.65-2.65v-7.7a1.894 1.894 0 0 1 .03-.388.5.5 0 0 1 .49-.4h58.62a.5.5 0 0 1 .49.4 1.894 1.894 0 0 1 .03.388v7.7a2.653 2.653 0 0 1 -2.65 2.65zm-56.01-10.14v7.49a1.652 1.652 0 0 0 1.65 1.65h54.36a1.652 1.652 0 0 0 1.65-1.65v-7.49z"/><path d="m25.372 20.089h-10.2a.5.5 0 0 1 -.471-.669l1.999-5.558a.5.5 0 0 1 .471-.331h6.212a.5.5 0 0 1 .471.331l1.993 5.558a.5.5 0 0 1 -.471.669zm-9.487-1h8.777l-1.634-4.558h-5.509z"/><path d="m36.972 20.089h-10.2a.5.5 0 0 1 -.471-.669l1.999-5.558a.5.5 0 0 1 .471-.331h6.212a.5.5 0 0 1 .471.331l1.993 5.558a.5.5 0 0 1 -.471.669zm-9.487-1h8.777l-1.634-4.558h-5.509z"/><path d="m47.17 20.089h-10.2a.5.5 0 0 1 -.471-.669l1.993-5.558a.5.5 0 0 1 .471-.331h6.212a.5.5 0 0 1 .471.331l1.993 5.558a.5.5 0 0 1 -.471.669zm-9.487-1h8.777l-1.634-4.558h-5.509z"/><path d="m58.77 20.089h-10.2a.5.5 0 0 1 -.471-.669l1.993-5.558a.5.5 0 0 1 .471-.331h6.212a.5.5 0 0 1 .471.331l1.993 5.558a.5.5 0 0 1 -.471.669zm-9.487-1h8.777l-1.634-4.558h-5.509z"/><path d="m52.97 14.531h-10.2a.5.5 0 0 1 -.475-.655l1.995-6.105a.5.5 0 0 1 .475-.345h6.212a.5.5 0 0 1 .475.345l1.993 6.105a.5.5 0 0 1 -.475.655zm-9.508-1h8.819l-1.667-5.105h-5.486z"/><path d="m31.172 14.531h-10.2a.5.5 0 0 1 -.475-.655l1.993-6.105a.5.5 0 0 1 .475-.345h6.212a.5.5 0 0 1 .475.345l1.993 6.105a.5.5 0 0 1 -.475.655zm-9.509-1h8.82l-1.667-5.105h-5.486z"/><path d="m37 53.628a9.188 9.188 0 1 1 9.188-9.187 9.2 9.2 0 0 1 -9.188 9.187zm0-17.375a8.188 8.188 0 1 0 8.188 8.188 8.2 8.2 0 0 0 -8.188-8.188z"/></g><path d="m18.937 55.426h-.594a.65.65 0 0 1 0-1.3h.594a.65.65 0 1 1 0 1.3z" fill="#fff"/><path d="m12.8 55.426a.891.891 0 0 1 -.824-1.23l2.178-5.407a.65.65 0 0 1 1.2.5s-1.125 2.832-1.743 4.34a.362.362 0 0 0 .335.5h1.8a.65.65 0 0 1 0 1.3z" fill="#fff"/></g></svg>