<svg height="512" viewBox="0 0 74 74" width="512" xmlns="http://www.w3.org/2000/svg"><g id="line_color" data-name="line color"><path d="m3 19.963 34 49.617 34-49.617z" fill="#e1e6e9"/><path d="m12.833 4.42-9.833 15.543h68l-9.455-15.543z" fill="#e1e6e9"/><path d="m71 19.96-34 49.62-2.16-3.16 31.83-46.46z" fill="#d5d6db"/><path d="m71 19.96h-4.33l-9.46-15.54h4.34z" fill="#d5d6db"/><path d="m29.7 4.42-6.533 15.543h27.666l-6.4-15.543z" fill="#e1e6e9"/><g fill="#323c6b"><path d="m50.833 20.463h-27.666a.5.5 0 0 1 -.461-.694l6.533-15.543a.5.5 0 0 1 .461-.306h14.734a.5.5 0 0 1 .462.31l6.4 15.544a.5.5 0 0 1 -.462.69zm-26.913-1h26.167l-5.987-14.544h-14.068z"/><path d="m55.225 48.792a.5.5 0 0 1 -.412-.783l6.425-9.375a.5.5 0 1 1 .824.565l-6.425 9.375a.5.5 0 0 1 -.412.218z"/><path d="m53.083 51.917a.5.5 0 0 1 -.412-.783l.4-.583a.5.5 0 0 1 .824.566l-.4.583a.5.5 0 0 1 -.412.217z"/><path d="m8.783 5.709a.5.5 0 0 1 -.423-.767l2.4-3.79a.5.5 0 0 1 .423-.233h6.132a.5.5 0 0 1 0 1h-5.859l-2.25 3.558a.5.5 0 0 1 -.423.232z"/><path d="m21.167 1.919h-.729a.5.5 0 0 1 0-1h.729a.5.5 0 0 1 0 1z"/><path d="m37 70.081a.5.5 0 0 1 -.412-.217l-34-49.617a.5.5 0 0 1 .412-.784h68a.5.5 0 0 1 .412.783l-34 49.617a.5.5 0 0 1 -.412.218zm-33.051-49.618 33.051 48.237 33.051-48.237z"/><path d="m71 20.463h-68a.5.5 0 0 1 -.423-.767l9.833-15.544a.5.5 0 0 1 .423-.233h48.712a.5.5 0 0 1 .427.24l9.455 15.541a.5.5 0 0 1 -.427.76zm-67.092-1h66.2l-8.844-14.544h-48.156z"/></g><path d="m23.167 19.963 13.833 49.617 13.833-49.617z" fill="#e1e6e9"/><path d="m37 70.081a.5.5 0 0 1 -.481-.366l-13.833-49.615a.5.5 0 0 1 .481-.634h27.666a.5.5 0 0 1 .481.634l-13.833 49.615a.5.5 0 0 1 -.481.366zm-13.175-49.618 13.175 47.256 13.175-47.256z" fill="#323c6b"/><g fill="#fff"><path d="m31.768 38.469a.75.75 0 0 1 -.725-.563l-.159-.618a.749.749 0 0 1 1.451-.372l.159.618a.749.749 0 0 1 -.54.911.731.731 0 0 1 -.186.024z"/><path d="m30.94 35.284a.748.748 0 0 1 -.725-.564l-2.171-8.109a.748.748 0 0 1 1.451-.369l2.171 8.109a.75.75 0 0 1 -.725.933z"/></g></g></svg>