<svg height="512" viewBox="0 0 74 74" width="512" xmlns="http://www.w3.org/2000/svg"><g id="line_color" data-name="line color"><path d="m40.72 46.35-23.12 21.89-1.29 1.22a2.979 2.979 0 0 1 -4.17-.07l-8.32-8.79a2.973 2.973 0 0 1 .08-4.18l1.32-1.25 23.12-21.9z" fill="#9297ab"/><path d="m17.6 68.24-1.29 1.22a2.979 2.979 0 0 1 -4.17-.07l-8.32-8.79a2.973 2.973 0 0 1 .08-4.18l1.32-1.25z" fill="#e1e6e9"/><rect fill="#9297ab" height="37.559" rx="2.674" transform="matrix(.726 -.688 .688 .726 -3.379 41.375)" width="5.347" x="47.572" y="6.15"/><path d="m17.342 68.461c-.25-.107-.294-.319-.477-.513s-.349-.359-.529-.531a9.636 9.636 0 0 1 -.918-.947l-1.048.989a2.981 2.981 0 0 1 -3.89.18l1.66 1.75a2.979 2.979 0 0 0 4.17.07l1.052-.995c-.007-.001-.013 0-.02-.003z" fill="#d5d6db"/><path d="m16.1 65.965a7.012 7.012 0 0 0 .792.834c.166.153.033.428.193.589s.083.369.279.453c.114.049.507.026.546.107l22.81-21.598-1.869-1.975h-.1l-22.73 21.525a.5.5 0 0 1 .079.065z" fill="#84879c"/><path d="m61.447 32.875h-.06a2.667 2.667 0 0 1 -.166 3.7 2.629 2.629 0 0 1 -1.83.73 2.666 2.666 0 0 1 -1.65-.57l1.64 1.73a2.672 2.672 0 0 0 3.78.11 2.672 2.672 0 0 0 .1-3.78z" fill="#84879c"/><path d="m59.772 38.878c-4.852 4.928-12.729 8.863-19.049 7.467l-12.381-13.074c-1.05-6.386 3.31-14.037 8.494-18.613z" fill="#e1e6e9"/><path d="m57.742 36.734c-4.861 4.875-12.662 8.741-18.933 7.356l-.058-.062v.233l1.973 2.084c6.319 1.4 14.2-2.54 19.049-7.467z" fill="#d5d6db"/><rect fill="#fe7058" height="7.559" rx="1.906" transform="matrix(.688 .726 -.726 .688 44.49 .428)" width="3.813" x="19.842" y="48.135"/><path d="m20.39 55.608h-.067a2.391 2.391 0 0 1 -1.682-.751 2.41 2.41 0 0 1 .093-3.4l2.721-2.576a2.353 2.353 0 0 1 1.72-.658 2.406 2.406 0 0 1 1.589 4.153l-2.72 2.575a2.389 2.389 0 0 1 -1.654.657zm2.718-6.388a1.4 1.4 0 0 0 -.966.385l-2.721 2.576a1.408 1.408 0 0 0 -.054 1.988 1.409 1.409 0 0 0 1.988.054l2.72-2.575a1.407 1.407 0 0 0 -.929-2.427z" fill="#323c6b"/><path d="m23.059 53.8a.5.5 0 0 1 -.363-.156l-2.465-2.6a.5.5 0 1 1 .727-.687l2.465 2.6a.5.5 0 0 1 -.363.844z" fill="#323c6b"/><path d="m57.609 28.8a8.575 8.575 0 0 0 -11.587-12.233z" fill="#fcd462"/><g opacity=".5"><path d="m56.885 17.884a8.613 8.613 0 0 0 -.8-.737 8.586 8.586 0 0 1 -.264 9.657l-.067-.071v.108l1.855 1.959a8.579 8.579 0 0 0 -.724-10.916z" fill="#f7be56"/></g><g fill="#323c6b"><path d="m55.383 12.226a.5.5 0 0 1 -.5-.564l1.037-8a.5.5 0 0 1 .992.129l-1.037 8a.5.5 0 0 1 -.492.435z"/><path d="m60.59 14.876a.5.5 0 0 1 -.344-.863l5.859-5.548a.5.5 0 1 1 .688.727l-5.859 5.548a.5.5 0 0 1 -.344.136z"/><path d="m62.951 20.221a.5.5 0 0 1 -.036-1l8.048-.6a.5.5 0 1 1 .074 1l-8.048.6z"/><path d="m3.1 64.708a.5.5 0 0 1 -.363-.156l-.559-.59a.5.5 0 0 1 .727-.687l.559.59a.5.5 0 0 1 -.363.844z"/><path d="m1.014 62.292a.5.5 0 0 1 -.419-.227 6.455 6.455 0 0 1 .931-8.22.5.5 0 0 1 .688.727 5.456 5.456 0 0 0 -.78 6.948.5.5 0 0 1 -.419.773z"/><path d="m51.209 48.391a.5.5 0 0 1 -.189-.963 30.762 30.762 0 0 0 6.541-3.668.5.5 0 1 1 .592.807 31.816 31.816 0 0 1 -6.753 3.787.5.5 0 0 1 -.191.037z"/><path d="m47.876 49.5a.5.5 0 0 1 -.122-.985l.13-.033c.26-.065.52-.13.78-.21a.5.5 0 1 1 .295.955c-.277.086-.555.156-.832.226l-.127.035a.5.5 0 0 1 -.124.012z"/><path d="m14.261 70.772a3.463 3.463 0 0 1 -2.478-1.032l-8.326-8.8a3.488 3.488 0 0 1 .095-4.882l24.448-23.151a.456.456 0 0 1 .357-.137.5.5 0 0 1 .35.156l12.38 13.08a.5.5 0 0 1 -.02.707l-24.41 23.11a3.467 3.467 0 0 1 -2.396.949zm14.06-36.8-24.077 22.811a2.484 2.484 0 0 0 -.062 3.473l8.32 8.791a2.483 2.483 0 0 0 3.462.051l24.049-22.767z"/><path d="m61.322 39.8h-.089a3.155 3.155 0 0 1 -2.219-.991l-22.148-23.392a3.178 3.178 0 0 1 .123-4.486 3.173 3.173 0 0 1 4.486.122l22.148 23.39a3.174 3.174 0 0 1 -2.3 5.355zm-22.152-28.739a2.174 2.174 0 0 0 -1.577 3.668l22.148 23.39a2.173 2.173 0 1 0 3.159-2.989l-22.151-23.39a2.159 2.159 0 0 0 -1.519-.678z"/><path d="m14.261 70.772a3.463 3.463 0 0 1 -2.478-1.032l-8.326-8.8a3.488 3.488 0 0 1 .095-4.882l1.324-1.254a.474.474 0 0 1 .357-.137.5.5 0 0 1 .35.156l12.38 13.077a.5.5 0 0 1 -.02.707l-1.29 1.22a3.467 3.467 0 0 1 -2.392.945zm-9.061-14.895-.956.906a2.484 2.484 0 0 0 -.062 3.473l8.32 8.791a2.483 2.483 0 0 0 3.462.051l.928-.876z"/><path d="m43.444 47.132a13.079 13.079 0 0 1 -2.829-.3.5.5 0 0 1 -.256-.145l-12.38-13.073a.5.5 0 0 1 -.13-.263c-1.127-6.858 3.7-14.692 8.657-19.069a.5.5 0 0 1 .694.031l22.935 24.221a.5.5 0 0 1 -.007.694c-4.01 4.072-10.591 7.904-16.684 7.904zm-2.465-1.244c6.223 1.289 13.631-2.664 18.094-7.021l-22.263-23.512c-4.595 4.219-8.943 11.4-8 17.685z"/><path d="m57.609 29.3a.5.5 0 0 1 -.363-.156l-11.588-12.234a.5.5 0 0 1 .093-.764 9.076 9.076 0 0 1 12.264 12.954.5.5 0 0 1 -.372.206zm-10.794-12.623 10.727 11.323a8.077 8.077 0 0 0 -10.727-11.323z"/></g><g fill="#fff"><path d="m16.021 49.249a.65.65 0 0 1 -.439-1.128l.408-.375a.65.65 0 1 1 .879.957l-.408.375a.647.647 0 0 1 -.44.171z"/><path d="m18.13 47.311a.65.65 0 0 1 -.439-1.128l6.8-6.242a.65.65 0 1 1 .879.957l-6.8 6.242a.647.647 0 0 1 -.44.171z"/></g></g></svg>