<svg height="512" viewBox="0 0 74 74" width="512" xmlns="http://www.w3.org/2000/svg"><g id="line_color" data-name="line color"><path d="m59.618 47.64a.508.508 0 0 1 -.09-.008.5.5 0 0 1 -.4-.581c.034-.187.063-.382.092-.576l.037-.244a.505.505 0 0 1 .57-.418.5.5 0 0 1 .418.57l-.036.239c-.03.2-.062.409-.1.606a.5.5 0 0 1 -.491.412z" fill="#323c6b"/><path d="m55.348 56.719a.5.5 0 0 1 -.317-.114.5.5 0 0 1 -.069-.7 20.385 20.385 0 0 0 3.611-6.749.5.5 0 1 1 .951.306 21.386 21.386 0 0 1 -3.789 7.078.5.5 0 0 1 -.387.179z" fill="#323c6b"/><path d="m12.436 31.3v-3.243a23.154 23.154 0 0 1 7.207-16.815 22.917 22.917 0 0 1 15.847-6.116h.386a22.856 22.856 0 0 1 15.357 5.684q.445.4.869.826a23.121 23.121 0 0 1 6.808 16.421v3.243z" fill="#fe7058"/><path d="m52.1 11.635q-.424-.424-.869-.826a22.856 22.856 0 0 0 -15.355-5.683h-.386a24.209 24.209 0 0 0 -7.227 1.117 24.538 24.538 0 0 1 4-.34h.386a22.856 22.856 0 0 1 15.351 5.684q.445.4.869.826a23.121 23.121 0 0 1 6.809 16.422v2.465h3.232v-3.243a23.121 23.121 0 0 0 -6.81-16.422z" fill="#ea6453"/><path d="m42.484 60.86a.5.5 0 0 1 -.1-.989c9.686-2.082 14.6-9.027 14.6-20.641v-1.53h-42.6v1.527c0 11.606 4.911 18.547 14.6 20.63a.5.5 0 1 1 -.211.978c-10.209-2.2-15.386-9.465-15.386-21.607v-2.028a.5.5 0 0 1 .5-.5h43.6a.5.5 0 0 1 .5.5v2.027c0 12.15-5.177 19.423-15.386 21.618a.5.5 0 0 1 -.117.015z" fill="#323c6b"/><rect fill="#e1e6e9" height="5.271" rx="1.546" width="13.623" x="28.865" y="58.39"/><g fill="#323c6b"><path d="m40.942 64.161h-10.531a2.048 2.048 0 0 1 -2.046-2.046v-2.18a2.048 2.048 0 0 1 2.046-2.046h10.531a2.048 2.048 0 0 1 2.046 2.046v2.18a2.048 2.048 0 0 1 -2.046 2.046zm-10.531-5.271a1.047 1.047 0 0 0 -1.046 1.046v2.18a1.047 1.047 0 0 0 1.046 1.046h10.531a1.047 1.047 0 0 0 1.046-1.046v-2.18a1.047 1.047 0 0 0 -1.046-1.046z"/><path d="m31.111 67.995q-.448 0-.934-.047a.5.5 0 0 1 -.449-.546.508.508 0 0 1 .547-.449 4.868 4.868 0 0 0 3.66-.8 3.723 3.723 0 0 0 1.223-2.533.517.517 0 0 1 .543-.453.5.5 0 0 1 .453.543 4.713 4.713 0 0 1 -1.581 3.212 5.27 5.27 0 0 1 -3.462 1.073z"/><path d="m40.241 67.995a5.27 5.27 0 0 1 -3.462-1.077 4.713 4.713 0 0 1 -1.579-3.213.5.5 0 0 1 .453-.543.514.514 0 0 1 .543.453 3.723 3.723 0 0 0 1.223 2.533 4.865 4.865 0 0 0 3.66.8.5.5 0 1 1 .1 1q-.489.047-.938.047z"/></g><rect fill="#fe7058" height="7.529" rx="1.519" width="50.225" x="10.564" y="31.302"/><g fill="#323c6b"><path d="m59.27 39.331h-47.187a2.021 2.021 0 0 1 -2.019-2.019v-4.49a2.021 2.021 0 0 1 2.019-2.02h47.187a2.022 2.022 0 0 1 2.02 2.02v4.49a2.022 2.022 0 0 1 -2.02 2.019zm-47.187-7.531a1.02 1.02 0 0 0 -1.019 1.02v4.49a1.02 1.02 0 0 0 1.019 1.019h47.187a1.02 1.02 0 0 0 1.02-1.019v-4.49a1.021 1.021 0 0 0 -1.02-1.02z"/><path d="m13.157 15.281a.5.5 0 0 1 -.439-.738q.135-.25.276-.5a.5.5 0 0 1 .865.5c-.091.156-.177.313-.263.47a.5.5 0 0 1 -.439.268z"/><path d="m14.844 12.579a.5.5 0 0 1 -.4-.8 26.43 26.43 0 0 1 6.92-6.294.5.5 0 1 1 .531.847 25.443 25.443 0 0 0 -6.658 6.057.5.5 0 0 1 -.393.19z"/><path d="m58.91 31.8h-46.474a.5.5 0 0 1 -.5-.5v-3.242a23.218 23.218 0 0 1 23.554-23.432h.386a23.283 23.283 0 0 1 15.692 5.812q.456.411.887.844a23.521 23.521 0 0 1 6.955 16.776v3.242a.5.5 0 0 1 -.5.5zm-45.975-1h45.475v-2.742a22.532 22.532 0 0 0 -6.661-16.068q-.416-.416-.851-.809a22.287 22.287 0 0 0 -15.022-5.555h-.386a22.292 22.292 0 0 0 -15.5 5.978 22.524 22.524 0 0 0 -7.052 16.454z"/></g><path d="m13.95 19.793h20.756v5.44h-22.1a18.745 18.745 0 0 1 1.344-5.44z" fill="#ea6453"/><path d="m34.706 25.732h-22.1a.5.5 0 0 1 -.5-.568 19.264 19.264 0 0 1 1.394-5.584.5.5 0 0 1 .452-.287h20.754a.5.5 0 0 1 .5.5v5.44a.5.5 0 0 1 -.5.499zm-21.524-1h21.024v-4.44h-19.933a17.828 17.828 0 0 0 -1.091 4.44z" fill="#323c6b"/><path d="m57.4 19.793h-20.764v5.44h22.1a18.269 18.269 0 0 0 -1.336-5.44z" fill="#ea6453"/><path d="m58.74 25.732h-22.1a.5.5 0 0 1 -.5-.5v-5.44a.5.5 0 0 1 .5-.5h20.76a.5.5 0 0 1 .45.283 18.49 18.49 0 0 1 1.392 5.613.5.5 0 0 1 -.5.544zm-21.6-1h21.043a18.2 18.2 0 0 0 -1.107-4.44h-19.939z" fill="#323c6b"/><path d="m31.986 17.4v-12.213a1.082 1.082 0 0 1 1.077-1.087h5.22a1.082 1.082 0 0 1 1.077 1.09v12.2" fill="#ea6453"/><path d="m31.986 17.9a.5.5 0 0 1 -.5-.5v-12.213a1.585 1.585 0 0 1 1.577-1.587h5.22a1.585 1.585 0 0 1 1.576 1.59v12.2a.5.5 0 1 1 -1 0v-12.203a.584.584 0 0 0 -.576-.59h-5.22a.584.584 0 0 0 -.577.59v12.213a.5.5 0 0 1 -.5.5z" fill="#323c6b"/><circle cx="35.673" cy="21.971" fill="#e1e6e9" r="6.555"/><path d="m35.673 15.415a6.548 6.548 0 0 0 -5.686 3.3 6.55 6.55 0 0 1 9.934 8.241 6.552 6.552 0 0 0 -4.248-11.542z" fill="#d5d6db"/><path d="m35.673 29.026a7.055 7.055 0 1 1 7.056-7.055 7.063 7.063 0 0 1 -7.056 7.055zm0-13.111a6.055 6.055 0 1 0 6.056 6.056 6.063 6.063 0 0 0 -6.056-6.056z" fill="#323c6b"/><path d="m30.614 35.762h-8.438a.7.7 0 1 1 0-1.391h8.438a.7.7 0 1 1 0 1.391z" fill="#fff"/><path d="m19.525 35.762h-.591a.7.7 0 1 1 0-1.391h.591a.7.7 0 1 1 0 1.391z" fill="#fff"/></g></svg>