<svg height="512" viewBox="0 0 74 74" width="512" xmlns="http://www.w3.org/2000/svg"><g id="line_color" data-name="line color"><rect fill="#9297ab" height="18.112" rx="2.392" width="59.117" x="7.151" y="6.683"/><path d="m63.876 6.683h-54.333a2.392 2.392 0 0 0 -2.392 2.392v.025h54.142a2.392 2.392 0 0 1 2.392 2.392v13.3h.191a2.392 2.392 0 0 0 2.392-2.392v-13.325a2.392 2.392 0 0 0 -2.392-2.392z" fill="#84879c"/><g fill="#e1e6e9"><path d="m13.645 2.125h7.351v4.558h-7.351z"/><path d="m13.645 24.795h7.351v6.984h-7.351z"/><path d="m13.645 49.89h7.351v20.235h-7.351z"/><path d="m52.423 2.125h7.351v4.558h-7.351z"/><path d="m52.423 24.795h7.351v6.984h-7.351z"/><path d="m52.423 49.89h7.351v20.235h-7.351z"/></g><path d="m18.6 2.125h2.4v4.56h-2.4z" fill="#d5d6db"/><path d="m18.6 24.795h2.4v6.98h-2.4z" fill="#d5d6db"/><path d="m18.6 49.895h2.4v20.23h-2.4z" fill="#d5d6db"/><path d="m57.38 24.795h2.39v6.98h-2.39z" fill="#d5d6db"/><path d="m57.38 49.895h2.39v20.23h-2.39z" fill="#d5d6db"/><g fill="#323c6b"><path d="m4.151 14.583a.5.5 0 0 1 -.5-.5v-.562a.5.5 0 0 1 1 0v.563a.5.5 0 0 1 -.5.499z"/><path d="m4.151 11.4a.5.5 0 0 1 -.5-.5v-1.825a5.868 5.868 0 0 1 5.664-5.875h.02a.5.5 0 0 1 .02 1 4.871 4.871 0 0 0 -4.7 4.872v1.828a.5.5 0 0 1 -.504.5z"/><path d="m61.242 73.625h-3.824a.5.5 0 0 1 0-1h3.824a1.033 1.033 0 0 0 1.032-1.032v-4.405a.5.5 0 0 1 1 0v4.405a2.035 2.035 0 0 1 -2.032 2.032z"/><path d="m54.844 74.5h-.656a.5.5 0 0 1 0-1h.656a.5.5 0 0 1 0 1z"/><path d="m21 7.183h-7.355a.5.5 0 0 1 -.5-.5v-4.558a.5.5 0 0 1 .5-.5h7.355a.5.5 0 0 1 .5.5v4.558a.5.5 0 0 1 -.5.5zm-6.852-1h6.352v-3.558h-6.355z"/><path d="m21 32.278h-7.355a.5.5 0 0 1 -.5-.5v-6.983a.5.5 0 0 1 .5-.5h7.355a.5.5 0 0 1 .5.5v6.983a.5.5 0 0 1 -.5.5zm-6.852-1h6.352v-5.983h-6.355z"/><path d="m21 70.625h-7.355a.5.5 0 0 1 -.5-.5v-20.234a.5.5 0 0 1 .5-.5h7.355a.5.5 0 0 1 .5.5v20.234a.5.5 0 0 1 -.5.5zm-6.852-1h6.352v-19.234h-6.355z"/><path d="m59.774 32.278h-7.351a.5.5 0 0 1 -.5-.5v-6.983a.5.5 0 0 1 .5-.5h7.352a.5.5 0 0 1 .5.5v6.983a.5.5 0 0 1 -.501.5zm-6.852-1h6.352v-5.983h-6.351z"/><path d="m59.774 70.625h-7.351a.5.5 0 0 1 -.5-.5v-20.234a.5.5 0 0 1 .5-.5h7.352a.5.5 0 0 1 .5.5v20.234a.5.5 0 0 1 -.501.5zm-6.852-1h6.352v-19.234h-6.351z"/></g><path d="m24.88 6.683-6.691 18.112h-6.398l6.702-18.112z" fill="#fcd462"/><path d="m43.254 6.683-6.691 18.112h-6.398l6.701-18.112z" fill="#fcd462"/><path d="m61.628 6.683-6.701 18.112h-6.388l6.691-18.112z" fill="#fcd462"/><path d="m63.876 25.295h-54.333a2.9 2.9 0 0 1 -2.892-2.895v-13.325a2.9 2.9 0 0 1 2.892-2.892h54.333a2.9 2.9 0 0 1 2.893 2.893v13.324a2.9 2.9 0 0 1 -2.893 2.895zm-54.333-18.112a1.894 1.894 0 0 0 -1.892 1.892v13.325a1.894 1.894 0 0 0 1.892 1.893h54.333a1.9 1.9 0 0 0 1.893-1.893v-13.325a1.9 1.9 0 0 0 -1.893-1.893z" fill="#323c6b"/><path d="m24.369 8.124c.108-.31.119-.644.2-.96a4.442 4.442 0 0 1 .192-.523h-6.583a6.1 6.1 0 0 0 -.47 1.122 7.642 7.642 0 0 0 -.124 1.037 1.968 1.968 0 0 1 -.062.259h6.352a4.342 4.342 0 0 0 .495-.935z" fill="#f7be56"/><path d="m61.893 6.641h-6.793c-.194.555-.51 1.052-.7 1.617-.091.267-.158.535-.23.8h6.792a14.287 14.287 0 0 1 .931-2.417z" fill="#f7be56"/><path d="m42.674 7.516a5.082 5.082 0 0 1 .489-.875h-6.252a9.357 9.357 0 0 1 -.627 2.417h6.054a6.687 6.687 0 0 1 .336-1.542z" fill="#f7be56"/><path d="m18.188 25.295h-6.4a.5.5 0 0 1 -.469-.673l6.7-18.112a.5.5 0 0 1 .469-.327h6.389a.5.5 0 0 1 .469.673l-6.689 18.112a.5.5 0 0 1 -.469.327zm-5.68-1h5.332l6.323-17.112h-5.323z" fill="#323c6b"/><path d="m36.563 25.295h-6.4a.5.5 0 0 1 -.469-.673l6.706-18.113a.5.5 0 0 1 .469-.327h6.388a.5.5 0 0 1 .469.673l-6.695 18.113a.5.5 0 0 1 -.468.327zm-5.68-1h5.331l6.322-17.112h-5.322z" fill="#323c6b"/><path d="m54.927 25.295h-6.388a.5.5 0 0 1 -.469-.673l6.692-18.113a.5.5 0 0 1 .469-.327h6.4a.5.5 0 0 1 .469.673l-6.7 18.113a.5.5 0 0 1 -.473.327zm-5.67-1h5.322l6.331-17.112h-5.331z" fill="#323c6b"/><rect fill="#9297ab" height="18.112" rx="2.392" width="59.117" x="7.151" y="31.799"/><path d="m63.876 31.8h-54.333a2.392 2.392 0 0 0 -2.392 2.392v.024h54.142a2.392 2.392 0 0 1 2.392 2.392v13.3h.191a2.392 2.392 0 0 0 2.392-2.392v-13.324a2.392 2.392 0 0 0 -2.392-2.392z" fill="#84879c"/><path d="m24.88 31.799-6.691 18.112h-6.398l6.702-18.112z" fill="#fcd462"/><path d="m43.254 31.799-6.691 18.112h-6.398l6.701-18.112z" fill="#fcd462"/><path d="m61.628 31.799-6.701 18.112h-6.388l6.691-18.112z" fill="#fcd462"/><path d="m63.876 50.412h-54.333a2.9 2.9 0 0 1 -2.892-2.893v-13.327a2.9 2.9 0 0 1 2.892-2.892h54.333a2.9 2.9 0 0 1 2.893 2.893v13.326a2.9 2.9 0 0 1 -2.893 2.893zm-54.333-18.112a1.894 1.894 0 0 0 -1.892 1.893v13.326a1.894 1.894 0 0 0 1.892 1.893h54.333a1.9 1.9 0 0 0 1.893-1.893v-13.327a1.9 1.9 0 0 0 -1.893-1.892z" fill="#323c6b"/><path d="m24.369 33.24c.108-.31.119-.644.2-.96a4.442 4.442 0 0 1 .192-.523h-6.583a6.1 6.1 0 0 0 -.47 1.122 7.642 7.642 0 0 0 -.124 1.035 1.968 1.968 0 0 1 -.062.259h6.352a4.342 4.342 0 0 0 .495-.933z" fill="#f7be56"/><path d="m61.893 31.758h-6.793c-.194.555-.51 1.052-.7 1.617-.091.267-.158.535-.23.8h6.792a14.287 14.287 0 0 1 .931-2.417z" fill="#f7be56"/><path d="m42.674 32.633a5.082 5.082 0 0 1 .489-.875h-6.252a9.357 9.357 0 0 1 -.627 2.417h6.054a6.687 6.687 0 0 1 .336-1.542z" fill="#f7be56"/><path d="m18.188 50.412h-6.4a.5.5 0 0 1 -.469-.673l6.7-18.112a.5.5 0 0 1 .469-.327h6.389a.5.5 0 0 1 .469.673l-6.689 18.112a.5.5 0 0 1 -.469.327zm-5.68-1h5.332l6.323-17.112h-5.323z" fill="#323c6b"/><path d="m36.563 50.412h-6.4a.5.5 0 0 1 -.469-.673l6.7-18.112a.5.5 0 0 1 .469-.327h6.388a.5.5 0 0 1 .469.673l-6.689 18.112a.5.5 0 0 1 -.468.327zm-5.68-1h5.331l6.322-17.112h-5.322z" fill="#323c6b"/><path d="m54.927 50.412h-6.388a.5.5 0 0 1 -.469-.673l6.691-18.112a.5.5 0 0 1 .469-.327h6.4a.5.5 0 0 1 .469.673l-6.699 18.112a.5.5 0 0 1 -.473.327zm-5.67-1h5.322l6.331-17.112h-5.331z" fill="#323c6b"/><path d="m26.858 36.821-2.751 6.779a.65.65 0 1 1 -1.2-.488l2.75-6.784a.65.65 0 1 1 1.2.488z" fill="#fff"/><path d="m23.16 45.907-.282.625a.65.65 0 1 1 -1.2-.488l.282-.625a.65.65 0 1 1 1.2.488z" fill="#fff"/><path d="m57.375 2.125h2.4v4.56h-2.4z" fill="#d5d6db"/><path d="m59.774 7.183h-7.351a.5.5 0 0 1 -.5-.5v-4.558a.5.5 0 0 1 .5-.5h7.352a.5.5 0 0 1 .5.5v4.558a.5.5 0 0 1 -.501.5zm-6.852-1h6.352v-3.558h-6.351z" fill="#323c6b"/></g></svg>