<svg height="512" viewBox="0 0 74 74" width="512" xmlns="http://www.w3.org/2000/svg"><g id="line_color" data-name="line color"><path d="m62.157 61.56c-7.279 10.258-43.036 10.258-50.314 0-6.463-9.101 10.742-33.46 16.483-41.043h17.348c5.741 7.583 22.946 31.942 16.483 41.043z" fill="#fcd462"/><path d="m48.312 7.611-3.8 9.243h-15.028l-3.8-9.243a1.888 1.888 0 0 1 2.325-2.562l1.841.617a2.009 2.009 0 0 0 1.205 0l5.345-1.794a1.978 1.978 0 0 1 1.2 0l5.343 1.794a2.009 2.009 0 0 0 1.205 0l1.841-.617a1.888 1.888 0 0 1 2.323 2.562z" fill="#fcd462"/><path d="m45.674 20.517h-2.2c6.712 9.155 21.026 30.664 15.037 39.092s-31.126 9.923-43.976 4.52c10.93 7.6 41.013 6.744 47.622-2.57 6.463-9.1-10.742-33.459-16.483-41.042z" fill="#f7be56"/><path d="m45.987 5.048-.941.315a1.857 1.857 0 0 1 .57 2.247l-3.8 9.243h2.7l3.8-9.243a1.888 1.888 0 0 0 -2.329-2.562z" fill="#f7be56"/><circle cx="37" cy="46.053" fill="#eeefee" r="10.545"/><path d="m47.54 46.05a10.535 10.535 0 0 1 -18.96 6.34 10.539 10.539 0 0 0 15.05-14.52 10.456 10.456 0 0 1 3.91 8.18z" fill="#e1e6e9"/><g fill="#323c6b"><path d="m37 51.946a3.2 3.2 0 0 1 -3.2-3.2.5.5 0 0 1 1 0 2.2 2.2 0 1 0 2.2-2.2 3.2 3.2 0 1 1 3.2-3.2.5.5 0 0 1 -1 0 2.2 2.2 0 1 0 -2.2 2.2 3.2 3.2 0 0 1 0 6.394z"/><path d="m37 41.159a.5.5 0 0 1 -.5-.5v-.707a.5.5 0 0 1 1 0v.707a.5.5 0 0 1 -.5.5z"/><path d="m37 52.653a.5.5 0 0 1 -.5-.5v-.707a.5.5 0 0 1 1 0v.707a.5.5 0 0 1 -.5.5z"/><path d="m32.018 72.04h-.258a.5.5 0 0 1 .008-1h.008.652a.532.532 0 0 1 .511.489.5.5 0 0 1 -.489.511c-.143-.002-.288 0-.432 0z"/><path d="m29.133 71.857a.492.492 0 0 1 -.061 0 44.565 44.565 0 0 1 -8.816-2.126.5.5 0 1 1 .32-.947 43.557 43.557 0 0 0 8.615 2.081.5.5 0 0 1 -.059 1z"/><path d="m48.842 13.968a.5.5 0 0 1 -.462-.69l.244-.593a.5.5 0 1 1 .924.381l-.244.593a.5.5 0 0 1 -.462.309z"/><path d="m50.007 11.331a.5.5 0 0 1 -.458-.7l.9-2.053a4.214 4.214 0 0 0 -.3-4.031.5.5 0 1 1 .842-.547 5.207 5.207 0 0 1 .373 4.98l-.9 2.049a.5.5 0 0 1 -.457.302z"/><path d="m37 69.753c-9.206 0-21.426-2.07-25.565-7.9-6.75-9.505 10.917-34.271 16.493-41.634a.5.5 0 0 1 .4-.2h17.346a.5.5 0 0 1 .4.2c5.576 7.364 23.243 32.129 16.492 41.634-4.14 5.83-16.36 7.9-25.566 7.9zm-8.425-48.736c-4.208 5.583-22.765 31.183-16.325 40.253 3.226 4.546 12.94 7.483 24.75 7.483s21.524-2.937 24.749-7.483c6.441-9.07-12.116-34.67-16.324-40.253z"/><path d="m44.516 17.354h-15.032a.5.5 0 0 1 -.463-.31l-3.795-9.244a2.388 2.388 0 0 1 2.946-3.227l1.842.617a1.5 1.5 0 0 0 .895 0l5.334-1.79a2.485 2.485 0 0 1 1.506 0l5.351 1.8a1.5 1.5 0 0 0 .895 0l1.833-.615a2.389 2.389 0 0 1 2.944 3.233l-3.793 9.236a.5.5 0 0 1 -.463.3zm-14.7-1h14.365l3.668-8.933.007-.015a1.389 1.389 0 0 0 -1.711-1.883l-1.845.617a2.516 2.516 0 0 1 -1.516 0l-5.351-1.8a1.471 1.471 0 0 0 -.885 0l-5.329 1.8a2.516 2.516 0 0 1 -1.516 0l-1.849-.62a1.388 1.388 0 0 0 -1.71 1.883z"/></g><path d="m47.239 18.562a2.014 2.014 0 0 1 -.54 1.386 1.824 1.824 0 0 1 -1.314.569h-16.771a1.9 1.9 0 0 1 -1.853-1.955 1.99 1.99 0 0 1 .54-1.376 1.824 1.824 0 0 1 1.314-.569h16.771a1.9 1.9 0 0 1 1.853 1.945z" fill="#d5d6db"/><path d="m45.386 21.017h-16.772a2.408 2.408 0 0 1 -2.354-2.455 2.482 2.482 0 0 1 .678-1.72 2.325 2.325 0 0 1 1.676-.726h16.772a2.4 2.4 0 0 1 2.354 2.446 2.494 2.494 0 0 1 -.678 1.729 2.324 2.324 0 0 1 -1.676.726zm-16.771-3.9a1.33 1.33 0 0 0 -.955.418 1.484 1.484 0 0 0 -.4 1.027 1.408 1.408 0 0 0 1.354 1.455h16.772a1.331 1.331 0 0 0 .955-.418 1.517 1.517 0 0 0 .4-1.037 1.4 1.4 0 0 0 -1.354-1.446z" fill="#323c6b"/><path d="m20.4 39.8a.618.618 0 0 1 -.59-.8c.068-.219.137-.438.212-.658a.617.617 0 0 1 1.168.4c-.071.207-.137.413-.2.619a.618.618 0 0 1 -.59.439z" fill="#fff"/><path d="m21.6 36.715a.617.617 0 0 1 -.559-.878 60.339 60.339 0 0 1 5.551-9 .617.617 0 0 1 .988.74 58.991 58.991 0 0 0 -5.421 8.784.616.616 0 0 1 -.559.354z" fill="#fff"/><path d="m37 57.1a11.045 11.045 0 1 1 11.045-11.047 11.058 11.058 0 0 1 -11.045 11.047zm0-21.09a10.045 10.045 0 1 0 10.045 10.043 10.056 10.056 0 0 0 -10.045-10.045z" fill="#323c6b"/></g></svg>