<svg height="512" viewBox="0 0 74 74" width="512" xmlns="http://www.w3.org/2000/svg"><g id="line_color" data-name="line color"><path d="m68.978 47.566-3.112-16.592-5.266-7.224-1.516-10.272-11.64-4.027-9.481-5.56-9.481 5.56-11.64 4.027-1.517 10.272-5.266 7.224-5.037 16.592 3.279 4.147-5.301 9.056v9.34h68v-9.34l-5.301-9.056z" fill="#e1e6e9"/><path d="m65.699 51.713 3.279-4.147-3.112-16.592-5.266-7.224-1.516-10.272-11.64-4.027-9.481-5.56-9.481 5.56-11.64 4.027-.222 1.502 9.028-3.123 9.481-5.56 9.481 5.56 11.64 4.027 1.517 10.272 5.266 7.224 3.112 16.592-3.279 4.147 5.301 9.056v6.934h2.833v-9.34z" fill="#d5d6db"/><g fill="#323c6b"><path d="m24.125 20.1a.5.5 0 0 1 -.322-.117l-7.283-6.121a.5.5 0 0 1 .644-.766l6.989 5.874 3.186-2.228a.5.5 0 1 1 .573.819l-3.5 2.448a.5.5 0 0 1 -.287.091z"/><path d="m62.75 64.5a.5.5 0 0 1 -.291-.093l-7.334-5.25a.5.5 0 1 1 .582-.813l7.113 5.092 8-3.132a.5.5 0 1 1 .364.931l-8.25 3.231a.49.49 0 0 1 -.184.034z"/><path d="m65.866 31.474h-5.991a.5.5 0 0 1 -.359-.152l-4.459-4.6a.5.5 0 1 1 .718-.7l4.312 4.447h5.78a.5.5 0 0 1 0 1z"/><path d="m14.75 48.522a.5.5 0 0 1 -.427-.24l-2.142-3.515-6.947 3.252a.5.5 0 0 1 -.424-.905l7.353-3.441a.5.5 0 0 1 .639.192l2.375 3.9a.5.5 0 0 1 -.426.76z"/><path d="m43.125 19.125a.5.5 0 0 1 -.436-.253l-2.625-4.625a.5.5 0 0 1 .161-.665l6.945-4.549a.5.5 0 0 1 .548.837l-6.551 4.291 2.394 4.217a.5.5 0 0 1 -.435.747z"/><path d="m20.75 66.25a.5.5 0 0 1 -.352-.145l-6.078-6.005-11.268 1.167a.5.5 0 1 1 -.1-1l11.5-1.192a.5.5 0 0 1 .4.142l6.248 6.178a.5.5 0 0 1 -.352.855z"/><path d="m13.29 17.506a.541.541 0 0 1 -.074-.005.5.5 0 0 1 -.421-.568l.075-.506a.5.5 0 1 1 .989.146l-.075.506a.5.5 0 0 1 -.494.427z"/><path d="m13.708 14.667a.473.473 0 0 1 -.074-.005.5.5 0 0 1 -.421-.568l.433-2.928a.5.5 0 0 1 .331-.4l8.093-2.8a.5.5 0 0 1 .327.945l-7.806 2.7-.391 2.629a.5.5 0 0 1 -.492.427z"/><path d="m70.555 40.854a.5.5 0 0 1 -.491-.408l-.094-.5a.5.5 0 1 1 .982-.185l.094.5a.5.5 0 0 1 -.4.583.505.505 0 0 1 -.091.01z"/><path d="m69.323 52.466a.5.5 0 0 1 -.392-.81l2.712-3.431-1.095-5.672a.5.5 0 0 1 .981-.189l1.138 5.9a.5.5 0 0 1 -.1.4l-2.854 3.61a.5.5 0 0 1 -.39.192z"/></g><path d="m27.328 70.109v-32.491h21.51v32.491h4.912v-33.567a4.125 4.125 0 0 0 -4.125-4.125h-23.083a4.125 4.125 0 0 0 -4.125 4.125v33.567z" fill="#e7aa6c"/><path d="m49.625 32.417h-23.083a4.12 4.12 0 0 0 -3.759 2.443 4.087 4.087 0 0 1 1.384-.255h23.083a4.125 4.125 0 0 1 4.125 4.125v31.38h2.375v-33.568a4.125 4.125 0 0 0 -4.125-4.125z" fill="#d09865"/><path d="m27.328 37.618h21.51v32.491h-21.51z" fill="#bbbbcd"/><path d="m48.838 70.609h-21.509a.5.5 0 0 1 -.5-.5v-32.491a.5.5 0 0 1 .5-.5h21.509a.5.5 0 0 1 .5.5v32.491a.5.5 0 0 1 -.5.5zm-21.009-1h20.509v-31.491h-20.509z" fill="#323c6b"/><path d="m43.971 62.27 4.867 7.839h-21.51l4.868-7.839z" fill="#62667c"/><path d="m48.838 70.609h-21.509a.5.5 0 0 1 -.425-.764l4.867-7.839a.5.5 0 0 1 .425-.236h11.775a.5.5 0 0 1 .425.236l4.867 7.839a.5.5 0 0 1 -.425.764zm-20.61-1h19.711l-4.247-6.839h-11.218z" fill="#323c6b"/><path d="m38.083 43.853a5.888 5.888 0 0 0 -5.883 5.887v12.53h11.771v-12.53a5.888 5.888 0 0 0 -5.888-5.887z" fill="#84879c"/><g fill="#323c6b"><path d="m43.971 62.77h-11.771a.5.5 0 0 1 -.5-.5v-12.53a6.387 6.387 0 1 1 12.775 0v12.53a.5.5 0 0 1 -.504.5zm-11.275-1h10.775v-12.03a5.387 5.387 0 1 0 -10.775 0z"/><path d="m71 70.609h-68a.5.5 0 0 1 -.5-.5v-9.34a.5.5 0 0 1 .068-.252l5.132-8.762-3.07-3.879a.5.5 0 0 1 -.086-.455l5.037-16.592a.488.488 0 0 1 .075-.149l5.193-7.124 1.5-10.151a.5.5 0 0 1 .331-.4l11.64-4.026 9.392-5.52a.5.5 0 0 1 .506 0l9.482 5.562 11.55 3.985a.5.5 0 0 1 .331.4l1.5 10.151 5.193 7.124a.5.5 0 0 1 .087.2l3.112 16.593a.5.5 0 0 1 -.1.4l-3.073 3.881 5.128 8.762a.5.5 0 0 1 .068.252v9.34a.5.5 0 0 1 -.496.5zm-67.5-1h67v-8.709l-5.232-8.939a.5.5 0 0 1 .04-.562l3.138-3.968-3.046-16.254-5.2-7.132a.5.5 0 0 1 -.091-.221l-1.472-9.972-11.357-3.928-9.317-5.454-9.228 5.413-11.443 3.968-1.472 9.973a.5.5 0 0 1 -.091.221l-5.215 7.155-4.938 16.261 3.117 3.939a.5.5 0 0 1 .04.563l-5.233 8.937z"/><path d="m53.75 70.609h-4.912a.5.5 0 0 1 -.5-.5v-31.991h-20.509v31.991a.5.5 0 0 1 -.5.5h-4.912a.5.5 0 0 1 -.5-.5v-33.567a4.631 4.631 0 0 1 4.625-4.625h23.083a4.631 4.631 0 0 1 4.625 4.625v33.567a.5.5 0 0 1 -.5.5zm-4.412-1h3.912v-33.067a3.629 3.629 0 0 0 -3.625-3.625h-23.083a3.629 3.629 0 0 0 -3.625 3.625v33.067h3.912v-31.991a.5.5 0 0 1 .5-.5h21.509a.5.5 0 0 1 .5.5z"/></g><path d="m35.1 41h-.75a.65.65 0 1 1 0-1.3h.75a.65.65 0 0 1 0 1.3z" fill="#fff"/><path d="m29.745 47.862a.65.65 0 0 1 -.65-.65v-6.858a.65.65 0 0 1 .65-.65h2.455a.65.65 0 1 1 0 1.3h-1.8v6.208a.65.65 0 0 1 -.655.65z" fill="#fff"/></g></svg>