<svg height="512" viewBox="0 0 74 74" width="512" xmlns="http://www.w3.org/2000/svg"><g id="line_color" data-name="line color"><path d="m62.8 52.868h6.37a1.829 1.829 0 0 0 1.83-1.837v-9.4a1.822 1.822 0 0 0 -.375-1.115l-9.148-11.922a1.827 1.827 0 0 0 -1.453-.722h-12.824a1.835 1.835 0 0 0 -1.828 1.837v23.159h8.2" fill="#e1e6e9"/><path d="m66.585 40.904-7.455-9.716h-10.407v9.716z" fill="#89c5cd"/><path d="m66.584 41.4h-17.861a.5.5 0 0 1 -.5-.5v-9.712a.5.5 0 0 1 .5-.5h10.407a.5.5 0 0 1 .4.2l7.451 9.712a.5.5 0 0 1 -.4.8zm-17.362-1h16.349l-6.687-8.717h-9.661z" fill="#323c6b"/><path d="m26.432 52.868h18.941v-8.314h-34.975v8.314h6.804" fill="#e1e6e9"/><path d="m70.625 40.512-9.148-11.918a1.827 1.827 0 0 0 -1.453-.722h-2.75a1.827 1.827 0 0 1 1.453.722l9.149 11.918a1.822 1.822 0 0 1 .375 1.115v9.4a1.829 1.829 0 0 1 -1.828 1.837h2.75a1.829 1.829 0 0 0 1.827-1.833v-9.4a1.822 1.822 0 0 0 -.375-1.119z" fill="#d5d6db"/><path d="m17.202 50.521h-6.804v2.347h6.804 9.23 18.941v-2.347h-18.941z" fill="#d5d6db"/><path d="m45.373 50.521h23.627v2.348h-23.627z" fill="#d5d6db"/><path d="m53.817 44.6h-2.43a.5.5 0 0 1 0-1h2.43a.5.5 0 0 1 0 1z" fill="#323c6b"/><path d="m18.315 40.84h20.59a1.872 1.872 0 0 1 1.872 1.872v1.841a0 0 0 0 1 0 0h-24.334a0 0 0 0 1 0 0v-1.84a1.872 1.872 0 0 1 1.872-1.873z" fill="#dbd8dd"/><path d="m40.778 45.054h-24.335a.5.5 0 0 1 -.5-.5v-1.841a2.375 2.375 0 0 1 2.373-2.373h20.59a2.375 2.375 0 0 1 2.372 2.373v1.841a.5.5 0 0 1 -.5.5zm-23.835-1h23.335v-1.341a1.374 1.374 0 0 0 -1.372-1.373h-20.591a1.374 1.374 0 0 0 -1.373 1.373z" fill="#323c6b"/><path d="m33.926 37.486h-10.632l-2.149 3.354h14.93z" fill="#fcd462"/><path d="m31.75 37.486h-6.672v-7.1l-19.935-7.205a3.462 3.462 0 0 1 -1.883-4.514 3.462 3.462 0 0 1 4.512-1.892l22.228 8.05a2.827 2.827 0 0 1 1.75 2.615z" fill="#fcd462"/><path d="m33.926 37.486h-1.958l2.149 3.354h1.958z" fill="#f7be56"/><path d="m30 24.825-22.228-8.05a3.451 3.451 0 0 0 -3.945.986 3.44 3.44 0 0 1 1.954.191l22.225 8.048a2.827 2.827 0 0 1 1.754 2.615v8.869h1.99v-10.044a2.827 2.827 0 0 0 -1.75-2.615z" fill="#f7be56"/><circle cx="7.328" cy="20.338" fill="#fff" r="1.385"/><path d="m7.329 22.224a1.885 1.885 0 1 1 1.885-1.885 1.887 1.887 0 0 1 -1.885 1.885zm0-2.771a.885.885 0 1 0 .885.885.886.886 0 0 0 -.885-.885z" fill="#323c6b"/><path d="m8.819 24.509v2.477a2.3 2.3 0 1 1 -4.6 0v-4.361z" fill="#fcd462"/><g fill="#323c6b"><path d="m6.521 29.785a2.784 2.784 0 0 1 -2.8-2.8v-4.36a.5.5 0 0 1 .689-.463l4.6 1.884a.5.5 0 0 1 .311.463v2.478a2.8 2.8 0 0 1 -2.8 2.798zm-1.8-6.415v3.616a1.8 1.8 0 0 0 3.6 0v-2.141z"/><path d="m6.521 48.423a.5.5 0 0 1 -.5-.5v-18.634a.5.5 0 0 1 1 0v18.634a.5.5 0 0 1 -.5.5z"/><path d="m69.666 56.318a.5.5 0 0 1 -.051-1 4.311 4.311 0 0 0 3.885-4.29.5.5 0 0 1 1 0 5.309 5.309 0 0 1 -4.782 5.285z"/><path d="m66.917 56.369h-.875a.5.5 0 0 1 0-1h.875a.5.5 0 0 1 0 1z"/><path d="m.666 23.3a.5.5 0 0 1 -.448-.277 6.351 6.351 0 0 1 -.262-.6.5.5 0 1 1 .937-.352 5.21 5.21 0 0 0 .22.5.5.5 0 0 1 -.224.67.494.494 0 0 1 -.223.059z"/><path d="m.019 20.833a.5.5 0 0 1 -.5-.472 6.916 6.916 0 0 1 3.416-6.379.5.5 0 1 1 .5.864 5.914 5.914 0 0 0 -2.917 5.459.5.5 0 0 1 -.471.527z"/><path d="m69.172 53.369h-6.372a.5.5 0 0 1 0-1h6.37a1.334 1.334 0 0 0 1.33-1.338v-9.4a1.333 1.333 0 0 0 -.271-.81l-9.149-11.921a1.334 1.334 0 0 0 -1.057-.526h-12.823a1.334 1.334 0 0 0 -1.328 1.337v22.66h7.7a.5.5 0 0 1 0 1h-8.2a.5.5 0 0 1 -.5-.5v-23.162a2.335 2.335 0 0 1 2.328-2.337h12.823a2.339 2.339 0 0 1 1.851.919l9.147 11.916a2.335 2.335 0 0 1 .478 1.42v9.4a2.335 2.335 0 0 1 -2.327 2.342z"/><path d="m45.373 53.369h-18.94a.5.5 0 0 1 0-1h18.44v-7.315h-33.973v7.315h6.3a.5.5 0 1 1 0 1h-6.8a.5.5 0 0 1 -.5-.5v-8.315a.5.5 0 0 1 .5-.5h34.973a.5.5 0 0 1 .5.5v8.315a.5.5 0 0 1 -.5.5z"/></g><circle cx="58.187" cy="52.867" fill="#707583" r="4.95"/><path d="m58.187 58.317a5.45 5.45 0 1 1 5.451-5.451 5.457 5.457 0 0 1 -5.451 5.451zm0-9.9a4.45 4.45 0 1 0 4.451 4.45 4.456 4.456 0 0 0 -4.451-4.45z" fill="#323c6b"/><circle cx="58.187" cy="52.867" fill="#bbbbcd" r="2.534"/><path d="m58.187 55.9a3.033 3.033 0 1 1 3.034-3.034 3.037 3.037 0 0 1 -3.034 3.034zm0-5.067a2.033 2.033 0 1 0 2.034 2.033 2.036 2.036 0 0 0 -2.034-2.033z" fill="#323c6b"/><circle cx="21.814" cy="52.867" fill="#707583" r="4.95"/><path d="m21.814 58.317a5.45 5.45 0 1 1 5.45-5.451 5.457 5.457 0 0 1 -5.45 5.451zm0-9.9a4.45 4.45 0 1 0 4.45 4.45 4.456 4.456 0 0 0 -4.45-4.45z" fill="#323c6b"/><circle cx="21.814" cy="52.867" fill="#bbbbcd" r="2.534"/><g fill="#323c6b"><path d="m21.814 55.9a3.033 3.033 0 1 1 3.034-3.034 3.037 3.037 0 0 1 -3.034 3.034zm0-5.067a2.033 2.033 0 1 0 2.034 2.033 2.036 2.036 0 0 0 -2.034-2.033z"/><path d="m36.075 41.34h-14.929a.5.5 0 0 1 -.421-.77l2.149-3.354a.5.5 0 0 1 .421-.23h10.631a.5.5 0 0 1 .421.23l2.153 3.355a.5.5 0 0 1 -.421.77zm-14.016-1h13.1l-1.508-2.354h-10.083z"/><path d="m31.75 37.986h-6.672a.5.5 0 0 1 -.5-.5v-6.748l-19.6-7.087a3.962 3.962 0 1 1 2.982-7.339l22.207 8.043a3.321 3.321 0 0 1 2.083 3.085v10.046a.5.5 0 0 1 -.5.5zm-6.172-1h5.672v-9.546a2.319 2.319 0 0 0 -1.444-2.152l-22.206-8.043a2.962 2.962 0 1 0 -2.267 5.474l19.914 7.2a.5.5 0 0 1 .33.47z"/></g><path d="m19 26.155a.652.652 0 0 1 -.221-.039l-6.379-2.306a.65.65 0 0 1 .442-1.223l6.379 2.306a.65.65 0 0 1 -.221 1.262z" fill="#fff"/><path d="m21.929 27.212a.652.652 0 0 1 -.221-.039l-.723-.261a.65.65 0 1 1 .442-1.223l.723.261a.65.65 0 0 1 -.221 1.262z" fill="#fff"/></g></svg>