<svg height="512" viewBox="0 0 74 74" width="512" xmlns="http://www.w3.org/2000/svg"><g id="line_color" data-name="line color"><path d="m28.481 25.3 4.754-3.536a1.961 1.961 0 0 1 2.359.014l5.013 3.82a1.961 1.961 0 0 1 .643 2.26l-2.125 5.552z" fill="#9297ab"/><circle cx="23.192" cy="43.305" fill="#9297ab" r="19.557" transform="matrix(.606 -.795 .795 .606 -25.309 35.503)"/><path d="m40.606 25.595-.655-.5a1.907 1.907 0 0 1 -.074.359l-1.94 5 1.495 1.981 1.817-4.577a1.961 1.961 0 0 0 -.643-2.263z" fill="#84879c"/><path d="m39.431 32.433a19.54 19.54 0 0 1 -33.85 19.344 19.544 19.544 0 1 0 33.85-19.344z" fill="#84879c"/><path d="m60.074 36.4a6.861 6.861 0 0 1 -4.764-1.941 8.88 8.88 0 0 1 -2.636-5.124 24.883 24.883 0 0 0 -1.223-4.666 6.373 6.373 0 0 0 -5.117-4.091 6.544 6.544 0 0 0 -6.225 2.522l-1.017 1.334-1.992-1.513 1.017-1.334a9.007 9.007 0 0 1 8.583-3.487 8.842 8.842 0 0 1 7.094 5.683 27.47 27.47 0 0 1 1.352 5.148 6.384 6.384 0 0 0 1.872 3.694c1.588 1.479 3.538 1.668 5.8.561l1.1 2.244a8.733 8.733 0 0 1 -3.844.97z" fill="#fcd462"/><path d="m60.074 36.9a7.4 7.4 0 0 1 -5.1-2.076 9.381 9.381 0 0 1 -2.789-5.412 24.359 24.359 0 0 0 -1.2-4.567 5.879 5.879 0 0 0 -4.721-3.773 6.053 6.053 0 0 0 -5.755 2.337l-1.019 1.331a.5.5 0 0 1 -.331.192.507.507 0 0 1 -.37-.1l-1.989-1.513a.5.5 0 0 1 -.094-.7l1.017-1.334a9.49 9.49 0 0 1 9.045-3.678 9.336 9.336 0 0 1 7.49 6 27.98 27.98 0 0 1 1.377 5.243 5.9 5.9 0 0 0 1.72 3.411c1.441 1.342 3.154 1.5 5.235.478a.5.5 0 0 1 .669.229l1.1 2.244a.5.5 0 0 1 -.229.669 9.221 9.221 0 0 1 -4.056 1.019zm-14.736-16.9a7.415 7.415 0 0 1 1.068.078 6.866 6.866 0 0 1 5.513 4.409 25.35 25.35 0 0 1 1.249 4.761 8.384 8.384 0 0 0 2.483 4.84 6.65 6.65 0 0 0 7.585 1.1l-.661-1.348a5.163 5.163 0 0 1 -5.9-.852 6.9 6.9 0 0 1 -2.025-3.982 26.951 26.951 0 0 0 -1.325-5.05 8.35 8.35 0 0 0 -6.7-5.364 8.513 8.513 0 0 0 -8.105 3.295l-.714.937 1.193.91.714-.937a7.013 7.013 0 0 1 5.625-2.797z" fill="#323c6b"/><path d="m8.188 39.868a.651.651 0 0 1 -.626-.826 5.738 5.738 0 0 1 .715-1.63.65.65 0 1 1 1.057.758 4.324 4.324 0 0 0 -.52 1.223.65.65 0 0 1 -.626.475z" fill="#fff"/><path d="m11.227 53.486a.647.647 0 0 1 -.476-.207 14.889 14.889 0 0 1 -3.911-11.5.657.657 0 0 1 .707-.588.651.651 0 0 1 .588.707 13.585 13.585 0 0 0 3.565 10.496.65.65 0 0 1 -.476 1.093z" fill="#fff"/><g fill="#323c6b"><path d="m34.5 63.4a.5.5 0 0 1 -.25-.933l.207-.118c.19-.108.381-.217.566-.334a.5.5 0 1 1 .536.844c-.2.126-.4.243-.607.36l-.2.115a.5.5 0 0 1 -.252.066z"/><path d="m23.178 66.43a.5.5 0 0 1 0-1 22.051 22.051 0 0 0 8.744-1.793.5.5 0 0 1 .395.919 23.049 23.049 0 0 1 -9.139 1.874z"/><path d="m10.6 25.025a.5.5 0 0 1 -.289-.909l.1-.071c.215-.152.431-.3.655-.443a.5.5 0 0 1 .525.851c-.206.127-.4.268-.6.408l-.1.072a.5.5 0 0 1 -.291.092z"/><path d="m13.251 23.465a.5.5 0 0 1 -.22-.949 22.985 22.985 0 0 1 10.176-2.335.5.5 0 0 1 0 1 22 22 0 0 0 -9.737 2.234.493.493 0 0 1 -.219.05z"/></g><path d="m68.081 35.219a.565.565 0 0 0 -.266.818l1.223 1.943.016.016.4.653a.563.563 0 0 1 -.752.791l-2.685-1.519a.575.575 0 0 0 -.811.307l-.978 4.4a.561.561 0 0 1 -1.084-.1l-.528-4.528a.555.555 0 0 0 -.738-.439l-3.483 1.059a.562.562 0 0 1 -.6-.91l2.643-2.327a.559.559 0 0 0 -.114-.851l-2.613-1.642a.561.561 0 0 1 .339-1.036l3.911 1.014a.556.556 0 0 0 .591-.624l-1.218-3.989a.565.565 0 0 1 1.026-.382l1.8 2.635a.566.566 0 0 0 .86.079l2.171-2.18a.563.563 0 0 1 .94.56l-.881 2.953a.564.564 0 0 0 .475.72l5.093.263a.562.562 0 0 1 .141 1.082l-3.162.8z" fill="#fe7058"/><path d="m63.709 43.5q-.048 0-.1 0a1.049 1.049 0 0 1 -.961-.9l-.532-4.546-3.575 1.046a1.062 1.062 0 0 1 -1.112-1.729l2.678-2.361-2.662-1.694a1.062 1.062 0 0 1 .64-1.958l4 1.029-1.23-3.987a1.064 1.064 0 0 1 .662-1.2 1.05 1.05 0 0 1 1.253.391l1.8 2.637 2.264-2.172a1.063 1.063 0 0 1 1.773 1.057l-.88 2.953 5.115.339a1.06 1.06 0 0 1 .963.924 1.048 1.048 0 0 1 -.665 1.123l-4.888 1.24a.072.072 0 0 0 -.024.035l1.208 1.957a.442.442 0 0 1 .039.052l.4.653a1.063 1.063 0 0 1 -1.425 1.488l-2.685-1.519-1.054 4.378a1.054 1.054 0 0 1 -1.002.764zm-1.645-6.478a1.066 1.066 0 0 1 .545.151 1.052 1.052 0 0 1 .5.747l.532 4.545.1.029.973-4.375a1.1 1.1 0 0 1 .651-.7 1.067 1.067 0 0 1 .888.062l2.697 1.519.081-.094-.38-.617a.494.494 0 0 1 -.036-.048l-1.223-1.941a1.053 1.053 0 0 1 -.112-.879 1.07 1.07 0 0 1 .608-.666.509.509 0 0 1 .071-.024l4.88-1.234-.019-.6-.026.5-5.094-.257a1.084 1.084 0 0 1 -.8-.483 1.052 1.052 0 0 1 -.125-.882l.879-2.95-.106-.064-2.171 2.18a1.1 1.1 0 0 1 -.86.3 1.056 1.056 0 0 1 -.766-.453l-1.8-2.636-.115.019 1.2 3.924a1.091 1.091 0 0 1 -.267.946 1.077 1.077 0 0 1 -.835.323l-4-1.029-.214.552.266-.423 2.612 1.642a1.049 1.049 0 0 1 .485.748 1.061 1.061 0 0 1 -.267.863l-2.682 2.366c0-.015.113.057.123.057l3.483-1.062a.983.983 0 0 1 .324-.055z" fill="#323c6b"/><path d="m65.517 34.959a.176.176 0 0 0 -.083.255l.381.6.125.2a.175.175 0 0 1 -.234.246l-.836-.473a.179.179 0 0 0 -.252.1l-.3 1.369a.175.175 0 0 1 -.337-.032l-.165-1.409a.173.173 0 0 0 -.23-.137l-1.084.331a.175.175 0 0 1 -.187-.283l.822-.724a.174.174 0 0 0 -.035-.265l-.813-.511a.175.175 0 0 1 .106-.322l1.217.316a.173.173 0 0 0 .184-.194l-.379-1.241a.176.176 0 0 1 .319-.119l.561.82a.176.176 0 0 0 .268.025l.676-.678a.175.175 0 0 1 .293.174l-.274.919a.176.176 0 0 0 .148.224l1.585.082a.175.175 0 0 1 .044.337l-.984.249z" fill="#fcd462"/><g fill="#323c6b"><path d="m39.432 32.933a.5.5 0 0 1 -.465-.685l1.816-4.577a1.466 1.466 0 0 0 -.48-1.678l-5.013-3.82a1.468 1.468 0 0 0 -1.757-.01l-3.966 2.95a.5.5 0 0 1 -.6-.8l3.966-2.95a2.471 2.471 0 0 1 2.96.018l5.013 3.82a2.473 2.473 0 0 1 .806 2.837l-1.812 4.579a.5.5 0 0 1 -.468.316z"/><path d="m23.169 63.354a20.046 20.046 0 1 1 15.976-7.892 20.037 20.037 0 0 1 -15.976 7.892zm.063-39.109a19.306 19.306 0 0 0 -2.59.175 19.057 19.057 0 1 0 17.708 30.436 19.061 19.061 0 0 0 -15.118-30.611z"/></g></g></svg>