<svg height="512" viewBox="0 0 74 74" width="512" xmlns="http://www.w3.org/2000/svg"><g id="line_color" data-name="line color"><g fill="#e1e6e9"><path d="m25.527 30.33h-18.248l3.477-11.925h11.116z"/><path d="m43.99 30.33h-18.248l3.477-11.925h11.116z"/><path d="m34.669 18.405h-18.247l3.476-11.518 11.116-.084z"/></g><path d="m20.289 20.485 3.017 9.845h2.221l-3.655-11.925h-11.116l-.607 2.08z" fill="#d5d6db"/><path d="m38.752 20.485 3.017 9.845h2.221l-3.655-11.925h-11.116l-.606 2.08z" fill="#d5d6db"/><path d="m29.431 8.883 3 9.522h2.238l-3.655-11.602-11.116.084-.625 2.073z" fill="#d5d6db"/><circle cx="51.803" cy="50.392" fill="#fcd462" r="17.863"/><path d="m51.8 68.755a18.363 18.363 0 1 1 18.367-18.363 18.384 18.384 0 0 1 -18.367 18.363zm0-35.727a17.363 17.363 0 1 0 17.367 17.364 17.383 17.383 0 0 0 -17.367-17.364z" fill="#323c6b"/><circle cx="51.803" cy="50.392" fill="#fcd462" r="13.683"/><path d="m51.8 36.708a13.669 13.669 0 0 0 -11.346 6.033 13.676 13.676 0 0 1 20.532 17.774 13.669 13.669 0 0 0 -9.186-23.807z" fill="#f7be56"/><g fill="#323c6b"><path d="m51.8 57.536a3.827 3.827 0 0 1 -3.822-3.822.5.5 0 0 1 1 0 2.822 2.822 0 1 0 2.822-2.822 3.823 3.823 0 1 1 3.822-3.822.5.5 0 0 1 -1 0 2.822 2.822 0 1 0 -2.822 2.822 3.822 3.822 0 0 1 0 7.645z"/><path d="m51.8 44.247a.5.5 0 0 1 -.5-.5v-.871a.5.5 0 0 1 1 0v.871a.5.5 0 0 1 -.5.5z"/><path d="m51.8 58.407a.5.5 0 0 1 -.5-.5v-.871a.5.5 0 0 1 1 0v.871a.5.5 0 0 1 -.5.5z"/><path d="m27.949 67.815h-18.5a.5.5 0 0 1 -.5-.5v-17.415a.5.5 0 0 1 1 0v16.915h18a.5.5 0 0 1 0 1z"/><path d="m13.173 54.632a.5.5 0 0 1 -.375-.17l-3.349-3.808-3.349 3.808a.5.5 0 1 1 -.751-.66l3.724-4.235a.516.516 0 0 1 .751 0l3.724 4.233a.5.5 0 0 1 -.375.83z"/><path d="m64.551 24.6a.5.5 0 0 1 -.5-.5v-16.915h-18a.5.5 0 0 1 0-1h18.5a.5.5 0 0 1 .5.5v17.415a.5.5 0 0 1 -.5.5z"/><path d="m64.551 24.6a.5.5 0 0 1 -.375-.17l-3.724-4.23a.5.5 0 1 1 .751-.66l3.349 3.808 3.348-3.81a.5.5 0 1 1 .751.66l-3.724 4.235a.5.5 0 0 1 -.376.167z"/><path d="m5.893 24.867a.5.5 0 0 1 -.48-.64l.18-.617a.5.5 0 1 1 .96.279l-.18.617a.5.5 0 0 1 -.48.361z"/><path d="m6.674 22.188a.5.5 0 0 1 -.48-.64l1.832-6.283a.5.5 0 0 1 .48-.36h3.026a.5.5 0 0 1 0 1h-2.652l-1.726 5.923a.5.5 0 0 1 -.48.36z"/><path d="m63.343 33.509a.5.5 0 0 1 -.289-.092c-.3-.215-.612-.42-.928-.618a.5.5 0 0 1 .53-.848q.5.311.977.65a.5.5 0 0 1 -.29.908z"/><path d="m71.313 43.524a.5.5 0 0 1 -.467-.322 20.555 20.555 0 0 0 -5.7-8.158.5.5 0 1 1 .656-.754 21.547 21.547 0 0 1 5.98 8.557.5.5 0 0 1 -.467.678z"/><path d="m25.527 30.83h-18.248a.5.5 0 0 1 -.48-.64l3.477-11.926a.5.5 0 0 1 .48-.36h11.116a.5.5 0 0 1 .478.354l3.65 11.926a.5.5 0 0 1 -.478.646zm-17.581-1h16.9l-3.346-10.93h-10.369z"/><path d="m43.99 30.83h-18.248a.5.5 0 0 1 -.48-.64l3.477-11.926a.5.5 0 0 1 .48-.36h11.116a.5.5 0 0 1 .478.354l3.655 11.926a.5.5 0 0 1 -.478.646zm-17.581-1h16.9l-3.344-10.93h-10.371z"/><path d="m34.669 18.9h-18.247a.5.5 0 0 1 -.479-.645l3.477-11.512a.5.5 0 0 1 .475-.355l11.115-.088a.548.548 0 0 1 .481.35l3.655 11.6a.5.5 0 0 1 -.477.65zm-17.569-1h16.887l-3.339-10.6-10.378.079z"/><path d="m51.8 64.575a14.183 14.183 0 1 1 14.186-14.183 14.2 14.2 0 0 1 -14.186 14.183zm0-27.366a13.183 13.183 0 1 0 13.186 13.183 13.2 13.2 0 0 0 -13.186-13.184z"/></g><path d="m44.065 58.179a.632.632 0 0 1 -.467-.2c-.24-.261-.474-.526-.689-.808a.635.635 0 0 1 1.011-.771c.19.251.4.486.612.717a.634.634 0 0 1 -.467 1.064z" fill="#fff"/><path d="m42.131 55.281a.635.635 0 0 1 -.581-.379 11.16 11.16 0 0 1 -.408-7.956.635.635 0 1 1 1.208.39 9.887 9.887 0 0 0 .361 7.054.635.635 0 0 1 -.58.891z" fill="#fff"/></g></svg>