<svg height="512" viewBox="0 0 74 74" width="512" xmlns="http://www.w3.org/2000/svg"><g id="line_color" data-name="line color"><path d="m38.645 47.727v17.52a4.75 4.75 0 0 1 -1.635 3.42 4.73 4.73 0 0 1 -1.66-3.42v-17.52" fill="#e1e6e9"/><path d="m37.01 69.167a.5.5 0 0 1 -.31-.108 5.2 5.2 0 0 1 -1.852-3.812v-17.519a.5.5 0 0 1 1 0v17.52a4.078 4.078 0 0 0 1.157 2.727 4.144 4.144 0 0 0 1.139-2.727v-17.52a.5.5 0 0 1 1 0v17.52a5.229 5.229 0 0 1 -1.821 3.809.5.5 0 0 1 -.313.11z" fill="#323c6b"/><path d="m40.807 44.587h-7.614v1.2a3.807 3.807 0 0 0 3.807 3.808 3.807 3.807 0 0 0 3.807-3.807z" fill="#d5d6db"/><path d="m37 50.095a4.313 4.313 0 0 1 -4.308-4.308v-1.2a.5.5 0 0 1 .5-.5h7.615a.5.5 0 0 1 .5.5v1.2a4.313 4.313 0 0 1 -4.307 4.308zm-3.308-5.007v.7a3.308 3.308 0 0 0 6.615 0v-.7z" fill="#323c6b"/><path d="m29.874 3h14.252a4.674 4.674 0 0 1 4.674 4.674v19.8a0 0 0 0 1 0 0h-23.6a0 0 0 0 1 0 0v-19.8a4.674 4.674 0 0 1 4.674-4.674z" fill="#fcd462"/><path d="m25.2 20.75h-2.192a1.274 1.274 0 0 1 -1.233-1.311v-8.189a1.274 1.274 0 0 1 1.233-1.311h2.192z" fill="#9297ab"/><path d="m25.2 21.25h-2.192a1.775 1.775 0 0 1 -1.733-1.811v-8.189a1.775 1.775 0 0 1 1.733-1.811h2.192a.5.5 0 0 1 .5.5v10.811a.5.5 0 0 1 -.5.5zm-2.192-10.811a.776.776 0 0 0 -.733.811v8.189a.776.776 0 0 0 .733.811h1.692v-9.811z" fill="#323c6b"/><path d="m9.045 13.243h10.628a2.1 2.1 0 0 1 2.1 2.1 2.1 2.1 0 0 1 -2.1 2.1h-10.628a0 0 0 0 1 0 0v-4.2a0 0 0 0 1 0 0z" fill="#e1e6e9" transform="matrix(-1 0 0 -1 30.819 30.689)"/><path d="m21.774 17.946h-10.628a2.6 2.6 0 1 1 0-5.2h10.628a.5.5 0 0 1 .5.5v4.2a.5.5 0 0 1 -.5.5zm-10.628-4.2a1.6 1.6 0 1 0 0 3.2h10.128v-3.2z" fill="#323c6b"/><path d="m28.714 32.645h16.572l-1.927 11.63a1.435 1.435 0 0 1 -1.413 1.188h-9.891a1.435 1.435 0 0 1 -1.413-1.188z" fill="#fcd462"/><path d="m44.126 3h-14.252a4.657 4.657 0 0 0 -4.149 2.564 4.653 4.653 0 0 1 1.775-.354h14.251a4.674 4.674 0 0 1 4.674 4.674v17.586h2.375v-19.796a4.674 4.674 0 0 0 -4.674-4.674z" fill="#f7be56"/><path d="m43.078 32.645-1.928 11.629a1.435 1.435 0 0 1 -1.413 1.188h2.208a1.435 1.435 0 0 0 1.413-1.188l1.927-11.63z" fill="#f7be56"/><path d="m54.327 13.243h10.628a0 0 0 0 1 0 0v4.2a0 0 0 0 1 0 0h-10.628a2.1 2.1 0 0 1 -2.1-2.1 2.1 2.1 0 0 1 2.1-2.1z" fill="#e1e6e9" transform="matrix(-1 0 0 -1 117.181 30.689)"/><path d="m62.854 17.946h-10.628a.5.5 0 0 1 -.5-.5v-4.2a.5.5 0 0 1 .5-.5h10.628a2.6 2.6 0 1 1 0 5.2zm-10.128-1h10.128a1.6 1.6 0 1 0 0-3.2h-10.128z" fill="#323c6b"/><path d="m50.992 20.75h-2.192v-10.811h2.192a1.274 1.274 0 0 1 1.233 1.311v8.189a1.274 1.274 0 0 1 -1.233 1.311z" fill="#9297ab"/><g fill="#323c6b"><path d="m50.992 21.25h-2.192a.5.5 0 0 1 -.5-.5v-10.811a.5.5 0 0 1 .5-.5h2.192a1.775 1.775 0 0 1 1.733 1.811v8.189a1.775 1.775 0 0 1 -1.733 1.811zm-1.692-1h1.692a.776.776 0 0 0 .733-.811v-8.189a.776.776 0 0 0 -.733-.811h-1.692z"/><circle cx="42.807" cy="8.533" r="1.708"/><circle cx="37.057" cy="8.533" r="1.708"/><path d="m23.251 36.072a.48.48 0 0 1 -.079-.006 5.075 5.075 0 0 1 -4.308-5.027v-1.962a.5.5 0 0 1 1 0v1.962a4.08 4.08 0 0 0 3.464 4.04.5.5 0 0 1 -.077.994z"/><path d="m27.045 38.875a.5.5 0 0 1 -.491-.414l-.254-1.438a.5.5 0 1 1 .984-.172l.251 1.438a.5.5 0 0 1 -.406.579.522.522 0 0 1 -.084.007z"/><path d="m61.8 10.743h-.422a.5.5 0 1 1 0-1h.422a.5.5 0 1 1 0 1z"/><path d="m67.955 15.031a.5.5 0 0 1 -.5-.5v-1.177a2.615 2.615 0 0 0 -2.611-2.611h-.984a.5.5 0 1 1 0-1h.984a3.616 3.616 0 0 1 3.611 3.611v1.177a.5.5 0 0 1 -.5.5z"/><path d="m48.8 27.971h-23.6a.5.5 0 0 1 -.5-.5v-19.797a5.18 5.18 0 0 1 5.174-5.174h14.252a5.18 5.18 0 0 1 5.174 5.174v19.8a.5.5 0 0 1 -.5.497zm-23.1-1h22.6v-19.297a4.178 4.178 0 0 0 -4.174-4.174h-14.252a4.178 4.178 0 0 0 -4.174 4.174z"/></g><path d="m32.351 25.08h-3.945a.65.65 0 0 1 -.65-.65v-4.492a.65.65 0 0 1 1.3 0v3.842h3.294a.65.65 0 1 1 0 1.3z" fill="#fff"/><path d="m35.808 25.08h-.725a.65.65 0 1 1 0-1.3h.725a.65.65 0 1 1 0 1.3z" fill="#fff"/><path d="m41.945 45.962h-9.89a1.932 1.932 0 0 1 -1.905-1.6l-1.929-11.636a.5.5 0 0 1 .493-.582h16.572a.5.5 0 0 1 .493.582l-1.928 11.63a1.933 1.933 0 0 1 -1.906 1.606zm-12.645-12.817 1.831 11.048a.933.933 0 0 0 .92.77h9.891a.934.934 0 0 0 .921-.774l1.837-11.044z" fill="#323c6b"/><rect fill="#9297ab" height="5.782" rx="1.063" transform="matrix(-1 0 0 -1 74 60.723)" width="27.025" x="23.487" y="27.47"/><path d="m49.45 33.752h-24.9a1.565 1.565 0 0 1 -1.562-1.562v-3.657a1.565 1.565 0 0 1 1.563-1.562h24.9a1.565 1.565 0 0 1 1.563 1.563v3.656a1.565 1.565 0 0 1 -1.564 1.562zm-24.9-5.781a.563.563 0 0 0 -.562.563v3.656a.563.563 0 0 0 .563.563h24.9a.563.563 0 0 0 .563-.562v-3.658a.563.563 0 0 0 -.562-.562z" fill="#323c6b"/></g></svg>