<svg height="512" viewBox="0 0 74 74" width="512" xmlns="http://www.w3.org/2000/svg"><g id="line_color" data-name="line color"><path d="m47.1 15.163c-.241-.146-.491-.273-.741-.4a25.474 25.474 0 0 0 -7.3-2.422 8.64 8.64 0 0 1 10.381-4.014z" fill="#e1e6e9"/><path d="m47.1 15.664a.5.5 0 0 1 -.26-.073c-.229-.14-.469-.261-.708-.383a25.013 25.013 0 0 0 -7.152-2.375.5.5 0 0 1 -.354-.733 9.1 9.1 0 0 1 10.974-4.246.5.5 0 0 1 .31.635l-2.34 6.836a.5.5 0 0 1 -.3.308.494.494 0 0 1 -.17.031zm-7.234-3.684a26.022 26.022 0 0 1 6.721 2.337l.233.12 1.98-5.786a8.108 8.108 0 0 0 -8.934 3.329z" fill="#323c6b"/><path d="m34.552 12.013a25.024 25.024 0 0 0 -8.367 1.536 8.63 8.63 0 0 1 6.988-8.586z" fill="#e1e6e9"/><path d="m26.185 14.049a.5.5 0 0 1 -.5-.493 9.113 9.113 0 0 1 7.394-9.083.5.5 0 0 1 .585.395l1.379 7.05a.5.5 0 0 1 -.486.6 24.467 24.467 0 0 0 -8.2 1.506.5.5 0 0 1 -.172.025zm6.6-8.485a8.112 8.112 0 0 0 -6.076 7.274 25.431 25.431 0 0 1 7.242-1.312z" fill="#323c6b"/><path d="m22.045 15.513a24.53 24.53 0 0 0 -6.472 5.466 8.64 8.64 0 0 1 1.825-10.8z" fill="#e1e6e9"/><path d="m15.573 21.479h-.044a.5.5 0 0 1 -.39-.249 9.157 9.157 0 0 1 1.93-11.422.515.515 0 0 1 .363-.123.5.5 0 0 1 .343.17l4.647 5.331a.5.5 0 0 1 -.125.761 23.983 23.983 0 0 0 -6.34 5.353.5.5 0 0 1 -.384.179zm1.787-10.579a8.164 8.164 0 0 0 -1.684 9.193 24.951 24.951 0 0 1 5.6-4.7z" fill="#323c6b"/><path d="m10 32.76a8.632 8.632 0 0 1 -3.636-10.173l6.525 2.239c-.188.324-.368.653-.542 1a24.937 24.937 0 0 0 -2.347 6.934z" fill="#e1e6e9"/><path d="m10 33.26a.5.5 0 0 1 -.262-.074 9.184 9.184 0 0 1 -3.846-10.762.5.5 0 0 1 .635-.31l6.525 2.239a.5.5 0 0 1 .271.725c-.185.316-.359.637-.53.971a24.5 24.5 0 0 0 -2.3 6.8.5.5 0 0 1 -.493.411zm-3.312-10.032a8.192 8.192 0 0 0 2.968 8.694 25.565 25.565 0 0 1 2.244-6.322q.127-.25.258-.49z" fill="#323c6b"/><path d="m11.07 45.825a8.623 8.623 0 0 1 -8.07-6.971l6.584-1.289a25.372 25.372 0 0 0 1.486 8.26z" fill="#e1e6e9"/><path d="m11.07 46.325h-.022a9.1 9.1 0 0 1 -8.539-7.375.5.5 0 0 1 .4-.586l6.584-1.29a.5.5 0 0 1 .6.485 24.822 24.822 0 0 0 1.457 8.1.5.5 0 0 1 -.471.668zm-7.47-7.079a8.1 8.1 0 0 0 6.747 6.013 25.815 25.815 0 0 1 -1.247-7.089z" fill="#323c6b"/><path d="m18.628 56.665a8.635 8.635 0 0 1 -10.41-2.036l4.971-4.329a24.645 24.645 0 0 0 5.439 6.365z" fill="#e1e6e9"/><path d="m14.732 58.1a9.131 9.131 0 0 1 -6.891-3.145.5.5 0 0 1 .049-.706l4.971-4.328a.5.5 0 0 1 .758.121 24.12 24.12 0 0 0 5.327 6.236.5.5 0 0 1 -.092.831 9.064 9.064 0 0 1 -4.122.991zm-5.8-3.435a8.106 8.106 0 0 0 8.77 1.867 25.074 25.074 0 0 1 -4.633-5.468z" fill="#323c6b"/><path d="m30.651 62.243a8.659 8.659 0 0 1 -10.032 3.43l2.13-6.2c.2.127.426.24.648.354a25.583 25.583 0 0 0 7.254 2.416z" fill="#e1e6e9"/><path d="m23.42 66.639a9.152 9.152 0 0 1 -2.962-.493.5.5 0 0 1 -.312-.636l2.13-6.2a.5.5 0 0 1 .737-.262c.192.12.4.226.61.333a25.107 25.107 0 0 0 7.113 2.365.5.5 0 0 1 .332.768 9.153 9.153 0 0 1 -7.648 4.125zm-2.16-1.292a8.158 8.158 0 0 0 8.523-2.76 26.065 26.065 0 0 1 -6.612-2.312l-.143-.073z" fill="#323c6b"/><path d="m36.886 69.037-1.262-6.454a26.057 26.057 0 0 0 8.242-1.635 8.655 8.655 0 0 1 -6.98 8.089z" fill="#e1e6e9"/><path d="m36.887 69.537a.5.5 0 0 1 -.49-.4l-1.263-6.454a.5.5 0 0 1 .475-.6 25.489 25.489 0 0 0 8.084-1.6.5.5 0 0 1 .673.491 9.125 9.125 0 0 1 -7.382 8.558.5.5 0 0 1 -.097.005zm-.66-6.479 1.052 5.377a8.124 8.124 0 0 0 6.02-6.754 26.443 26.443 0 0 1 -7.072 1.376z" fill="#323c6b"/><path d="m53.9 53.962a22.976 22.976 0 0 1 -2.224 2.238 24.94 24.94 0 0 1 -3.413 2.569l4.4 5.059a8.647 8.647 0 0 0 2.535-9.2" fill="#e1e6e9"/><path d="m52.661 64.325h-.034a.5.5 0 0 1 -.343-.171l-4.4-5.06a.5.5 0 0 1 .11-.751 24.393 24.393 0 0 0 3.346-2.518 22.636 22.636 0 0 0 2.186-2.191.5.5 0 0 1 .754.657 23.627 23.627 0 0 1 -2.275 2.282 25.049 25.049 0 0 1 -2.987 2.3l3.682 4.234a8.144 8.144 0 0 0 2.022-8.33.5.5 0 0 1 .951-.312 9.147 9.147 0 0 1 -2.683 9.735.5.5 0 0 1 -.329.125z" fill="#323c6b"/><path d="m59.533 42.89a17.824 17.824 0 0 0 .343-1.754 8.673 8.673 0 0 1 3.416 3.669" fill="#e1e6e9"/><path d="m63.292 45.305a.5.5 0 0 1 -.449-.28 8.139 8.139 0 0 0 -2.6-3.057c-.065.354-.142.7-.226 1.042a.5.5 0 0 1 -.971-.241c.136-.547.248-1.121.333-1.706a.5.5 0 0 1 .747-.359 9.154 9.154 0 0 1 3.613 3.88.5.5 0 0 1 -.449.72z" fill="#323c6b"/><path d="m67.064 35.136-6.91 1.357a25.209 25.209 0 0 0 -1.7-8.345 8.658 8.658 0 0 1 8.61 6.988z" fill="#e1e6e9"/><path d="m60.153 36.993a.5.5 0 0 1 -.5-.484 24.622 24.622 0 0 0 -1.664-8.18.5.5 0 0 1 .459-.681h.129a9.143 9.143 0 0 1 8.979 7.394.5.5 0 0 1 -.395.586l-6.911 1.355a.5.5 0 0 1 -.097.01zm-.971-8.324a25.59 25.59 0 0 1 1.445 7.221l5.835-1.146a8.141 8.141 0 0 0 -7.279-6.075z" fill="#323c6b"/><path d="m61.841 19.371-5.4 4.706a24.95 24.95 0 0 0 -5.615-6.408 8.634 8.634 0 0 1 11.015 1.702z" fill="#e1e6e9"/><path d="m56.444 24.578a.5.5 0 0 1 -.427-.239 24.417 24.417 0 0 0 -5.5-6.28.5.5 0 0 1 .054-.815 9.1 9.1 0 0 1 11.649 1.8.5.5 0 0 1 -.048.705l-5.4 4.706a.5.5 0 0 1 -.328.123zm-4.734-6.826a25.406 25.406 0 0 1 4.847 5.563l4.567-3.983a8.1 8.1 0 0 0 -9.414-1.58z" fill="#323c6b"/><path d="m53.9 53.962a25.293 25.293 0 1 1 5.643-11.062" fill="#eeefee"/><path d="m57.164 41.829c.324.173.626.392.948.591a10 10 0 0 0 1.334.665l.1-.19a25.288 25.288 0 0 0 -39.64-25.975 25.252 25.252 0 0 1 37.258 24.909z" fill="#e1e6e9"/><path d="m36.494 18.01a6.268 6.268 0 0 0 -1.336 1.757c-1.736 3.406-.067 7.735 3.726 9.667s8.276.738 10.011-2.668a6.266 6.266 0 0 0 .636-2.113 15.035 15.035 0 0 0 -13.037-6.643z" fill="#fff"/><path d="m42.672 30.861a8.847 8.847 0 0 1 -4.014-.981 8.618 8.618 0 0 1 -4.177-4.546 7.033 7.033 0 0 1 .231-5.793 6.762 6.762 0 0 1 1.441-1.9.709.709 0 0 1 .494-.133 15.555 15.555 0 0 1 13.29 6.853.5.5 0 0 1 .089.35 6.745 6.745 0 0 1 -.687 2.281 7.034 7.034 0 0 1 -4.551 3.592 8.23 8.23 0 0 1 -2.116.277zm-5.972-12.351a5.745 5.745 0 0 0 -1.1 1.484 6.053 6.053 0 0 0 -.189 4.979 7.842 7.842 0 0 0 9.119 4.646 6.047 6.047 0 0 0 3.917-3.08 5.757 5.757 0 0 0 .559-1.755 14.577 14.577 0 0 0 -12.306-6.274z" fill="#323c6b"/><path d="m16.809 29.837a6.268 6.268 0 0 0 1.258 1.813c2.7 2.7 7.335 2.454 10.346-.556s3.26-7.643.556-10.346a6.266 6.266 0 0 0 -1.813-1.258 15.035 15.035 0 0 0 -10.347 10.347z" fill="#fff"/><path d="m22.729 34.021a7.012 7.012 0 0 1 -5.015-2.021 6.769 6.769 0 0 1 -1.358-1.957.5.5 0 0 1 -.022-.361 15.569 15.569 0 0 1 10.672-10.669.5.5 0 0 1 .36.022 6.731 6.731 0 0 1 1.956 1.359 7.031 7.031 0 0 1 2.011 5.438 8.816 8.816 0 0 1 -8.6 8.188zm-5.382-4.221a5.753 5.753 0 0 0 1.074 1.5c2.5 2.5 6.828 2.254 9.639-.557a7.622 7.622 0 0 0 2.275-4.961 6.05 6.05 0 0 0 -1.72-4.677 5.716 5.716 0 0 0 -1.5-1.074 14.58 14.58 0 0 0 -9.768 9.769z" fill="#323c6b"/><path d="m21.974 52.212a6.268 6.268 0 0 0 2.113-.636c3.406-1.736 4.6-6.218 2.668-10.011s-6.261-5.462-9.668-3.726a6.266 6.266 0 0 0 -1.757 1.336 15.035 15.035 0 0 0 6.644 13.037z" fill="#fff"/><path d="m21.974 52.712a.5.5 0 0 1 -.291-.093 15.574 15.574 0 0 1 -6.853-13.448.5.5 0 0 1 .133-.336 6.767 6.767 0 0 1 1.9-1.441c3.646-1.859 8.284-.088 10.34 3.944s.76 8.826-2.887 10.684a6.767 6.767 0 0 1 -2.28.688.5.5 0 0 1 -.062.002zm-6.145-13.336a14.582 14.582 0 0 0 6.271 12.314 5.76 5.76 0 0 0 1.756-.559c3.154-1.608 4.253-5.8 2.449-9.339s-5.838-5.114-9-3.507a5.775 5.775 0 0 0 -1.476 1.091z" fill="#323c6b"/><path d="m43 48.4a6.382 6.382 0 0 1 1.9 3.6 6.168 6.168 0 0 1 -.047 2.206 15.008 15.008 0 0 1 -14.453 2.294 6.1 6.1 0 0 1 -.728-2.087c-.605-3.778 2.317-7.374 6.524-8.036a8.3 8.3 0 0 1 2.919.047" fill="#fff"/><path d="m35.674 57.906a17.085 17.085 0 0 1 -5.43-.928.5.5 0 0 1 -.275-.226 6.6 6.6 0 0 1 -.788-2.256 7.007 7.007 0 0 1 1.306-5.245 8.621 8.621 0 0 1 5.635-3.364 8.741 8.741 0 0 1 3.094.05.5.5 0 0 1 .394.587.506.506 0 0 1 -.587.394 7.781 7.781 0 0 0 -2.743-.044 7.618 7.618 0 0 0 -4.983 2.963 6.013 6.013 0 0 0 -1.126 4.5 5.648 5.648 0 0 0 .576 1.752 14.561 14.561 0 0 0 13.648-2.169 5.675 5.675 0 0 0 .008-1.84 5.867 5.867 0 0 0 -1.752-3.316.5.5 0 1 1 .693-.72 6.86 6.86 0 0 1 2.047 3.879 6.7 6.7 0 0 1 -.052 2.386.5.5 0 0 1 -.192.3 15.688 15.688 0 0 1 -9.473 3.297z" fill="#323c6b"/><path d="m54.591 40.372a15.843 15.843 0 0 0 -.768-7.293 6.161 6.161 0 0 0 -2.081-.734 6.85 6.85 0 0 0 -6.717 3.155z" fill="#fff"/><path d="m54.591 40.872a.494.494 0 0 1 -.227-.055l-9.564-4.873a.5.5 0 0 1 -.188-.724 7.323 7.323 0 0 1 7.21-3.369 6.671 6.671 0 0 1 2.25.793.5.5 0 0 1 .228.276 16.414 16.414 0 0 1 .788 7.521.5.5 0 0 1 -.264.374.506.506 0 0 1 -.233.057zm-8.817-5.554 8.4 4.281a15.606 15.606 0 0 0 -.766-6.176 5.674 5.674 0 0 0 -1.747-.584 6.252 6.252 0 0 0 -5.888 2.479z" fill="#323c6b"/><rect fill="#e1e6e9" height="12.418" rx="4.791" transform="matrix(.891 .454 -.454 .891 25.666 -17.544)" width="43.909" x="27.418" y="38.473"/><path d="m67.484 46.942-30.584-15.584a4.791 4.791 0 0 0 -6.444 2.094l-1.288 2.527.178-.349a4.791 4.791 0 0 1 6.444-2.094l30.585 15.584a4.791 4.791 0 0 1 2.094 6.444l1.11-2.178a4.791 4.791 0 0 0 -2.095-6.444z" fill="#d5d6db"/><g fill="#323c6b"><path d="m23.352 12.042a.526.526 0 0 1 -.078-.006.5.5 0 0 1 -.417-.572c.037-.234.079-.468.13-.7a.5.5 0 0 1 .977.217c-.047.209-.085.422-.118.636a.5.5 0 0 1 -.494.425z"/><path d="m24.285 9a.5.5 0 0 1 -.453-.712 12.182 12.182 0 0 1 8.5-6.719.5.5 0 1 1 .2.979 11.177 11.177 0 0 0 -7.8 6.166.5.5 0 0 1 -.447.286z"/><path d="m73.435 52.926a.5.5 0 0 1 -.445-.727 4.661 4.661 0 0 0 -1.371-5.868.5.5 0 0 1 .6-.8 5.66 5.66 0 0 1 1.664 7.124.5.5 0 0 1 -.448.271z"/><path d="m70 45.336a.5.5 0 0 1 -.247-.065l-.542-.308a.5.5 0 0 1 .494-.87l.542.308a.5.5 0 0 1 -.247.935z"/></g><circle cx="35.368" cy="37.282" fill="#fff" r="2.405" transform="matrix(.454 -.891 .891 .454 -13.907 51.871)"/><g fill="#323c6b"><path d="m35.365 40.188a2.912 2.912 0 1 1 .9-.144 2.917 2.917 0 0 1 -.9.144zm.006-4.811a1.9 1.9 0 1 0 .862.207 1.906 1.906 0 0 0 -.862-.206z"/><path d="m64.016 59.032a5.264 5.264 0 0 1 -2.4-.58l-30.582-15.583a5.3 5.3 0 0 1 -2.312-7.116l1.288-2.527a5.29 5.29 0 0 1 7.115-2.312l30.586 15.586a5.291 5.291 0 0 1 2.313 7.116l-1.288 2.524a5.306 5.306 0 0 1 -4.721 2.892zm-29.287-27.7a4.3 4.3 0 0 0 -3.829 2.347l-1.288 2.527a4.3 4.3 0 0 0 1.875 5.771l30.586 15.585a4.293 4.293 0 0 0 5.772-1.875l1.287-2.527a4.291 4.291 0 0 0 -1.875-5.771l-30.585-15.589a4.28 4.28 0 0 0 -1.943-.466z"/><path d="m34.889 63.09a25.793 25.793 0 1 1 25.141-20.084.5.5 0 1 1 -.975-.222 24.783 24.783 0 1 0 -5.527 10.848.5.5 0 0 1 .752.659 25.751 25.751 0 0 1 -19.391 8.799z"/></g><path d="m51.979 49.875a.647.647 0 0 1 -.289-.068l-7.716-3.848a.65.65 0 1 1 .58-1.163l7.716 3.848a.65.65 0 0 1 -.291 1.231z" fill="#fff"/><path d="m54.856 51.31a.647.647 0 0 1 -.289-.068l-.6-.3a.65.65 0 1 1 .58-1.163l.6.3a.65.65 0 0 1 -.291 1.231z" fill="#fff"/></g></svg>