<svg height="512" viewBox="0 0 74 74" width="512" xmlns="http://www.w3.org/2000/svg"><g id="line_color" data-name="line color"><path d="m24.491 61.198h25.018l1.324 4.188h-27.666z" fill="#9297ab"/><path d="m50.833 65.886h-27.666a.5.5 0 0 1 -.477-.651l1.325-4.188a.5.5 0 0 1 .477-.349h25.017a.5.5 0 0 1 .477.349l1.325 4.188a.5.5 0 0 1 -.477.651zm-26.984-1h26.3l-1.006-3.186h-24.286z" fill="#323c6b"/><rect fill="#e7aa6c" height="8.189" rx="1.503" width="56.083" x="8.958" y="18.244"/><path d="m65.04 19.75v5.18a1.5 1.5 0 0 1 -1.5 1.5h-3.06a1.5 1.5 0 0 0 1.5-1.5v-5.18a1.507 1.507 0 0 0 -1.5-1.51h3.06a1.507 1.507 0 0 1 1.5 1.51z" fill="#d09865"/><path d="m15.373 51.75-2.9-25.317h49.056l-2.9 25.317a3.553 3.553 0 0 1 -3.529 3.15h-36.2a3.553 3.553 0 0 1 -3.527-3.15z" fill="#e7aa6c"/><path d="m61.147 26.433h-3.331l-2.595 22.639a2.834 2.834 0 0 1 -2.815 2.511h-37.052l.019.167a3.553 3.553 0 0 0 3.527 3.15h36.2a3.553 3.553 0 0 0 3.53-3.149l.019-.167h-.381z" fill="#d09865"/><path d="m18.589 42.118a.763.763 0 0 1 -.757-.676l-.832-7.842a.763.763 0 0 1 1.516-.174l.832 7.842a.764.764 0 0 1 -.671.845c-.029.003-.058.005-.088.005z" fill="#fff"/><path d="m19.048 46.174a.763.763 0 0 1 -.757-.676l-.1-.835a.763.763 0 0 1 1.516-.174l.1.835a.764.764 0 0 1 -.671.845c-.029.003-.059.005-.088.005z" fill="#fff"/><path d="m63.34 14.2-1.88 4.04h-31.96l10.52-6.48.62-2.01 1.1-3.55 16.73-2.51z" fill="#e1e6e9"/><path d="m27.103 54.899-4.976 16.787h-4.575l4.894-16.787z" fill="#9297ab"/><path d="m22.127 72.186h-4.575a.5.5 0 0 1 -.48-.64l4.894-16.787a.5.5 0 0 1 .48-.36h4.654a.5.5 0 0 1 .479.642l-4.973 16.787a.5.5 0 0 1 -.479.358zm-3.909-1h3.535l4.68-15.786h-3.612z" fill="#323c6b"/><path d="m56.448 71.686h-4.575l-4.976-16.787h4.657z" fill="#9297ab"/><g fill="#323c6b"><path d="m56.448 72.186h-4.575a.5.5 0 0 1 -.479-.358l-4.977-16.787a.5.5 0 0 1 .483-.641h4.657a.5.5 0 0 1 .48.36l4.894 16.787a.5.5 0 0 1 -.48.64zm-4.2-1h3.535l-4.604-15.786h-3.612z"/><path d="m58.6 57.383a.5.5 0 0 1 -.268-.922 6.03 6.03 0 0 0 2.775-4.426l.378-2.225a.5.5 0 0 1 .985.168l-.374 2.2a7.009 7.009 0 0 1 -3.229 5.129.5.5 0 0 1 -.267.076z"/><path d="m62.294 48.248a.462.462 0 0 1 -.058 0 .5.5 0 0 1 -.439-.554l.064-.561a.5.5 0 0 1 .993.114l-.064.561a.5.5 0 0 1 -.496.44z"/><path d="m35.889 5.214a.5.5 0 0 1 -.179-.033l-6.887-2.645-1.923 2.055a.5.5 0 1 1 -.73-.683l2.152-2.3a.5.5 0 0 1 .544-.125l7.2 2.765a.5.5 0 0 1 -.179.967z"/><path d="m24.14 7.313a.5.5 0 0 1 -.365-.842l.448-.479a.5.5 0 1 1 .73.684l-.448.479a.5.5 0 0 1 -.365.158z"/></g><path d="m40.64 9.75-.62 2.01-10.52 6.48h-17.8l2.47-6.62 7.73 1.98 7.6-8.13z" fill="#e1e6e9"/><path d="m58.47 3.69-16.73 2.51-.683 2.203 15.81-2.372 4.87 10.51-.79 1.699h.513l1.88-4.04z" fill="#d5d6db"/><path d="m14.941 14.263 7.73 1.98 7.6-8.13 9.65 3.708.099-.061.62-2.01-11.14-4.28-7.6 8.13-7.73-1.98-2.47 6.62h1.758z" fill="#d5d6db"/><g fill="#323c6b"><path d="m55.1 55.4h-36.2a4.052 4.052 0 0 1 -4.027-3.592l-2.9-25.317a.5.5 0 0 1 .5-.557h49.056a.5.5 0 0 1 .5.557l-2.9 25.317a4.052 4.052 0 0 1 -4.029 3.592zm-42.068-28.467 2.837 24.76a3.052 3.052 0 0 0 3.031 2.707h36.2a3.052 3.052 0 0 0 3.034-2.706l2.837-24.76z"/><path d="m61.46 18.74h-31.96a.5.5 0 0 1 -.262-.926l10.362-6.381 1.665-5.38a.5.5 0 0 1 .4-.347l16.735-2.506a.5.5 0 0 1 .528.284l4.87 10.51a.5.5 0 0 1 0 .421l-1.88 4.04a.5.5 0 0 1 -.458.285zm-30.195-1h29.876l1.648-3.54-4.616-9.96-16.048 2.408-1.625 5.259a.5.5 0 0 1 -.215.278z"/><path d="m29.5 18.74h-17.8a.5.5 0 0 1 -.468-.675l2.47-6.62a.5.5 0 0 1 .592-.31l7.443 1.906 7.4-7.914a.5.5 0 0 1 .542-.127l11.14 4.28a.5.5 0 0 1 .3.614l-.62 2.01a.5.5 0 0 1 -.215.278l-10.52 6.48a.5.5 0 0 1 -.264.078zm-17.08-1h16.938l10.242-6.307.427-1.383-10.392-3.993-7.37 7.884a.5.5 0 0 1 -.489.143l-7.294-1.869z"/><path d="m63.539 26.933h-53.078a2.006 2.006 0 0 1 -2-2v-5.186a2.005 2.005 0 0 1 2-2h53.078a2.005 2.005 0 0 1 2 2v5.183a2.006 2.006 0 0 1 -2 2.003zm-53.078-8.189a1 1 0 0 0 -1 1v5.186a1 1 0 0 0 1 1h53.078a1 1 0 0 0 1-1v-5.183a1 1 0 0 0 -1-1z"/></g></g></svg>