<svg height="512" viewBox="0 0 74 74" width="512" xmlns="http://www.w3.org/2000/svg"><g id="line_color" data-name="line color"><path d="m41.219 27.8 5.875-2.068 3.964 1.64 4.077 8.292a10.952 10.952 0 0 1 -1 11.237 12.129 12.129 0 0 1 -7.484 4.689l-4.793.751 2.437-5.5-6.345-13.08" fill="#e1e6e9"/><path d="m55.135 35.666-4.077-8.292-1.628-.674 3.643 7.409a10.952 10.952 0 0 1 -1 11.237 12.129 12.129 0 0 1 -7.484 4.689l-1.835.287-.9 2.02 4.793-.751a12.13 12.13 0 0 0 7.483-4.691 10.952 10.952 0 0 0 1.005-11.234z" fill="#e0e0e0"/><path d="m35.4 33.657-6.386 13.189 2.437 5.5-4.793-.751a12.129 12.129 0 0 1 -7.484-4.695 10.926 10.926 0 0 1 -1-11.237l4.077-8.292 4.77-1.64 5.682 2" fill="#e1e6e9"/><path d="m31.451 52.843a.518.518 0 0 1 -.077-.006l-4.793-.75a12.592 12.592 0 0 1 -7.813-4.892 11.429 11.429 0 0 1 -1.048-11.746l4.079-8.3a.5.5 0 0 1 .286-.252l4.77-1.64a.5.5 0 0 1 .329 0l5.682 2a.5.5 0 1 1 -.332.943l-5.518-1.94-4.416 1.52-3.986 8.107a10.439 10.439 0 0 0 .964 10.727 11.578 11.578 0 0 0 7.18 4.486l3.864.6-2.065-4.659a.5.5 0 0 1 .007-.42l6.386-13.182a.5.5 0 0 1 .9.436l-6.285 12.98 2.343 5.285a.5.5 0 0 1 -.457.7z" fill="#323c6b"/><path d="m47.094 25.734-6.31-8.009h-7.459l-6.309 8.009 5.701 2.068h8.366z" fill="#bbbbcd"/><path d="m35.398 11.955v-8.955h3.31v8.955" fill="#e1e6e9"/><g fill="#323c6b"><path d="m38.708 12.455a.5.5 0 0 1 -.5-.5v-8.455h-2.308v8.455a.5.5 0 1 1 -1 0v-8.955a.5.5 0 0 1 .5-.5h3.31a.5.5 0 0 1 .5.5v8.955a.5.5 0 0 1 -.502.5z"/><path d="m14.373 42.854a.5.5 0 0 1 -.494-.429c-.043-.3-.072-.6-.1-.9a.5.5 0 0 1 1-.079c.022.278.048.556.088.832a.5.5 0 0 1 -.423.566.448.448 0 0 1 -.071.01z"/><path d="m19.576 51.867a.5.5 0 0 1 -.309-.107 14.3 14.3 0 0 1 -2.8-2.92 14.961 14.961 0 0 1 -1.957-3.81.5.5 0 1 1 .945-.325 13.966 13.966 0 0 0 1.826 3.554 13.3 13.3 0 0 0 2.6 2.715.5.5 0 0 1 -.31.893z"/></g><path d="m49.059 23.659-4.951-6.284" fill="#dbd8dd"/><path d="m49.06 24.159a.5.5 0 0 1 -.393-.19l-4.951-6.284a.5.5 0 0 1 .785-.619l4.951 6.284a.5.5 0 0 1 -.392.81z" fill="#323c6b"/><path d="m43.59 15.361a.5.5 0 0 1 -.493-.42l-.119-.737a.5.5 0 0 1 .987-.159l.119.737a.5.5 0 0 1 -.494.58z" fill="#323c6b"/><path d="m37.055 11.565a3.729 3.729 0 0 1 3.729 3.729v2.43h-7.459v-2.43a3.729 3.729 0 0 1 3.73-3.729z" fill="#bbbbcd"/><path d="m47.09 25.73-6.01 2.07h-2.08l6.01-2.07-6.31-8h2.08z" fill="#9297ab"/><path d="m40.78 15.29v2.44h-2.08v-2.44a3.729 3.729 0 0 0 -2.69-3.57 3.584 3.584 0 0 1 1.04-.15 3.728 3.728 0 0 1 3.73 3.72z" fill="#9297ab"/><path d="m31.252 61.612 6.18-12.895 5.249 12.182 4.585-5.733 7.376 16.375h-35.284l7.774-15.769z" fill="#9a9eaf"/><g fill="#828a9e"><path d="m37.424 53.449 4.187 9.6 1.6-2a6 6 0 0 1 -1.735-2.949l-4.037-9.369-1.75 3.622a1.8 1.8 0 0 1 1.735 1.096z"/><path d="m46.9 58.932 5.679 12.608h2.068l-7.381-16.374-2.16 2.7a1.814 1.814 0 0 1 1.794 1.066z"/><path d="m27.307 59.326 3.373 4.722 1.352-2.821c-.928 1.252-2.2-1.622-2.577-2.162l-2.322-3.291-1.375 2.787a1.8 1.8 0 0 1 1.549.765z"/></g><path d="m41.854 52.843a.5.5 0 0 1 -.457-.7l2.343-5.285-6.24-12.879a.5.5 0 0 1 .9-.437l6.34 13.086a.5.5 0 0 1 .007.42l-2.065 4.659 3.887-.609a11.564 11.564 0 0 0 7.154-4.486 10.464 10.464 0 0 0 .961-10.729l-3.992-8.12-3.613-1.5-5.7 2a.5.5 0 1 1 -.332-.943l5.875-2.068a.492.492 0 0 1 .357.01l3.964 1.64a.5.5 0 0 1 .258.241l4.077 8.292a11.453 11.453 0 0 1 -1.045 11.747 12.573 12.573 0 0 1 -7.792 4.89l-4.816.755a.518.518 0 0 1 -.071.016z" fill="#323c6b"/><path d="m54.642 72.041h-35.284a.5.5 0 0 1 -.448-.721l7.774-15.768a.5.5 0 0 1 .857-.067l3.629 5.143 5.811-12.128a.54.54 0 0 1 .461-.284.5.5 0 0 1 .449.3l4.92 11.417 4.064-5.082a.5.5 0 0 1 .847.107l7.378 16.377a.5.5 0 0 1 -.456.706zm-34.48-1h33.707l-6.723-14.924-4.074 5.094a.5.5 0 0 1 -.85-.115l-4.814-11.172-5.7 11.9a.5.5 0 0 1 -.859.072l-3.635-5.152z" fill="#323c6b"/><path d="m31.458 68.576h-6.708a.65.65 0 0 1 -.583-.937l1.481-3a.65.65 0 0 1 1.166.575l-1.02 2.067h5.664a.65.65 0 1 1 0 1.3z" fill="#fff"/><path d="m34.792 68.576h-.833a.65.65 0 0 1 0-1.3h.833a.65.65 0 0 1 0 1.3z" fill="#fff"/><path d="m41.083 28.3h-8.366a.507.507 0 0 1 -.17-.03l-5.7-2.068a.5.5 0 0 1 -.222-.78l6.31-8.009a.5.5 0 0 1 .393-.19h7.458a.5.5 0 0 1 .393.19l6.31 8.009a.5.5 0 0 1 -.23.782l-6.011 2.068a.5.5 0 0 1 -.165.028zm-8.278-1h8.195l5.266-1.812-5.724-7.265h-6.974l-5.732 7.277z" fill="#323c6b"/><path d="m40.784 18.225h-7.458a.5.5 0 0 1 -.5-.5v-2.43a4.229 4.229 0 1 1 8.458 0v2.43a.5.5 0 0 1 -.5.5zm-6.958-1h6.458v-1.93a3.229 3.229 0 1 0 -6.458 0z" fill="#323c6b"/><circle cx="37.055" cy="29.323" fill="#9297ab" r="4.644"/><path d="m37.055 34.467a5.144 5.144 0 1 1 5.145-5.144 5.15 5.15 0 0 1 -5.145 5.144zm0-9.288a4.144 4.144 0 1 0 4.145 4.144 4.148 4.148 0 0 0 -4.145-4.144z" fill="#323c6b"/><circle cx="37.055" cy="29.323" fill="#fff" r="1.523"/><path d="m37.055 31.346a2.023 2.023 0 1 1 2.023-2.023 2.026 2.026 0 0 1 -2.023 2.023zm0-3.046a1.023 1.023 0 1 0 1.023 1.023 1.024 1.024 0 0 0 -1.023-1.023z" fill="#323c6b"/></g></svg>