<svg height="512" viewBox="0 0 74 74" width="512" xmlns="http://www.w3.org/2000/svg"><g id="line_color" data-name="line color"><path d="m27.365 25.493 2.588-1.975a1.664 1.664 0 0 1 2.047 2.625l-2.922 2.236c-1.997-.508-2.555-1.474-1.713-2.886z" fill="#89c5cd"/><path d="m29.076 28.878a.5.5 0 0 1 -.123-.015 3.108 3.108 0 0 1 -2.336-1.552 2.277 2.277 0 0 1 .319-2.074.494.494 0 0 1 .126-.142l2.588-1.975a2.163 2.163 0 0 1 3.033.38 2.167 2.167 0 0 1 -.377 3.037l-2.926 2.238a.5.5 0 0 1 -.304.103zm-1.328-3.048a1.294 1.294 0 0 0 -.207 1.1c.15.363.642.673 1.428.9l2.726-2.085a1.164 1.164 0 0 0 -.575-2.07 1.144 1.144 0 0 0 -.858.237z" fill="#323c6b"/><path d="m19.254 17.093-8.079-5.085 1.598-2.539 7.261 4.57z" fill="#fcd462"/><path d="m19.254 17.593a.5.5 0 0 1 -.266-.077l-8.079-5.084a.5.5 0 0 1 -.157-.689l1.598-2.543a.5.5 0 0 1 .689-.157l7.261 4.572a.5.5 0 0 1 .218.547l-.779 3.054a.5.5 0 0 1 -.484.376zm-7.39-5.741 7.075 4.448.52-2.036-6.529-4.105z" fill="#323c6b"/><path d="m39.336 29.752-17.88-11.266 1.6-2.538 17.88 11.265a1.5 1.5 0 0 1 .469 2.069 1.5 1.5 0 0 1 -2.069.47z" fill="#fcd462"/><path d="m40.132 30.482a1.993 1.993 0 0 1 -1.063-.307l-17.88-11.266a.5.5 0 0 1 -.156-.689l1.6-2.538a.5.5 0 0 1 .689-.156l17.878 11.265a2 2 0 0 1 -1.069 3.691zm-.53-1.153a1 1 0 0 0 1.379-.313 1 1 0 0 0 -.313-1.379l-17.457-11-1.066 1.693z" fill="#323c6b"/><path d="m23.595 2.7c-3.075 1.052-8.944 3.3-11.764 8.039a20.308 20.308 0 0 0 -2.413 13.2c-2.239-3.687-3.736-10.461-.3-15.381 3.465-4.975 9.282-5.636 14.477-5.858z" fill="#e1e6e9"/><path d="m9.417 24.442a.5.5 0 0 1 -.427-.24c-2.132-3.511-3.968-10.649-.29-15.928 3.61-5.174 9.57-5.847 14.873-6.074a.482.482 0 0 1 .513.407.5.5 0 0 1 -.329.566c-2.125.728-8.592 2.941-11.5 7.822a19.949 19.949 0 0 0 -2.347 12.858.5.5 0 0 1 -.315.556.49.49 0 0 1 -.178.033zm10.854-21.005c-4.069.449-8.126 1.651-10.748 5.41-2.7 3.876-2.171 8.872-.838 12.412a20.519 20.519 0 0 1 2.715-10.776c2.123-3.567 5.959-5.771 8.871-7.046z" fill="#323c6b"/><path d="m58.936 31.968-5.866 8.823-7.342.945-5.014 9.054-9.559 6.14-2.746 14.07h38.649v-11.35l-3.501-9.163 1.418-11.038z" fill="#9297ab"/><path d="m63.557 50.487 1.418-11.038-6.039-7.481-.567.852 3.81 4.719-1.418 11.038 3.501 9.163v13.26h-35.372-.481 38.649v-11.35z" fill="#84879c"/><g fill="#323c6b"><path d="m47.438 49.217a.5.5 0 0 1 -.422-.767l1.52-2.406-3.2-4a.5.5 0 0 1 .78-.625l3.42 4.273a.5.5 0 0 1 .033.58l-1.71 2.708a.5.5 0 0 1 -.421.237z"/><path d="m58.416 47.134a.5.5 0 0 1 -.463-.688l1.562-3.853a.5.5 0 0 1 .186-.228l5-3.332a.5.5 0 0 1 .555.832l-4.871 3.247-1.5 3.71a.5.5 0 0 1 -.469.312z"/><path d="m67.059 60.15a.516.516 0 0 1 -.094-.009l-6.04-1.141a.5.5 0 0 1 -.366-.293l-2.083-4.817a.5.5 0 0 1 .918-.4l1.977 4.573 5.779 1.1a.5.5 0 0 1 -.093.991z"/><path d="m38.668 61.712a.5.5 0 0 1 -.1-.989l10.252-2.161 2.805-5.114a.5.5 0 0 1 .877.48l-2.916 5.316a.5.5 0 0 1 -.335.249l-10.479 2.207a.5.5 0 0 1 -.104.012z"/><path d="m49.147 59.5a.5.5 0 0 1 -.262-.075l-3.785-2.331a.5.5 0 1 1 .525-.851l3.782 2.334a.5.5 0 0 1 -.263.925z"/><path d="m7.463 61.8a.5.5 0 0 1 -.15-.023 5.334 5.334 0 0 1 -.6-.231.5.5 0 0 1 .415-.91 4.2 4.2 0 0 0 .489.187.5.5 0 0 1 -.15.977z"/><path d="m4.792 59.75a.5.5 0 0 1 -.419-.227 5.565 5.565 0 0 1 -.173-5.87l.828-1.629a.5.5 0 0 1 .892.453l-.842 1.654a4.583 4.583 0 0 0 .133 4.846.5.5 0 0 1 -.418.773z"/><path d="m67.258 38a.5.5 0 0 1 -.39-.186l-.724-.9a.5.5 0 1 1 .778-.628l.724.9a.5.5 0 0 1 -.389.814z"/><path d="m66.709 50a.569.569 0 0 1 -.064 0 .5.5 0 0 1 -.433-.56l1.146-8.917a.5.5 0 1 1 .992.127l-1.146 8.917a.5.5 0 0 1 -.495.433z"/></g><path d="m19.28 40.861-.691 3.932a2.171 2.171 0 0 1 -.3.841l-7.5 11.937a2.081 2.081 0 0 1 -1.766.975 2.055 2.055 0 0 1 -1.108-.317 2.09 2.09 0 0 1 -.658-2.874l6.45-12.679 1.176-16.125a6.341 6.341 0 0 1 7.6-5.751 6.341 6.341 0 0 1 5.034 6.871l-1.317 12.542 2.152 4.813a2.175 2.175 0 0 1 .267 1.041l-1.334 11.863a2.153 2.153 0 0 1 -2.385 2.138 2.237 2.237 0 0 1 -1.93-2.268v-11.333l-2.957-5.506z" fill="#89c5cd"/><path d="m28.357 45.026-2.157-4.813 1.311-12.54a6.331 6.331 0 0 0 -8.625-6.555 6.3 6.3 0 0 1 6.183 6.992l-1.306 12.54 2.152 4.813a2.175 2.175 0 0 1 .267 1.041l-1.339 11.863a2.128 2.128 0 0 1 -.622 1.5 1.992 1.992 0 0 0 .68.2 2.153 2.153 0 0 0 2.384-2.138l1.338-11.862a2.175 2.175 0 0 0 -.266-1.041z" fill="#6eaaad"/><path d="m27.543 27.341 4.482 3.032 3.957-3.073a1.665 1.665 0 0 1 2.049 2.624l-4.915 3.824a1.645 1.645 0 0 1 -1.949.058l-4.007-2.716z" fill="#89c5cd"/><path d="m32.1 34.6a2.15 2.15 0 0 1 -1.219-.382l-4-2.711a.5.5 0 0 1 -.217-.465l.383-3.749a.5.5 0 0 1 .778-.363l4.175 2.826 3.675-2.856a2.155 2.155 0 0 1 1.607-.442 2.127 2.127 0 0 1 1.428.815 2.17 2.17 0 0 1 -.371 3.04l-4.916 3.824a2.164 2.164 0 0 1 -1.323.463zm-4.412-3.753 3.759 2.547a1.162 1.162 0 0 0 1.362-.039l4.915-3.824a1.169 1.169 0 0 0 .2-1.639 1.135 1.135 0 0 0 -.763-.436 1.158 1.158 0 0 0 -.867.239l-3.958 3.075a.5.5 0 0 1 -.587.019l-3.789-2.563z" fill="#323c6b"/><circle cx="23.238" cy="12.932" fill="#89c5cd" r="5.762"/><g fill="#323c6b"><path d="m23.238 19.194a6.262 6.262 0 1 1 6.262-6.262 6.269 6.269 0 0 1 -6.262 6.262zm0-11.524a5.262 5.262 0 1 0 5.262 5.262 5.268 5.268 0 0 0 -5.262-5.263z"/><path d="m25.123 60.579a2.667 2.667 0 0 1 -.271-.014 2.744 2.744 0 0 1 -2.382-2.765v-11.207l-2.781-5.172-.608 3.458a2.648 2.648 0 0 1 -.366 1.016l-7.5 11.942a2.585 2.585 0 0 1 -4.379-2.747l6.383-12.551 1.168-16.024a6.841 6.841 0 1 1 13.626 1.209l-1.3 12.406 2.1 4.691a2.619 2.619 0 0 1 .31 1.245l-1.341 11.92a2.609 2.609 0 0 1 -.869 1.907 2.672 2.672 0 0 1 -1.79.686zm-5.844-20.218a.534.534 0 0 1 .068 0l.733.1a.5.5 0 0 1 .373.259l2.958 5.506a.5.5 0 0 1 .06.237v11.337a1.736 1.736 0 0 0 1.481 1.765 1.653 1.653 0 0 0 1.833-1.64l1.341-11.918a1.688 1.688 0 0 0 -.21-.748l-2.168-4.846a.5.5 0 0 1 -.041-.256l1.312-12.54a5.841 5.841 0 1 0 -11.635-1.032l-1.176 16.128a.506.506 0 0 1 -.053.19l-6.45 12.68a1.607 1.607 0 0 0 .479 2.224 1.631 1.631 0 0 0 2.184-.5l7.5-11.937a1.661 1.661 0 0 0 .228-.644l.694-3.95a.5.5 0 0 1 .489-.415z"/><path d="m67.058 71.5h-38.649a.5.5 0 0 1 -.491-.6l2.746-14.07a.5.5 0 0 1 .221-.325l9.452-6.071 4.953-8.944a.5.5 0 0 1 .374-.254l7.117-.915 5.739-8.634a.5.5 0 0 1 .394-.223.5.5 0 0 1 .412.186l6.04 7.481a.5.5 0 0 1 .107.378l-1.4 10.913 3.457 9.046a.5.5 0 0 1 .033.178v11.354a.5.5 0 0 1 -.505.5zm-38.042-1h37.542v-10.758l-3.468-9.077a.5.5 0 0 1 -.029-.242l1.392-10.823-5.478-6.785-5.488 8.256a.5.5 0 0 1 -.353.219l-7.092.912-4.892 8.833a.5.5 0 0 1 -.167.179l-9.383 6.021z"/></g><path d="m40.282 68.025h-1.063a.65.65 0 0 1 0-1.3h1.063a.65.65 0 1 1 0 1.3z" fill="#fff"/><path d="m36.675 68.025h-4.425a.65.65 0 0 1 -.638-.774l.646-3.312a.65.65 0 0 1 1.276.249l-.5 2.538h3.636a.65.65 0 1 1 0 1.3z" fill="#fff"/></g></svg>