<svg height="512" viewBox="0 0 74 74" width="512" xmlns="http://www.w3.org/2000/svg"><g id="line_color" data-name="line color"><path d="m59.781 35.161h-45.562a11.219 11.219 0 1 0 0 22.438h45.562a11.219 11.219 0 0 0 0-22.438z" fill="#bbbbcd"/><path d="m68.019 38.782a11.2 11.2 0 0 1 -10.03 16.225h-45.562a11.176 11.176 0 0 1 -8.238-3.621 11.209 11.209 0 0 0 10.03 6.214h45.562a11.206 11.206 0 0 0 8.238-18.817z" fill="#9297ab"/><path d="m14.141 40.302h45.717v12.155h-45.717z" fill="#eeefee"/><path d="m59.859 52.958h-45.718a.5.5 0 0 1 -.5-.5v-12.158a.5.5 0 0 1 .5-.5h45.718a.5.5 0 0 1 .5.5v12.158a.5.5 0 0 1 -.5.5zm-45.218-1h44.718v-11.158h-44.718z" fill="#323c6b"/><path d="m14.141 40.302h45.717v12.155h-45.717z" fill="#fff"/><path d="m59.859 52.958h-45.718a.5.5 0 0 1 -.5-.5v-12.158a.5.5 0 0 1 .5-.5h45.718a.5.5 0 0 1 .5.5v12.158a.5.5 0 0 1 -.5.5zm-45.218-1h44.718v-11.158h-44.718z" fill="#323c6b"/><path d="m14.489 35.164-5.133-2.575.071-.055 7.257-1.331 4.507-6.417 1.022 10.378z" fill="#e1e6e9"/><path d="m22.213 35.664h-7.724a.5.5 0 0 1 -.224-.053l-5.134-2.575a.5.5 0 0 1 -.083-.841.935.935 0 0 1 .289-.153l7.056-1.294 4.39-6.25a.5.5 0 0 1 .907.239l1.022 10.378a.5.5 0 0 1 -.5.549zm-7.606-1h7.054l-.836-8.488-3.733 5.314a.5.5 0 0 1 -.319.2l-5.922 1.086z" fill="#323c6b"/><path d="m21.187 24.79-4.493 6.419-7.263 1.322-.13-.026 2.231-4.617 5.945-3.854 3.566.727z" fill="#e1e6e9"/><path d="m9.432 33.031a.5.5 0 0 1 -.1-.009l-.132-.022a.5.5 0 0 1 -.353-.708l2.231-4.617a.5.5 0 0 1 .178-.2l5.945-3.854a.5.5 0 0 1 .372-.07l3.706.754a.5.5 0 0 1 .313.777l-4.492 6.418a.5.5 0 0 1 -.32.205l-7.259 1.317a.5.5 0 0 1 -.089.009zm2.49-4.8-1.769 3.66 6.247-1.137 3.938-5.626-2.761-.563z" fill="#323c6b"/><path d="m19.607 35.664a.5.5 0 0 1 -.4-.2l-2.926-3.964a.5.5 0 0 1 .8-.594l2.923 3.961a.5.5 0 0 1 -.4.8z" fill="#323c6b"/><path d="m60.32 35.164 4.31-2.16-.08-.06-7.3-1.33-4.53-6.47-.98 10.02z" fill="#e1e6e9"/><path d="m60.32 35.664h-8.58a.5.5 0 0 1 -.5-.549l.98-10.02a.5.5 0 0 1 .907-.238l4.412 6.3 7.1 1.293a.491.491 0 0 1 .21.092l.08.06a.5.5 0 0 1 -.076.847l-4.31 2.16a.5.5 0 0 1 -.223.055zm-8.028-1h7.908l2.933-1.47-5.974-1.088a.5.5 0 0 1 -.32-.205l-3.754-5.362z" fill="#323c6b"/><path d="m52.721 25.152 4.522 6.462 7.31 1.33.131-.026-2.246-4.647-5.984-3.879-3.589.732z" fill="#e1e6e9"/><path d="m64.553 33.444a.5.5 0 0 1 -.089-.008l-7.31-1.33a.5.5 0 0 1 -.32-.205l-4.522-6.461a.5.5 0 0 1 .312-.777l3.731-.76a.49.49 0 0 1 .372.07l5.984 3.879a.5.5 0 0 1 .178.2l2.245 4.648a.5.5 0 0 1 -.354.708l-.131.026a.5.5 0 0 1 -.096.01zm-7.018-2.285 6.3 1.146-1.783-3.691-5.7-3.691-2.786.568z" fill="#323c6b"/><path d="m54.629 35.664a.5.5 0 0 1 -.4-.8l2.62-3.55a.5.5 0 1 1 .8.594l-2.62 3.55a.5.5 0 0 1 -.4.206z" fill="#323c6b"/><path d="m39.491 35.164 10.805-10.633-26.431-5.732 6.261 16.365z" fill="#e1e6e9"/><path d="m34.815 35.664h-1.241a.5.5 0 0 1 -.5-.432l-2.034-14.7a.5.5 0 0 1 .6-.557l11.069 2.4a.5.5 0 0 1 .316.756l-7.793 12.3a.5.5 0 0 1 -.417.233zm-.806-1h.531l7.26-11.464-9.67-2.1z" fill="#323c6b"/><path d="m28.969 13.536-5.116 5.262 26.439 5.739-2.733-6.966z" fill="#e1e6e9"/><path d="m50.28 24.53-2.65-.58-.4-.13-11.537 11.344 3.797-.004 10.8-10.62.01-.01z" fill="#d5d6db"/><path d="m47.62 23.96-.351-.061-2.74-6.96 3.031.631 2.72 6.96.01.01z" fill="#d5d6db"/><g fill="#323c6b"><path d="m42.605 23.368a.521.521 0 0 1 -.106-.011l-11.056-2.4a.5.5 0 0 1 -.3-.774l3.857-5.535a.5.5 0 0 1 .516-.2l5.623 1.22a.5.5 0 0 1 .381.375l1.577 6.714a.5.5 0 0 1 -.487.614zm-10.216-3.229 9.549 2.072-1.323-5.636-4.989-1.083z"/><path d="m60.187 61.084a.5.5 0 0 1 -.014-1 13.581 13.581 0 0 0 9.7-4.439.5.5 0 1 1 .737.676 14.576 14.576 0 0 1 -10.41 4.763z"/><path d="m57.563 61.1h-.781a.5.5 0 0 1 0-1h.781a.5.5 0 0 1 0 1z"/><path d="m23.754 16.273a.5.5 0 0 1 -.359-.848l.225-.232a.5.5 0 0 1 .718.7l-.225.232a.5.5 0 0 1 -.359.148z"/><path d="m25.3 14.542a.5.5 0 0 1 -.358-.849l2.975-3.06a.506.506 0 0 1 .464-.14l5.584 1.212a.5.5 0 1 1 -.212.978l-5.313-1.153-2.779 2.86a.5.5 0 0 1 -.361.152z"/></g><circle cx="14.141" cy="46.38" fill="#d5d6db" r="6.078"/><path d="m14.141 52.958a6.578 6.578 0 1 1 6.578-6.578 6.585 6.585 0 0 1 -6.578 6.578zm0-12.155a5.578 5.578 0 1 0 5.578 5.578 5.584 5.584 0 0 0 -5.578-5.581z" fill="#323c6b"/><circle cx="37" cy="46.38" fill="#d5d6db" r="6.078"/><path d="m37 52.958a6.578 6.578 0 1 1 6.578-6.578 6.585 6.585 0 0 1 -6.578 6.578zm0-12.158a5.578 5.578 0 1 0 5.578 5.578 5.584 5.584 0 0 0 -5.578-5.578z" fill="#323c6b"/><circle cx="59.859" cy="46.38" fill="#d5d6db" r="6.078"/><g fill="#323c6b"><path d="m59.859 52.958a6.578 6.578 0 1 1 6.578-6.578 6.585 6.585 0 0 1 -6.578 6.578zm0-12.155a5.578 5.578 0 1 0 5.578 5.578 5.584 5.584 0 0 0 -5.578-5.581z"/><path d="m39.491 35.664h-9.365a.5.5 0 0 1 -.467-.321l-6.259-16.365a.5.5 0 0 1 .087-.5.509.509 0 0 1 .485-.163l26.428 5.727a.5.5 0 0 1 .245.845l-10.8 10.633a.5.5 0 0 1 -.354.144zm-9.021-1h8.816l10-9.84-24.623-5.34z"/><path d="m50.292 25.037a.521.521 0 0 1 -.106-.011l-26.439-5.739a.5.5 0 0 1 -.252-.837l5.116-5.262a.51.51 0 0 1 .464-.14l18.59 4.035a.5.5 0 0 1 .359.306l2.733 6.965a.5.5 0 0 1 -.465.683zm-25.452-6.537 24.646 5.35-2.295-5.85-18.057-3.917z"/><path d="m59.781 58.1h-45.562a11.719 11.719 0 0 1 0-23.438h45.562a11.719 11.719 0 0 1 0 23.438zm-45.562-22.439a10.719 10.719 0 0 0 0 21.438h45.562a10.719 10.719 0 0 0 0-21.438z"/></g><path d="m44.151 38.383h-9.568a.65.65 0 0 1 0-1.3h9.567a.65.65 0 0 1 0 1.3z" fill="#fff"/><path d="m47.859 38.383h-.75a.65.65 0 0 1 0-1.3h.75a.65.65 0 0 1 0 1.3z" fill="#fff"/></g></svg>