<svg height="512" viewBox="0 0 74 74" width="512" xmlns="http://www.w3.org/2000/svg"><g id="line_color" data-name="line color"><path d="m57.513 9.389c0 3.534-9.186 6.4-20.517 6.4s-20.508-2.864-20.508-6.4a.641.641 0 0 1 .01-.136c.222-3.466 9.321-6.253 20.502-6.253s20.28 2.787 20.5 6.253a.641.641 0 0 1 .013.136z" fill="#6eaaad"/><g fill="#323c6b"><path d="m37 16.288c-10.326 0-21.008-2.581-21.008-6.9a1.125 1.125 0 0 1 .02-.235c.233-3.763 9.26-6.653 20.988-6.653s20.755 2.89 21 6.721a.72.72 0 0 1 .011.168c.002 4.319-10.685 6.899-21.011 6.899zm0-12.788c-11.739 0-19.818 2.992-20 5.786l-.509.1h.5c0 2.849 8.04 5.9 20.008 5.9s20.018-3.05 20.018-5.9h.5l-.5-.041c-.194-2.853-8.277-5.845-20.017-5.845z"/><path d="m16.487 9.889a.5.5 0 0 1 -.5-.5v-.136a.5.5 0 0 1 .5-.5.508.508 0 0 1 .392.184.5.5 0 0 1 .108.413v.039a.5.5 0 0 1 -.5.5z"/><path d="m57.513 9.889a.5.5 0 0 1 -.5-.5.54.54 0 0 1 .1-.434.516.516 0 0 1 .387-.2.508.508 0 0 1 .51.5v.136a.5.5 0 0 1 -.497.498z"/></g><path d="m37 15.79c11.33 0 20.51-2.87 20.51-6.4v55.22c0 3.53-9.18 6.39-20.51 6.39" fill="#89c5cd"/><path d="m37 15.79c-11.33 0-20.51-2.87-20.51-6.4v55.22c0 3.53 9.18 6.39 20.51 6.39" fill="#89c5cd"/><path d="m57.51 9.39v55.22c0 3.53-9.18 6.39-20.51 6.39-10.9 0-19.81-2.65-20.46-5.99 3.69 1.69 9.91 2.79 16.96 2.79 1.19 0 2.37-.03 3.5-.09 9.66-.52 17.01-3.13 17.01-6.3v-48.44c2.21-1.02 3.5-2.25 3.5-3.58z" fill="#6eaaad"/><path d="m32.757 45.989c0-2.344 4.243-8.015 4.243-8.015s4.243 5.671 4.243 8.015a4.243 4.243 0 1 1 -8.487 0z" fill="#eeefee"/><g fill="#323c6b"><path d="m37 50.732a4.749 4.749 0 0 1 -4.743-4.743c0-2.439 3.9-7.72 4.343-8.314a.517.517 0 0 1 .8 0c.444.594 4.343 5.875 4.343 8.314a4.749 4.749 0 0 1 -4.743 4.743zm0-11.91c-1.325 1.852-3.743 5.562-3.743 7.167a3.743 3.743 0 1 0 7.486 0c0-1.606-2.418-5.315-3.743-7.167z"/><path d="m14.393 6.985a.5.5 0 0 1 -.418-.775c1.416-2.148 4.353-3.834 8.725-5.01a.5.5 0 0 1 .26.966c-4.133 1.11-6.875 2.655-8.152 4.593a.5.5 0 0 1 -.415.226z"/><path d="m25.582 1.552a.5.5 0 0 1 -.095-.991q.378-.073.759-.141a.5.5 0 1 1 .174.984q-.372.066-.741.138a.5.5 0 0 1 -.097.01z"/><path d="m60.513 41.2a.5.5 0 0 1 -.5-.5v-.375a.5.5 0 0 1 1 0v.375a.5.5 0 0 1 -.5.5z"/><path d="m60.513 53.25a.5.5 0 0 1 -.5-.5v-10a.5.5 0 0 1 1 0v10a.5.5 0 0 1 -.5.5z"/><path d="m37 33.608c-10.329 0-21.013-2.578-21.013-6.893a.5.5 0 1 1 1 0c0 2.846 8.042 5.893 20.013 5.893s20.013-3.047 20.013-5.893a.5.5 0 0 1 1 0c0 4.315-10.684 6.893-21.013 6.893z"/><path d="m37 55.974c-10.329 0-21.013-2.578-21.013-6.893a.5.5 0 0 1 1 0c0 2.846 8.042 5.893 20.013 5.893s20.013-3.047 20.013-5.893a.5.5 0 0 1 1 0c0 4.319-10.684 6.893-21.013 6.893z"/></g><ellipse cx="25.229" cy="9.125" fill="#eeefee" rx="2.208" ry="1.625"/><path d="m25.229 11.25a2.473 2.473 0 0 1 -2.709-2.125 2.473 2.473 0 0 1 2.709-2.125 2.473 2.473 0 0 1 2.708 2.125 2.473 2.473 0 0 1 -2.708 2.125zm0-3.25c-.927 0-1.709.515-1.709 1.125s.782 1.125 1.709 1.125 1.708-.515 1.708-1.125-.782-1.125-1.708-1.125z" fill="#323c6b"/><path d="m37 71.5a.5.5 0 0 1 0-1c11.97 0 20.01-3.045 20.01-5.89v-53.034c-2.887 2.989-11.568 4.714-20.01 4.714a.5.5 0 1 1 0-1c11.97 0 20.01-3.051 20.01-5.9a.5.5 0 0 1 1 0v55.22c0 4.313-10.683 6.89-21.01 6.89z" fill="#323c6b"/><path d="m37 71.5c-10.327 0-21.01-2.577-21.01-6.89v-55.22a.5.5 0 0 1 1 0c0 2.849 8.04 5.9 20.01 5.9a.5.5 0 0 1 0 1c-8.442 0-17.123-1.725-20.01-4.714v53.034c0 2.845 8.04 5.89 20.01 5.89a.5.5 0 0 1 0 1z" fill="#323c6b"/><path d="m21.2 18.128a.642.642 0 0 1 -.229-.042q-.476-.179-.912-.369a.65.65 0 0 1 .521-1.191q.406.177.85.345a.65.65 0 0 1 -.229 1.258z" fill="#fff"/><path d="m34.72 20.411h-.02a53.022 53.022 0 0 1 -10.4-1.318.65.65 0 0 1 .307-1.264 51.711 51.711 0 0 0 10.143 1.283.65.65 0 0 1 -.022 1.3z" fill="#fff"/></g></svg>