<svg height="512" viewBox="0 0 74 74" width="512" xmlns="http://www.w3.org/2000/svg"><g id="line_color" data-name="line color"><path d="m20.428 23.151h2.2v12.594h-2.2a2.929 2.929 0 0 1 -2.928-2.932v-6.73a2.929 2.929 0 0 1 2.928-2.932z" fill="#fe7058"/><path d="m22.627 36.245h-2.2a3.435 3.435 0 0 1 -3.427-3.432v-6.73a3.435 3.435 0 0 1 3.432-3.432h2.2a.5.5 0 0 1 .5.5v12.594a.5.5 0 0 1 -.505.5zm-2.2-12.594a2.434 2.434 0 0 0 -2.427 2.432v6.73a2.434 2.434 0 0 0 2.432 2.432h1.7v-11.594z" fill="#323c6b"/><path d="m56.966 23.151v12.594h-7.241a9.419 9.419 0 0 0 -14.027 0h-7.241v-12.594z" fill="#fe7058"/><path d="m67.938 26.083v6.73a2.936 2.936 0 0 1 -2.932 2.932h-2.206v-12.594h2.21a2.936 2.936 0 0 1 2.928 2.932z" fill="#fe7058"/><path d="m20.428 48.339h2.2v12.605h-2.2a2.929 2.929 0 0 1 -2.928-2.932v-6.73a2.939 2.939 0 0 1 2.928-2.943z" fill="#fe7058"/><path d="m22.627 61.444h-2.2a3.435 3.435 0 0 1 -3.427-3.432v-6.73a3.441 3.441 0 0 1 3.432-3.443h2.2a.5.5 0 0 1 .5.5v12.6a.5.5 0 0 1 -.505.505zm-2.2-12.6a2.44 2.44 0 0 0 -2.427 2.438v6.73a2.434 2.434 0 0 0 2.432 2.432h1.7v-11.6z" fill="#323c6b"/><path d="m56.966 48.339v12.605h-28.509v-12.605h7.23a9.421 9.421 0 0 0 14.049 0z" fill="#fe7058"/><path d="m56.966 61.444h-28.509a.5.5 0 0 1 -.5-.5v-12.6a.5.5 0 0 1 .5-.5h7.23a.5.5 0 0 1 .372.166 8.922 8.922 0 0 0 13.3 0 .5.5 0 0 1 .373-.167h7.229a.5.5 0 0 1 .5.5v12.6a.5.5 0 0 1 -.495.501zm-28.009-1h27.509v-11.6h-6.509a9.922 9.922 0 0 1 -14.489 0h-6.511z" fill="#323c6b"/><path d="m67.938 51.282v6.73a2.936 2.936 0 0 1 -2.932 2.932h-2.206v-12.605h2.21a2.946 2.946 0 0 1 2.928 2.943z" fill="#fe7058"/><path d="m22.627 35.745v12.594h-6.6a2.932 2.932 0 0 1 -2.927-2.932v-6.73a2.932 2.932 0 0 1 2.932-2.932z" fill="#fe7058"/><path d="m22.627 48.839h-6.6a3.435 3.435 0 0 1 -3.427-3.432v-6.73a3.435 3.435 0 0 1 3.432-3.432h6.6a.5.5 0 0 1 .5.5v12.594a.5.5 0 0 1 -.505.5zm-6.6-12.594a2.434 2.434 0 0 0 -2.427 2.432v6.73a2.434 2.434 0 0 0 2.432 2.432h6.1v-11.594z" fill="#323c6b"/><path d="m35.7 35.745a9.415 9.415 0 0 0 -.011 12.594h-7.23v-12.594z" fill="#fe7058"/><path d="m35.688 48.839h-7.23a.5.5 0 0 1 -.5-.5v-12.594a.5.5 0 0 1 .5-.5h7.242a.5.5 0 0 1 .37.836 8.916 8.916 0 0 0 -.01 11.919.5.5 0 0 1 -.372.834zm-6.73-1h5.686a9.927 9.927 0 0 1 .007-11.594h-5.694z" fill="#323c6b"/><path d="m56.966 35.745v12.594h-7.23a9.416 9.416 0 0 0 -.011-12.594z" fill="#fe7058"/><path d="m56.966 48.839h-7.23a.5.5 0 0 1 -.372-.839 8.917 8.917 0 0 0 -.01-11.924.5.5 0 0 1 .37-.836h7.241a.5.5 0 0 1 .5.5v12.599a.5.5 0 0 1 -.499.5zm-6.186-1h5.686v-11.594h-5.693a9.927 9.927 0 0 1 .007 11.594z" fill="#323c6b"/><path d="m72.325 38.677v6.73a2.929 2.929 0 0 1 -2.932 2.932h-6.593v-12.594h6.6a2.929 2.929 0 0 1 2.925 2.932z" fill="#fe7058"/><path d="m28.461 23.155h28.5v2.53h-28.5z" fill="#ea6453"/><path d="m67.942 26.085v6.73a2.915 2.915 0 0 1 -2.52 2.89 2.184 2.184 0 0 0 .03-.36v-6.73a2.926 2.926 0 0 0 -2.66-2.91v-2.55h2.208a2.936 2.936 0 0 1 2.942 2.93z" fill="#ea6453"/><path d="m65.006 48.339h-2.206v.091a2.945 2.945 0 0 1 2.227 2.846v6.73a2.931 2.931 0 0 1 -2.227 2.837v.1h2.21a2.936 2.936 0 0 0 2.932-2.932v-6.73a2.946 2.946 0 0 0 -2.936-2.942z" fill="#ea6453"/><path d="m69.393 35.745h-2.86a2.926 2.926 0 0 1 2.877 2.926v6.729a2.929 2.929 0 0 1 -2.932 2.932h-3.678v.006h6.6a2.929 2.929 0 0 0 2.932-2.932v-6.73a2.929 2.929 0 0 0 -2.939-2.931z" fill="#ea6453"/><g fill="#323c6b"><path d="m13.1 42.255h-.052a10.442 10.442 0 0 1 -2.377-.5c-3.977-1.42-6.371-4.821-6.746-9.586a17.911 17.911 0 0 1 2.797-11.669 14.906 14.906 0 0 1 2.2-2.646 15.69 15.69 0 0 1 10.915-4.2h18.631a.5.5 0 0 1 0 1h-18.627a14.7 14.7 0 0 0 -10.226 3.924 13.925 13.925 0 0 0 -2.055 2.468 17.16 17.16 0 0 0 -2.64 11.031c.344 4.362 2.5 7.457 6.081 8.728a9.425 9.425 0 0 0 2.148.453.5.5 0 0 1 -.05 1z"/><path d="m17.5 55.716h-.011a11.72 11.72 0 0 1 -7.709-3.732c-2.98-3.183-4.35-8-4.07-14.315a.471.471 0 0 1 .521-.478.5.5 0 0 1 .477.521c-.266 6.027 1.009 10.594 3.792 13.573a10.911 10.911 0 0 0 7.012 3.431.5.5 0 0 1 -.012 1z"/><path d="m16.2 30.009a10.852 10.852 0 0 1 -10.436-7.554.5.5 0 0 1 .963-.268 9.742 9.742 0 0 0 10.723 6.763.5.5 0 1 1 .092 1c-.464.039-.911.059-1.342.059z"/><path d="m67.924 63.671a.5.5 0 0 1 -.247-.935 5.448 5.448 0 0 0 2.762-4.724v-1.97a.5.5 0 0 1 1 0v1.971a6.45 6.45 0 0 1 -3.268 5.594.5.5 0 0 1 -.247.064z"/><path d="m65.006 64.444a.5.5 0 0 1 0-1 5.426 5.426 0 0 0 .812-.068.5.5 0 0 1 .15.988 6.361 6.361 0 0 1 -.962.08z"/></g><path d="m44.627 14.071a.487.487 0 0 0 -.229.705l1.054 1.675.014.014.347.563a.485.485 0 0 1 -.649.682l-2.314-1.31a.5.5 0 0 0 -.7.264l-.843 3.791a.484.484 0 0 1 -.935-.088l-.457-3.9a.478.478 0 0 0 -.636-.379l-3 .915a.485.485 0 0 1 -.518-.784l2.278-2.006a.481.481 0 0 0 -.1-.734l-2.252-1.415a.484.484 0 0 1 .292-.893l3.371.874a.479.479 0 0 0 .509-.538l-1.05-3.438a.487.487 0 0 1 .891-.329l1.553 2.271a.488.488 0 0 0 .741.068l1.868-1.879a.486.486 0 0 1 .81.483l-.759 2.546a.486.486 0 0 0 .409.62l4.39.226a.485.485 0 0 1 .122.933l-2.726.69z" fill="#fe7058"/><path d="m40.859 21.279c-.029 0-.06 0-.089 0a.971.971 0 0 1 -.892-.831l-.46-3.92-3 .957a.984.984 0 0 1 -1.029-1.6l2.314-2.041-2.285-1.35a.983.983 0 0 1 .592-1.815l3.338.857-1.015-3.321a.988.988 0 0 1 .612-1.122.972.972 0 0 1 1.161.362l1.556 2.272 1.845-1.881a.985.985 0 0 1 1.644.979l-.758 2.544 4.346.2a.983.983 0 0 1 .9.856.972.972 0 0 1 -.616 1.042l-4.188 1.063 1.025 1.616c.014.018.027.036.037.051l.347.563a.985.985 0 0 1 -1.321 1.379l-2.323-1.304-.8 3.729a.978.978 0 0 1 -.941.715zm-1.419-5.722a.987.987 0 0 1 .506.141.976.976 0 0 1 .464.693l.46 3.919.792-3.753a1.025 1.025 0 0 1 .606-.653.992.992 0 0 1 .821.058l2.32 1.312-.338-.5a.49.49 0 0 1 -.043-.058l-1.054-1.675a.975.975 0 0 1 -.105-.814.994.994 0 0 1 .563-.618.484.484 0 0 1 .072-.024l4.206-1.063-4.41-.174a1 1 0 0 1 -.747-.449.973.973 0 0 1 -.114-.818l.757-2.542-1.848 1.892a1 1 0 0 1 -.8.282.975.975 0 0 1 -.71-.42l-1.556-2.271 1.058 3.339a1.013 1.013 0 0 1 -.247.883 1 1 0 0 1 -.773.3l-3.292-.844 2.178 1.356a.973.973 0 0 1 .45.694.986.986 0 0 1 -.247.8l-2.318 2.045 3.044-.985a.91.91 0 0 1 .305-.053z" fill="#323c6b"/><path d="m42.417 13.847a.151.151 0 0 0 -.071.219l.328.521.108.175a.151.151 0 0 1 -.2.212l-.72-.407a.154.154 0 0 0 -.217.082l-.262 1.18a.151.151 0 0 1 -.291-.027l-.142-1.214a.149.149 0 0 0 -.2-.118l-.934.285a.151.151 0 0 1 -.161-.244l.709-.624a.15.15 0 0 0 -.031-.228l-.7-.44a.151.151 0 0 1 .091-.278l1.049.272a.149.149 0 0 0 .158-.167l-.327-1.07a.151.151 0 0 1 .275-.1l.483.707a.152.152 0 0 0 .231.021l.582-.585a.151.151 0 0 1 .252.15l-.236.792a.151.151 0 0 0 .127.193l1.366.07a.151.151 0 0 1 .038.29l-.848.215z" fill="#fcd462"/><path d="m65.006 36.245h-2.206a.5.5 0 0 1 -.5-.5v-12.594a.5.5 0 0 1 .5-.5h2.21a3.436 3.436 0 0 1 3.433 3.432v6.73a3.436 3.436 0 0 1 -3.437 3.432zm-1.71-1h1.71a2.435 2.435 0 0 0 2.433-2.432v-6.73a2.435 2.435 0 0 0 -2.433-2.432h-1.706z" fill="#323c6b"/><path d="m65.006 61.444h-2.206a.5.5 0 0 1 -.5-.5v-12.6a.5.5 0 0 1 .5-.5h2.21a3.442 3.442 0 0 1 3.433 3.443v6.73a3.436 3.436 0 0 1 -3.437 3.427zm-1.71-1h1.71a2.435 2.435 0 0 0 2.433-2.432v-6.73a2.44 2.44 0 0 0 -2.433-2.443h-1.706z" fill="#323c6b"/><path d="m69.393 48.839h-6.593a.5.5 0 0 1 -.5-.5v-12.594a.5.5 0 0 1 .5-.5h6.6a3.436 3.436 0 0 1 3.433 3.432v6.73a3.436 3.436 0 0 1 -3.44 3.432zm-6.1-1h6.1a2.435 2.435 0 0 0 2.433-2.432v-6.73a2.435 2.435 0 0 0 -2.433-2.432h-6.093z" fill="#323c6b"/><path d="m56.966 36.245h-7.241a.5.5 0 0 1 -.373-.167 8.919 8.919 0 0 0 -13.281 0 .5.5 0 0 1 -.372.167h-7.242a.5.5 0 0 1 -.5-.5v-12.594a.5.5 0 0 1 .5-.5h28.509a.5.5 0 0 1 .5.5v12.594a.5.5 0 0 1 -.5.5zm-7.021-1h6.521v-11.594h-27.509v11.594h6.521a9.919 9.919 0 0 1 14.467 0z" fill="#323c6b"/><path d="m44.917 57.837h-.824a.694.694 0 1 1 0-1.388h.824a.694.694 0 1 1 0 1.388z" fill="#fff"/><path d="m41.022 57.837h-7.162a.694.694 0 1 1 0-1.388h7.162a.694.694 0 1 1 0 1.388z" fill="#fff"/><circle cx="42.713" cy="42.045" fill="#89c5cd" r="9.92"/><g fill="#323c6b"><path d="m42.714 52.465a10.42 10.42 0 1 1 10.42-10.42 10.432 10.432 0 0 1 -10.42 10.42zm0-19.84a9.42 9.42 0 1 0 9.42 9.42 9.432 9.432 0 0 0 -9.42-9.42z"/><path d="m42.714 36.427a.5.5 0 0 1 -.5-.5v-.507a.5.5 0 0 1 1 0v.507a.5.5 0 0 1 -.5.5z"/><path d="m36.6 42.545h-.508a.5.5 0 1 1 0-1h.508a.5.5 0 0 1 0 1z"/><path d="m42.714 49.17a.5.5 0 0 1 -.5-.5v-.507a.5.5 0 0 1 1 0v.507a.5.5 0 0 1 -.5.5z"/><path d="m49.339 42.545h-.508a.5.5 0 0 1 0-1h.508a.5.5 0 0 1 0 1z"/><path d="m44.818 42.545h-2.1a.5.5 0 0 1 -.332-.126l-3.813-3.389a.5.5 0 0 1 .664-.747l3.663 3.262h1.914a.5.5 0 0 1 0 1z"/></g><path d="m62.8 22.922v38.251a1.569 1.569 0 0 1 -1.6 1.536h-3.635a1.569 1.569 0 0 1 -1.6-1.536v-38.251a1.578 1.578 0 0 1 1.6-1.547h3.635a1.578 1.578 0 0 1 1.6 1.547z" fill="#eeefee"/><path d="m61.2 21.375h-2.49a1.578 1.578 0 0 1 1.6 1.547v38.251a1.569 1.569 0 0 1 -1.6 1.536h2.49a1.569 1.569 0 0 0 1.6-1.536v-38.251a1.578 1.578 0 0 0 -1.6-1.547z" fill="#e0e0e0"/><path d="m61.2 63.209h-3.635a2.071 2.071 0 0 1 -2.1-2.037v-38.25a2.076 2.076 0 0 1 2.1-2.047h3.635a2.076 2.076 0 0 1 2.1 2.047v38.25a2.071 2.071 0 0 1 -2.1 2.037zm-3.635-41.334a1.076 1.076 0 0 0 -1.1 1.047v38.25a1.071 1.071 0 0 0 1.1 1.037h3.635a1.07 1.07 0 0 0 1.1-1.037v-38.25a1.075 1.075 0 0 0 -1.1-1.047z" fill="#323c6b"/><path d="m28.957 22.922v38.251a1.569 1.569 0 0 1 -1.6 1.536h-3.631a1.569 1.569 0 0 1 -1.6-1.536v-38.251a1.578 1.578 0 0 1 1.6-1.547h3.632a1.578 1.578 0 0 1 1.599 1.547z" fill="#eeefee"/><path d="m27.358 21.375h-2.49a1.578 1.578 0 0 1 1.6 1.547v38.251a1.569 1.569 0 0 1 -1.6 1.536h2.49a1.569 1.569 0 0 0 1.6-1.536v-38.251a1.578 1.578 0 0 0 -1.6-1.547z" fill="#e0e0e0"/><path d="m27.358 63.209h-3.631a2.071 2.071 0 0 1 -2.1-2.037v-38.25a2.076 2.076 0 0 1 2.1-2.047h3.632a2.076 2.076 0 0 1 2.1 2.047v38.25a2.071 2.071 0 0 1 -2.101 2.037zm-3.631-41.334a1.076 1.076 0 0 0 -1.1 1.047v38.25a1.071 1.071 0 0 0 1.1 1.037h3.632a1.07 1.07 0 0 0 1.1-1.037v-38.25a1.075 1.075 0 0 0 -1.1-1.047z" fill="#323c6b"/></g></svg>