<svg height="512" viewBox="0 0 74 74" width="512" xmlns="http://www.w3.org/2000/svg"><g id="line_color" data-name="line color"><path d="m38.313 28.271c6.241 7.152 7.731 13.665 8.718 21.756q19.256-4.255 23.512-23.512a33.414 33.414 0 0 1 -21.78-8.694z" fill="#e1e6e9"/><path d="m48.762 17.821-1.85 1.85c8.095 6.808 15.3 9.032 20.255 9.124-1.791 8.105-5.367 13.967-10.983 17.905q11.216-6.05 14.358-20.185a33.413 33.413 0 0 1 -21.78-8.694z" fill="#d5d6db"/><rect fill="#bbbbcd" height="17.281" rx="1.076" transform="matrix(.707 .707 -.707 .707 25.617 -22.498)" width="9.827" x="35.052" y="11.032"/><path d="m37.33 29.311a1.572 1.572 0 0 1 -1.114-.461l-5.428-5.427a1.578 1.578 0 0 1 0-2.229l10.7-10.7a1.58 1.58 0 0 1 2.229 0l5.427 5.427a1.577 1.577 0 0 1 0 2.228l-10.7 10.7a1.572 1.572 0 0 1 -1.114.462zm5.27-18.276a.576.576 0 0 0 -.407.168l-10.693 10.697a.576.576 0 0 0 0 .814l5.428 5.427a.576.576 0 0 0 .814 0l10.7-10.7a.576.576 0 0 0 0-.814l-5.433-5.427a.576.576 0 0 0 -.409-.165z" fill="#323c6b"/><path d="m45.594 11h3.084a1.228 1.228 0 0 1 1.228 1.228v1.772a0 0 0 0 1 0 0h-5.54a0 0 0 0 1 0 0v-1.77a1.228 1.228 0 0 1 1.228-1.23z" fill="#e7aa6c" transform="matrix(.707 .707 -.707 .707 22.647 -29.668)"/><path d="m31.915 23.842 3.885 3.882-26.307 28.633a2.255 2.255 0 0 1 -3.264.079l-3.029-3.026a2.255 2.255 0 0 1 .079-3.264z" fill="#e7aa6c"/><path d="m47.979 11.232h-.106a1.214 1.214 0 0 1 -.131 1.542l-1.23 1.226 1.52 1.52 1.25-1.25a1.231 1.231 0 0 0 0-1.74z" fill="#d09865"/><path d="m34.245 26.232-26.293 28.623a2.232 2.232 0 0 1 -3.02.28l1.3 1.3a2.246 2.246 0 0 0 3.26-.08l26.3-28.63-1.492-1.493z" fill="#d09865"/><g fill="#323c6b"><path d="m59.636 21.695a.5.5 0 0 1 -.2-.04c-.146-.062-.289-.132-.433-.2-.1-.048-.2-.1-.3-.142a.5.5 0 1 1 .412-.911c.109.049.218.1.326.156.127.063.253.125.382.179a.5.5 0 0 1 -.2.96z"/><path d="m70.6 24.016h-.01a30.05 30.05 0 0 1 -8.59-1.425.5.5 0 1 1 .3-.952 29.052 29.052 0 0 0 8.3 1.377.5.5 0 0 1 -.01 1z"/><path d="m9.39 40.961a.5.5 0 0 1 -.338-.868l.408-.375a.5.5 0 1 1 .676.736l-.408.375a.5.5 0 0 1 -.338.132z"/><path d="m11.5 39.024a.5.5 0 0 1 -.338-.868l5.421-4.979a.5.5 0 1 1 .676.736l-5.421 4.979a.5.5 0 0 1 -.338.132z"/><path d="m47.03 50.527a.5.5 0 0 1 -.5-.439c-.9-7.4-2.174-14.126-8.6-21.488a.5.5 0 0 1 .023-.682l10.449-10.45a.5.5 0 0 1 .682-.023 32.995 32.995 0 0 0 21.461 8.571.5.5 0 0 1 .479.608c-2.863 12.983-10.902 21.022-23.886 23.891a.5.5 0 0 1 -.108.012zm-8.036-22.227c6.191 7.253 7.558 13.886 8.465 21.121 12.061-2.838 19.612-10.376 22.46-22.421a33.913 33.913 0 0 1 -21.132-8.5z"/><path d="m48.034 16.022a.5.5 0 0 1 -.354-.146l-3.917-3.917a.5.5 0 0 1 0-.707l1.252-1.252a1.771 1.771 0 0 1 2.444 0l2.181 2.18a1.729 1.729 0 0 1 0 2.444l-1.252 1.252a.5.5 0 0 1 -.354.146zm-3.21-4.422 3.21 3.21.9-.9a.729.729 0 0 0 0-1.03l-2.181-2.181a.73.73 0 0 0 -1.03 0z"/><path d="m7.82 57.6a2.73 2.73 0 0 1 -1.945-.807l-3.026-3.029a2.753 2.753 0 0 1 .1-3.988l28.632-26.3a.5.5 0 0 1 .691.015l3.878 3.879a.5.5 0 0 1 .015.692l-26.304 28.638a2.728 2.728 0 0 1 -1.972.9zm24.08-33.065-28.281 25.979a1.755 1.755 0 0 0 -.063 2.542l3.026 3.026a1.7 1.7 0 0 0 1.283.514 1.741 1.741 0 0 0 1.258-.575l25.977-28.283z"/></g><g fill="#fff"><path d="m41.179 15.937a.65.65 0 0 1 -.457-1.112l.395-.39a.65.65 0 1 1 .914.925l-.395.39a.649.649 0 0 1 -.457.187z"/><path d="m34.71 22.325a.65.65 0 0 1 -.457-1.112l4.808-4.747a.65.65 0 1 1 .914.925l-4.808 4.747a.649.649 0 0 1 -.457.187z"/></g></g></svg>