<svg height="512" viewBox="0 0 74 74" width="512" xmlns="http://www.w3.org/2000/svg"><g id="line_color" data-name="line color"><path d="m54.042 42.292c5.2-8.92 2.088-21.362-5.012-29.562-.61 5.03-3.19 8.72-6.21 9.7-.57-6.39-7.38-16.33-12.34-19.43-.06 9.88-1.75 13.97-6.87 22.73-1.71-1.26-2.95-4.43-3.27-7.09-6.68 7.71-9.56 18.59-2.85 26.25a19.622 19.622 0 0 0 4.986 4.042z" fill="#fe7058"/><path d="m21.226 27.337c.525-.9 1-1.736 1.459-2.547a13.131 13.131 0 0 1 -2.345-6.15 31.084 31.084 0 0 0 -2.174 2.83c.498 2.345 1.606 4.796 3.06 5.867z" fill="#ea6453"/><path d="m40.436 24.037a6.917 6.917 0 0 0 2.715-1.737c-.11.044-.22.091-.331.127-.57-6.387-7.38-16.327-12.34-19.427-.007 1.215-.04 2.34-.1 3.4 4.545 4.168 9.569 12.187 10.056 17.637z" fill="#ea6453"/><path d="m49.03 12.73a16.583 16.583 0 0 1 -.83 3.57c5.674 7.731 8.008 18.258 4.095 26.356l1.748-.368c5.199-8.916 2.087-21.358-5.013-29.558z" fill="#ea6453"/><path d="m46.006 41.181a6.647 6.647 0 0 0 -.759-1.865c-3.31-5.573-4.364-7.593-4.4-13.232-2.512 2.426-6.131 6.789-6.427 10.116-1.57-.506-2.913-2.429-3.232-5.049-3 3.469-4.679 8.248-3.753 12.409 9.756 6.376 17.871 9.454 18.571-2.379z" fill="#fcd462"/><g fill="#323c6b"><path d="m40.283 49.716c-3.01 0-7.152-1.837-13.121-5.739a.5.5 0 0 1 -.215-.31c-.916-4.115.564-9.037 3.863-12.846a.5.5 0 0 1 .874.267 5.927 5.927 0 0 0 2.337 4.381c.816-4.1 5.5-8.8 6.478-9.747a.5.5 0 0 1 .848.356c.036 5.507 1 7.37 4.33 12.98a7.134 7.134 0 0 1 .815 2.005.481.481 0 0 1 .013.145c-.25 4.236-1.43 6.828-3.607 7.924a5.711 5.711 0 0 1 -2.615.584zm-12.4-6.463c5.007 3.261 11.133 6.716 14.566 4.987 1.793-.9 2.82-3.263 3.054-7.015a6.129 6.129 0 0 0 -.685-1.655c-3.125-5.262-4.269-7.421-4.446-12.3-2.524 2.619-5.211 6.255-5.453 8.976a.5.5 0 0 1 -.222.373.506.506 0 0 1 -.43.059c-1.584-.511-2.845-2.173-3.376-4.367-2.571 3.369-3.709 7.462-3.009 10.942z"/><path d="m10.732 33.5h-.041a.5.5 0 0 1 -.458-.539 25.84 25.84 0 0 1 2.106-8.161.5.5 0 1 1 .918.4 24.865 24.865 0 0 0 -2.027 7.839.5.5 0 0 1 -.498.461z"/><path d="m10.78 37.267a.5.5 0 0 1 -.5-.443c-.03-.263-.056-.527-.073-.792a.5.5 0 0 1 .467-.531.517.517 0 0 1 .531.467c.016.248.041.5.069.742a.5.5 0 0 1 -.44.554.446.446 0 0 1 -.054.003z"/><path d="m70.139 58.125a.5.5 0 0 1 -.456-.295l-2.561-5.688-2.343-1.151a.5.5 0 1 1 .441-.9l2.5 1.23a.5.5 0 0 1 .235.244l2.635 5.853a.5.5 0 0 1 -.456.705z"/><path d="m71.968 62.188a.5.5 0 0 1 -.456-.295l-.591-1.312a.5.5 0 1 1 .912-.41l.591 1.313a.5.5 0 0 1 -.456.705z"/><path d="m22.477 49.432a.494.494 0 0 1 -.249-.067 19.977 19.977 0 0 1 -5.113-4.146c-7.107-8.113-3.69-19.359 2.848-26.907a.5.5 0 0 1 .874.268c.269 2.226 1.244 5 2.645 6.379 4.973-8.568 6.441-12.627 6.498-21.959a.5.5 0 0 1 .765-.421c4.882 3.051 11.531 12.478 12.5 19.153 2.68-1.229 4.771-4.767 5.293-9.06a.5.5 0 0 1 .874-.267c6.723 7.764 10.621 20.61 5.065 30.141a.5.5 0 0 1 -.329.237l-31.569 6.638a.481.481 0 0 1 -.102.011zm-2.456-29.632c-5.794 7.191-8.612 17.389-2.155 24.76a18.944 18.944 0 0 0 4.7 3.843l31.154-6.555c4.965-8.768 1.644-20.448-4.363-27.948-.833 4.516-3.268 7.991-6.383 9a.5.5 0 0 1 -.652-.431c-.53-5.937-6.622-15.044-11.352-18.531-.154 9.091-1.779 13.235-6.928 22.044a.5.5 0 0 1 -.729.15c-1.674-1.232-2.813-3.953-3.292-6.332z"/></g><path d="m27.314 64.343 3.828 6.657h-20.98l-5.248-4.696 2.594-13.713 9.193-4.297 11.506 7.185.833 2.712z" fill="#9297ab"/><path d="m28.207 55.479-11.506-7.185-9.193 4.297-.535 2.832 9.728-4.548 11.506 7.185.455 1.481.378-1.35z" fill="#84879c"/><path d="m51.018 57.322-1.045 11.999-2.571 1.679h-16.26l-3.828-6.657 1.726-6.152.998-3.557 10.367-2.524z" fill="#9297ab"/><path d="m47.4 71.5h-16.258a.5.5 0 0 1 -.434-.251l-3.827-6.657a.5.5 0 0 1 -.048-.384l2.724-9.708a.5.5 0 0 1 .363-.351l10.366-2.524a.5.5 0 0 1 .339.037l10.613 5.212a.5.5 0 0 1 .277.492l-1.045 12a.5.5 0 0 1 -.225.375l-2.57 1.679a.5.5 0 0 1 -.275.08zm-15.972-1h15.826l2.246-1.464.99-11.416-10.143-4.981-9.907 2.411-2.588 9.226z" fill="#323c6b"/><path d="m44.502 50.56-.869 3.135-3.228-1.585-10.367 2.524-.998 3.557-.833-2.712-7.174-4.485 4.919-7.032 11.412-3.099z" fill="#9297ab"/><path d="m61.068 50.396-.869 1.127-6.387-3.135-9.803 4.943-.129.481-.247-.117.869-3.135-3.428-4.649.74-2.618 7.525-3.792 8.758 4.297z" fill="#9297ab"/><path d="m69.086 62.594-6.422 8.406h-15.262l2.571-1.679 1.045-11.999-7.138-3.51.129-.481 9.803-4.943 11.4 5.6z" fill="#9297ab"/><path d="m37.364 40.863-11.412 3.099-4.919 7.033.38.237 3.424-4.895 11.412-3.1 7.138 9.698-.156.562.402.198.869-3.135z" fill="#84879c"/><path d="m58.097 43.798-8.758-4.297-7.526 3.792-.596 2.113 7.007-3.531 8.758 4.297 2.18 4.842 1.037.509.869-1.127z" fill="#84879c"/><path d="m52.697 50.763 11.4 5.6 3.615 8.03 1.374-1.799-3.874-8.606-11.4-5.6-9.803 4.943-.129.481 1.402.69z" fill="#84879c"/><g fill="#323c6b"><path d="m29.04 58.691a.5.5 0 0 1 -.478-.353l-.779-2.538-7.015-4.386a.5.5 0 0 1 -.146-.71l4.919-7.033a.5.5 0 0 1 .279-.2l11.412-3.1a.505.505 0 0 1 .533.186l7.138 9.7a.5.5 0 0 1 .079.43l-.868 3.135a.5.5 0 0 1 -.276.323.5.5 0 0 1 -.426-.007l-3.066-1.5-9.906 2.412-.919 3.276a.5.5 0 0 1 -.476.365zm-7.295-7.841 6.726 4.206a.5.5 0 0 1 .213.277l.334 1.086.539-1.92a.5.5 0 0 1 .363-.351l10.366-2.524a.5.5 0 0 1 .339.037l2.688 1.319.643-2.32-6.79-9.226-10.908 2.966z"/><path d="m43.88 54.312a.5.5 0 0 1 -.215-.048l-.246-.117a.5.5 0 0 1 -.267-.585l.8-2.9-3.283-4.453a.5.5 0 0 1 -.079-.433l.739-2.618a.5.5 0 0 1 .257-.311l7.525-3.792a.5.5 0 0 1 .445 0l8.759 4.3a.5.5 0 0 1 .235.244l2.97 6.6a.5.5 0 0 1 -.06.51l-.86 1.119a.5.5 0 0 1 -.617.144l-6.163-3.025-9.382 4.729-.07.265a.5.5 0 0 1 -.483.371zm-2.258-8.5 3.278 4.451a.5.5 0 0 1 .079.43l-.51 1.843 9.114-4.594a.5.5 0 0 1 .445 0l6.02 2.955.436-.566-2.772-6.16-8.374-4.108-7.106 3.582z"/><path d="m62.664 71.5h-15.264a.5.5 0 0 1 -.273-.918l2.373-1.546.99-11.416-6.831-3.359a.5.5 0 0 1 -.263-.578l.129-.481a.5.5 0 0 1 .259-.317l9.8-4.942a.5.5 0 0 1 .445 0l11.4 5.6a.5.5 0 0 1 .235.244l3.874 8.605a.5.5 0 0 1 -.059.509l-6.417 8.399a.5.5 0 0 1 -.398.2zm-13.582-1h13.335l6.091-7.973-3.678-8.169-11.015-5.411-9.232 4.653 6.655 3.273a.5.5 0 0 1 .277.492l-1.045 12a.5.5 0 0 1 -.225.375z"/><path d="m31.142 71.5h-20.981a.5.5 0 0 1 -.333-.127l-5.247-4.7a.5.5 0 0 1 -.158-.465l2.594-13.708a.5.5 0 0 1 .279-.36l9.193-4.3a.5.5 0 0 1 .477.029l11.5 7.186a.5.5 0 0 1 .213.277l.834 2.712a.5.5 0 0 1 0 .282l-1.669 5.949 3.723 6.475a.5.5 0 0 1 -.434.749zm-20.789-1h19.924l-3.4-5.908a.5.5 0 0 1 -.048-.384l1.686-6.01-.732-2.398-11.116-6.938-8.716 4.074-2.493 13.183z"/></g><path d="m15.954 67.733h-2.114a.838.838 0 0 1 -.559-.213l-4.711-4.147a.837.837 0 0 1 1.117-1.248l4.472 3.934h1.794a.837.837 0 1 1 0 1.674z" fill="#fff"/><path d="m20.2 67.733h-1.186a.837.837 0 1 1 0-1.674h1.186a.837.837 0 1 1 0 1.674z" fill="#fff"/></g></svg>